<?xml version="1.0" encoding="UTF-8"?>
<svg id="Layer_2" data-name="Layer 2" xmlns="http://www.w3.org/2000/svg" viewBox="0 0 578.19 1003.72">
  <defs>
    <style>
      .cls-1 {
        fill: #dfcfff;
        stroke: #000;
        stroke-miterlimit: 10;
      }
    </style>
  </defs>
  <g id="Layer_1-2" data-name="Layer 1">
    <path class="cls-1" d="m172.96,1003.16c-51.86-10.38-95.6-33.9-126.49-68C16.99,902.6.66,861.72.5,820.05c-.15-37.54,13.08-73.95,37.24-102.53,25.34-29.97,61.56-50.56,104.76-59.56,58.19-12.07,110.98,7.46,153.39,23.16,25.07,9.28,48.72,18.05,66.22,17.78,71.58-1.05,103.86-44.99,110.2-85.75,3.76-24.17-.98-49.01-13.35-69.95-13.9-23.54-36.96-41.24-66.67-51.2-41.87-14.03-79.1-3.48-122.2,8.75-43.88,12.45-93.62,26.55-147.7,9.52-57.66-18.16-102.52-64.75-114.28-118.71-5.21-23.92-4.67-49.53,1.58-74.07,5.83-22.89,16.28-43.92,30.23-60.81,26.51-32.1,65.59-52.31,107.23-55.45,34.42-2.6,64.11,3.05,88.17,10.76-36.22-22.53-56.53-59.99-57.55-106.77-.83-37.94,10.59-75.88,20.63-104.69,37.19,2.5,67.32,15.1,91.48,31.87-29.43,84.48-9.07,94.66-.38,99.01,10.45,5.23,34.56-2.54,57.86-10.06,23.06-7.44,49.19-15.87,77.46-17.7,36.31-2.35,69.33,6.94,98.13,27.62.25.18.49.36.74.54,35.6,26.6,55.75,68.71,53.88,112.63-1.9,44.83-26.8,85.37-68.3,111.21-39.72,24.74-88.44,29.9-144.79,15.35-42.05-10.86-80.72-30.3-111.8-45.92-8.22-4.14-15.99-8.04-22.55-11.12-27.98-13-51.32-17.98-75.69-16.13-15.27,1.15-30.16,8.83-39.83,20.54-8.88,10.75-16.38,31.79-11.85,52.56,3.56,16.34,20.33,38,48.73,46.94,26.44,8.33,55.45.1,92.18-10.32,48.63-13.79,109.15-30.96,179.42-7.4,52.11,17.47,93.36,49.9,119.29,93.78,23.75,40.2,32.86,87.83,25.66,134.11-7.07,45.47-29.63,86.91-63.52,116.69-37.06,32.57-85.81,50.21-140.98,51.03-.73.01-1.46.02-2.19.02-34.74,0-67.44-12.1-99.08-23.8-35.55-13.16-69.13-25.58-100.06-19.17-21.78,4.54-39.26,13.97-50.51,27.27-9.44,11.17-14.4,24.86-14.34,39.6.07,17.73,7.49,35.64,20.9,50.45,16.85,18.61,42.34,31.77,73.7,38.04,3.6,35.87-.89,68.33-19.02,94.99Zm101.26-775.5c6.9,3.3,14.25,6.99,21.97,10.87,48,24.14,120.55,60.61,161.87,34.89,14.32-8.92,22.18-20.36,22.72-33.08.49-11.61-5.15-23.32-14.74-30.66-21.82-15.42-43.95-10.64-88.95,3.87-23.6,7.61-50.8,16.38-79.03,16.38-7.89,0-15.85-.68-23.85-2.27Z"/>
  </g>
</svg>