<?xml version="1.0" encoding="UTF-8"?>
<svg id="Layer_2" data-name="Layer 2" xmlns="http://www.w3.org/2000/svg" viewBox="0 0 1392.4 305.26">
  <defs>
    <style>
      .cls-1 {
        fill: #dfcfff;
        stroke: #000;
        stroke-miterlimit: 10;
      }
    </style>
  </defs>
  <g id="Layer_1-2" data-name="Layer 1">
    <path class="cls-1" d="m528.6,220.89c-1.48-4.52-6.43-13.88-9.9-17.95-1.55-1.82-3.66-2.37-5.64-1.46-2.2,1-4.35,2.16-6.43,3.27-1.15.61-2.29,1.23-3.45,1.82-30,15.33-56.83,14.86-84.42-1.48-10.43-6.18-34.29-22.62-41.26-29.21-.65-.61-.91-1.56-.67-2.42,2.61-9.16,4.45-29.98,2.82-39.55-6.47-37.96-29.79-65.58-63.98-75.78-38.66-11.53-81.09.09-103.2,28.26-11.86,15.11-18.85,35.54-19.68,57.53-.83,21.98,4.59,43.08,15.26,59.42,20.67,31.65,62.42,45.9,103.88,35.45,20.5-5.17,37.22-16.67,51.1-35.16.39-.53.98-.86,1.64-.94.68-.09,1.38.12,1.92.55,27.94,22.65,52.15,35.48,76.2,40.37,7.12,1.45,14.17,2.18,21.19,2.18,21.19,0,42.07-6.63,63.31-20.05,1.4-1.02,1.92-2.96,1.31-4.84Zm-290.18-29.72c-.21.45-.62.75-1.12.81-.5.06-.97-.13-1.29-.52-18.78-23.41-20.17-60.21-3.17-83.79,8.33-11.56,21.2-19.92,36.24-23.56,5.46-1.32,11.04-1.98,16.58-1.98,9.73,0,19.37,2.02,28.16,5.98,25.55,11.53,40.09,39.73,35.34,68.59-.08.48-.38.87-.82,1.07-.44.2-.92.17-1.33-.08-19.63-12.13-42.31-15.66-62.23-9.69-19.98,5.99-36.01,20.91-46.35,43.16Zm23.97,16.68c3.21-13.01,12.03-23.04,24.84-28.25,15.63-6.35,34.47-4.22,50.41,5.7.32.2.54.51.62.88.08.37.02.74-.19,1.05-11.11,17.04-30.34,26.56-51.03,26.55-7.84,0-15.89-1.37-23.78-4.2-.68-.24-1.05-.99-.87-1.74Zm263.63-135.85c.34,22.64.68,46.04-2.43,67.6-4.39,30.45-27.86,49.87-59.3,49.87-2.14,0-4.31-.09-6.52-.27h0c-30.47-2.52-50.69-24.83-52.78-58.22-1.28-20.46-1.62-41.53-1.05-64.42l.03-.58c.08-1.98.14-3.29.98-4.5,2.44-3.54,13.84-4.31,15.13-4.38,5.38-.32,13.4-.78,14.61,3.38.39,1.36.45,3.52.51,5.61l.03,1c.29,9.12.15,18.4.02,27.38-.13,8.75-.26,17.81,0,26.69.22,7.62,1.51,14.88,3.73,21.01,4.21,11.61,13.37,18.03,25.78,18.08h.17c12.8,0,21.98-6.23,25.85-17.57,2.73-8.01,4.35-17,4.67-26.01.49-13.64.39-28.33.29-42.54-.03-4.24-.06-8.46-.07-12.64,0-2.63,3.07-4.44,9.14-5.36,4.33-.66,9.97-.38,13.38.17,1.89.3,7.64,1.21,7.69,5.12.04,3.51.09,7.05.14,10.6Zm252.42,74.56c3.94,41.02-7.02,60.59-17.01,73.06-12.38,15.46-31.52,24.17-52.37,24.17-2.84,0-5.72-.16-8.61-.49-25.77-2.93-47.61-18.07-58.42-40.5-17.25-35.8-17.09-72.04.47-107.72,18.03-36.62,61.67-51.56,99.35-34.01,18.85,8.78,28.4,22.5,31.93,45.87.29,1.93-2.08,3.29-7.25,4.16-6.14,1.03-21.93,1.65-22.78-2.99-2.63-14.25-11.52-22.85-26.41-25.55-16.64-3.01-30.65,2.35-41.64,15.96-9.43,11.67-15.12,29.47-15.62,48.83-.5,19.35,4.26,37.49,13.05,49.77,11.35,15.83,29.59,22.44,46.47,16.84,16.8-5.58,27.85-22.77,27.5-42.79,0-.36-.31-.65-.68-.65h-41.6c-1.27,0-3.02-.79-4.17-4.58-.71-2.33-1.09-5.48-1.09-8.87,0-6.46,1.38-14.01,5.27-14.01h69.76c2.01,0,3.68,1.51,3.87,3.5Zm177.13,0c3.87,40.27-6.65,59.68-16.24,72.09-12.42,16.07-31.91,25.16-53.22,25.16-2.63,0-5.28-.14-7.95-.42-26-2.73-48.06-17.91-59-40.61-17.25-35.79-17.09-72.04.48-107.72,18.03-36.62,61.68-51.55,99.35-33.99,19.38,9.03,29.82,24.05,31.92,45.92.25,2.64-2.97,4.4-9.33,5.1-7.15.79-20.19.11-20.71-4.04-2.54-14.2-11.44-22.8-26.42-25.5-16.65-3-30.65,2.37-41.63,15.97-9.43,11.68-15.12,29.48-15.61,48.83-.5,19.35,4.26,37.49,13.06,49.76,11.35,15.83,29.59,22.44,46.47,16.83,16.83-5.59,27.87-22.82,27.47-42.85,0-.33-.29-.59-.62-.59h-41.65c-1.58,0-2.74-1.52-3.46-4.52-.53-2.23-.83-5.29-.83-8.6,0-2.39.21-14.33,4.29-14.33h69.76c2.01,0,3.68,1.51,3.87,3.5Zm260.1,67.16h-.1c-4.61.01-9.18.07-13.73.12-12.49.15-24.29.29-36.37-.29-11.66-.56-20.71-4.52-26.16-11.44-5.72-7.27-7.48-17.76-5.07-30.33.12-.64.53-1.17,1.11-1.46.6-.3,1.28-.3,1.88,0,.92.45,1.81.9,2.68,1.34,2.94,1.47,5.71,2.87,8.56,4,15.92,6.33,30.28,7.33,43.92,3.06,14.67-4.59,24.41-16.98,24.25-30.83-.16-13.71-10.24-26.11-23.98-29.49-9.23-2.27-19.27-2.8-28.26-1.51-6.92,1-13.76,3.55-20.39,6.01-2.33.87-4.75,1.77-7.16,2.6-.56.19-1.19.14-1.71-.16-.52-.29-.89-.8-1.02-1.38-2.47-11.51-.99-21.34,4.29-28.43,5.35-7.19,14.57-11.5,26.65-12.47,7.21-.57,14.59-.56,21.72-.54h.12c2.79,0,5.58.01,8.37-.01,5.18-.05,10.45-.04,15.55-.03h4.75c3.79-.31,4.04-9.5,4.03-12.31,0-2.06-.24-12.35-4.04-12.63-3.42-.25-6.85-.19-10.18-.13-1.72.03-3.44.06-5.15.05h-.44c-5.87-.04-11.61-.08-17.28-.08-8.06,0-14.74.08-21.02.25-21.59.58-37.66,8.87-47.75,24.64-10.26,16.03-11.61,36.71-3.62,55.31,3.7,8.62,3.69,12.85-.04,21.54-6.61,15.37-6.49,33.3.32,49.18,5.7,13.27,13.81,21.46,25.53,25.79,12.64,4.67,25.68,5.77,38.64,5.77,5.92,0,11.82-.23,17.66-.46,3.36-.13,6.83-.13,10.2-.13,4.31,0,8.77,0,13.18-.27,3.68-.3,4-9.7,4.01-12.57.01-2.9-.24-12.38-3.95-12.71Zm-62.51-65.81c.11-.52.47-1.01.98-1.34,12.17-7.9,25.27-7.75,34.19.39.1.09.33.32.6.58.37.37.38.97.02,1.34-.28.29-.52.54-.63.64-4.38,4.23-9.91,6.46-16,6.46-5.77,0-12.06-2.01-18.2-5.81-.77-.48-1.15-1.37-.95-2.28Zm230.87,58.75c-9.93,17.08-26.37,27.21-50.25,30.98-15.29,2.41-29.3,3.48-46.15,3.48-1.28,0-2.57,0-3.88-.02-4.86-.04-9.91-.29-14.79-.53-1.87-.09-3.74-.18-5.61-.26-3.15-.14-4.07-5.88-4.34-9.29-.39-5.04.11-15.71,4.19-16.53l.13-.03h.15c1.85.02,3.76.07,5.67.11,2.24.05,4.55.11,6.81.11,29.18,0,54.39,0,70.52-9.73,12.88-7.77,18.85-19.67,17.28-34.43-.94-8.81-5.8-19.29-13.27-22.29-5.26-2.11-11.74-.58-17.78,4.18-2.08,1.64-4.12,3.42-6.09,5.14-3.04,2.66-6.14,5.37-9.44,7.63-13.71,9.39-29.3,10.48-45.08,3.16-13.85-6.43-21.45-18.56-22.6-36.06-1.34-20.44,5-39.29,17.85-53.09,11.85-12.72,28.65-19.84,51.36-21.77,14.73-1.25,44.05-.93,50.23,0,4.63.38,4.43,11.24,4.34,13.41-.08,1.95-.66,11.67-4.48,11.68,0,0-6.03-.04-9.03-.07-9.18-.09-18.61-.18-27.85.22l-1.84.08c-8.65.36-17.59.74-25.51,3.63-16.61,6.06-26.63,19.84-27.5,37.8-.43,8.99,1.59,14.93,6.01,17.65,8.68,5.34,19.04.09,22-1.65,3.1-1.82,6.1-4.36,9.27-7.06,9.87-8.39,21.07-17.89,42.15-12.29,12.63,3.36,23.61,13.08,29.37,26,8.69,19.51,7.97,42.99-1.82,59.83Zm-302.31,5.95c3.4,3.18,2.07,22.67.97,25.24l-.06.14c-.42,1-1.21,2.85-4.07,2.85-1.36,0-5-.17-8.87-.34-2.79-.13-5.67-.26-7.84-.34-14.87-.52-30.25-1.06-45.09-3.47-16.13-2.62-26.81-16.28-27.21-34.8-.74-33.89-.6-68.36-.47-101.71l.02-4.13c.04-11.09.09-22.21.09-33.37,0-4.89,13.26-5.3,14.78-5.33,7.25-.15,15.07,1.17,15.23,5.3v104.32c0,43.56.82,44.39,43.89,44.4h15.64c1.13,0,2.19.43,2.99,1.22h0Zm-483.93-57.88c5.57,26.85,11.33,54.62.76,83.55l-.04.09c-1.61,3.3-2.65,3.68-5.46,3.96-.91.09-3.14.14-5.92.14-6.36,0-15.59-.24-18.54-.68-.93-.14-3.75-.56-3.91-3.45-.04-.8.16-1.64.6-2.49h0c13.12-25.29,7.77-48.97,1.58-76.4-6.38-28.25-13.62-60.28.57-99.01.84-2.29,2.95-3.85,5.38-3.99,2.52-.14,4.56-.22,6.41-.25,2.13-.03,4.56-.06,7.06-.08,4.26-.04,8.66-.08,12.25-.18.96-.03,2.3.47,2.99,1.47.51.74.6,1.64.24,2.53-16.71,33.32-10.23,64.56-3.97,94.78ZM53.99,303.42c-.59,1-1.76,1.52-2.89,1.27-14.96-3.33-27.6-10.32-36.62-20.29-8.96-9.9-13.93-22.32-13.98-34.99-.04-11.41,3.98-22.48,11.32-31.17,7.7-9.11,18.72-15.37,31.85-18.11,17.69-3.67,33.74,2.27,46.63,7.04,7.62,2.82,14.81,5.49,20.13,5.41,21.76-.32,31.58-13.68,33.5-26.07,1.14-7.35-.3-14.9-4.06-21.26-4.23-7.16-11.24-12.54-20.27-15.57-12.73-4.27-24.05-1.06-37.15,2.66-13.34,3.78-28.46,8.07-44.91,2.89-17.53-5.52-31.17-19.69-34.74-36.09-1.59-7.27-1.42-15.06.48-22.52,1.77-6.96,4.95-13.35,9.19-18.49,8.06-9.76,19.94-15.9,32.6-16.86,10.46-.79,19.49.93,26.81,3.27-11.01-6.85-17.19-18.24-17.5-32.46-.23-10.43,2.59-20.85,5.38-29.23.52-1.55,2.06-2.53,3.69-2.34,8.92,1.03,16.43,3.99,22.71,7.92,1.36.85,1.94,2.53,1.44,4.05-7.67,23.36-1.81,26.29.74,27.56,3.18,1.59,10.51-.77,17.59-3.06,7.01-2.26,14.96-4.82,23.55-5.38,11.04-.72,21.08,2.11,29.83,8.4.08.05.15.11.22.16,10.82,8.09,16.95,20.89,16.38,34.24-.58,13.63-8.15,25.95-20.77,33.81-12.08,7.52-26.89,9.09-44.02,4.67-12.78-3.3-24.54-9.21-33.99-13.96-2.5-1.26-4.86-2.44-6.85-3.38-8.51-3.95-15.6-5.46-23.01-4.9-4.64.35-9.17,2.68-12.11,6.24-2.7,3.27-4.98,9.66-3.6,15.98,1.08,4.97,6.18,11.55,14.81,14.27,8.04,2.53,16.86.03,28.02-3.14,14.78-4.19,33.18-9.41,54.55-2.25,15.84,5.31,28.38,15.17,36.27,28.51,7.22,12.22,9.99,26.7,7.8,40.77-2.15,13.82-9.01,26.42-19.31,35.48-11.27,9.9-26.09,15.27-42.86,15.51-.22,0-.45,0-.67,0-10.56,0-20.5-3.68-30.12-7.24-10.81-4-21.02-7.78-30.42-5.83-6.62,1.38-11.94,4.25-15.35,8.29-2.87,3.39-4.38,7.56-4.36,12.04.02,5.39,2.28,10.84,6.35,15.34,4.79,5.29,11.86,9.12,20.55,11.16,1.14.27,1.95,1.27,2.03,2.44.68,9.37-.58,17.93-4.9,25.18Zm29.73-234.11c2.1,1,4.33,2.13,6.68,3.31,14.59,7.34,36.65,18.43,49.21,10.61,4.35-2.71,6.74-6.19,6.91-10.06.15-3.53-1.56-7.09-4.48-9.32-6.63-4.69-13.36-3.23-27.04,1.18-7.17,2.31-15.44,4.98-24.03,4.98-2.4,0-4.82-.21-7.25-.69Z"/>
  </g>
</svg>