<?xml version="1.0" encoding="UTF-8"?><svg id="Layer_1" xmlns="http://www.w3.org/2000/svg" width="1200" height="471.704266513" viewBox="0 0 1200 471.704266513"><defs><style>.cls-1{fill:none;stroke:red;stroke-miterlimit:10;}</style></defs><path class="cls-1" d="M100.1769590403,106.9013309268s-3.1834058978,12.2769615419-4.5125318361,19.8086751924-.7089829691,29.6838126223,26.5825187663,26.354686684c0,0,52.1650413342-6.190403785,47.2915824719,27.5885879142-1.8797795795,10.2978124203-14.5392849937,25.1096705463-50.3928756714,5.8673706055-14.4929784766-7.7782513163-29.2407712995-17.2786151777-42.975072662-16.620363301-6.2486246567.2994814806-24.2597039205,3.3291259383-25.8103508485,24.179755613-1.5318112721,20.5973577791,17.6140749388,29.8776804419,29.7977297239,32.1849924536,8.4177965488,2.0492639818,25.4110794067.0230102539,38.8400115967,1.4585571289,16.5119628906,1.7651367188,33.7851104736,16.3587646484,32.4897460938,38.5108642578-.5907227007,14.9495188079-8.7933044434,29.4906616211-32.6500473022,29.4222412109-22.6964355702.1138982998-40.8949213458-8.2701346909-55.4815444946-.9997558594-15.0671708042,7.5098971536-17.952950729,21.5887418522-13.082462977,35.1477351534,5.5169871539,15.3587886205,30.8403700279,26.1916374245,30.8403700279,26.1916374245"/><path class="cls-1" d="M260.3501490454,169.1281201041c-34.4313798865,0-64.4907052509,24.6626967087-64.4907052509,66.7052714315,0,38.2619130765,28.6260910666,65.435154482,64.4907052509,65.435154482s65.6961074664-31.2952146748,65.6961074664-64.6775863952c0-37.5174301951-26.5389464659-67.4628395184-65.6961074664-67.4628395184Z"/><path class="cls-1" d="M229.3543786697,280.4578138984c4.9484234798-14.3372649161,15.4280126462-28.9821490239,37.0752780816-34.9450280525,47.3842916611-9.6998113154,85.3594213717,58.7094035629,134.9801332877,58.7094035629,31.2619028575,0,52.9476362076-17.14523491,52.9476362076-17.14523491"/><path class="cls-1" d="M369.8426818848,161.1443695846c-.5619467059,24.34253914-.2643953469,48.0298744076,1,61.8534545898,0,0,1.8560680252,34.2062942254,35.4474909538,34.2062942254s36.1078941428-28.7369809296,37.195972181-36.2738601433c1.5907233013-12.9958892404.7069881339-43.1227438421,0-59.7225341797"/><path class="cls-1" d="M504.0352162047,161.1443695846s-8.1562009084,20.7982033045-8.1562009084,43.5410249156c0,29.8314932821,13.6541499401,39.2830555102,13.6541499401,63.4993831321,0,26.2904580339-7.853733625,43.2030393785-7.853733625,43.2030393785"/><path class="cls-1" d="M646.7031948784,205.3156700563c0-13.0354509803-9.6414688012-35.4829112718-40.8099997235-35.4829112718-41.2625216232,0-52.8279998924,40.2366687064-52.8279998924,70.0006327512,0,28.6500480036,19.7945274448,62.6165997605,50.8279998924,62.6165997605s46.9365969036-20.0845697345,46.9365969036-59.7769026054h-51.5102588156"/><path class="cls-1" d="M791.0339039325,205.4403883137c0-13.0354509803-9.6414688012-35.4829112718-40.8099997235-35.4829112718-41.2625216232,0-52.8279998924,40.2366687064-52.8279998924,70.0006327512,0,28.6500480036,19.7945274448,62.6165997605,50.8279998924,62.6165997605s46.9365969036-20.0845697345,46.9365969036-59.7769026054h-51.5102588156"/><path class="cls-1" d="M846.8417712168,162.1630864306v98.1240764891c0,8.639318599-.0703687016,21.7090569925,2.2421436326,27.8726125039,2.3423723862,6.2431417195,11.6027471304,9.7325955583,23.2331023092,10.4505187175,16.1505399202.9969469087,39.4400601591,1.550646928,39.4400601591,1.550646928"/><path class="cls-1" d="M1021.2741459307,171.6049267022l-44.546912044.0000141714c-42.236658947,0-44.3653020024,43.4397858154-24.8013299207,65.6611524241,13.2822482148,15.0863897033,54.042110323,24.1286745705,57.8818074782-1,0-23.6059431676-44.0403182054-20.4358108625-57.8815584397-4.8506956595-22.0788066689,24.8605428166-17.1402167451,68.7455434309,28.6370937437,68.7455434309h40.7108991826"/><path class="cls-1" d="M1146.3176685802,171.6049267022h-43.7665027737s-40.7598621083,0-44.9413073868,40.4645007886c-2.4048498992,23.2721090821,10.552075038,33.5991634175,27.6964348074,30.4460960248,24.2196282093-4.4542998978,27.5544375546-30.1241519415,51.0299790578-18.0409206006,19.6209210598,10.0991974245,26.1732414055,72.3635233082-32.5958760423,74.7264138652-15.3905293859.6187967105-48.9723703579.9599242888-48.9723703579.9599242888"/></svg>