<?xml version="1.0" encoding="UTF-8"?>
<svg id="Layer_1" xmlns="http://www.w3.org/2000/svg" version="1.1" viewBox="0 0 4000 1129.58">
  <!-- Generator: Adobe Illustrator 29.7.0, SVG Export Plug-In . SVG Version: 2.1.1 Build 41)  -->
  <defs>
    <style>
      .st0 {
        fill: #231f20;
      }
    </style>
  </defs>
  <path class="st0" d="M1580.32,735.72c-3.7-11.32-16.11-34.75-24.79-44.94-3.88-4.56-9.16-5.93-14.11-3.66-5.5,2.51-10.9,5.4-16.11,8.19-2.87,1.54-5.74,3.07-8.64,4.55-75.13,38.39-142.3,37.22-211.39-3.71-26.12-15.47-85.86-56.64-103.32-73.14-1.62-1.54-2.28-3.91-1.67-6.06,6.54-22.93,11.13-75.07,7.05-99.03-16.19-95.06-74.58-164.22-160.2-189.75-96.8-28.87-203.06.23-258.4,70.76-29.7,37.84-47.2,89-49.27,144.04-2.07,55.03,11.5,107.87,38.22,148.78,51.77,79.26,156.3,114.93,260.12,88.77,51.34-12.94,93.2-41.74,127.96-88.05.99-1.32,2.45-2.15,4.1-2.36,1.71-.22,3.46.29,4.8,1.38,69.96,56.71,130.59,88.83,190.8,101.09,17.82,3.63,35.49,5.45,53.07,5.45,53.07,0,105.34-16.6,158.52-50.2,3.5-2.55,4.81-7.41,3.28-12.12ZM853.71,661.3c-.53,1.14-1.55,1.88-2.81,2.03-1.26.15-2.44-.33-3.23-1.31-47.03-58.61-50.52-150.77-7.94-209.81,20.86-28.94,53.09-49.88,90.75-58.99,13.68-3.31,27.64-4.95,41.53-4.95,24.37,0,48.5,5.05,70.51,14.98,63.99,28.86,100.38,99.49,88.5,171.75-.2,1.2-.95,2.18-2.07,2.69-1.1.5-2.32.43-3.34-.2-49.15-30.37-105.94-39.21-155.83-24.27-50.03,14.99-90.16,52.36-116.07,108.08ZM913.74,703.07c8.04-32.58,30.13-57.7,62.19-70.73,39.13-15.9,86.32-10.57,126.22,14.27.79.49,1.34,1.28,1.55,2.21.21.92.04,1.86-.46,2.63-27.81,42.67-75.97,66.5-127.78,66.49-19.62,0-39.78-3.42-59.54-10.53-1.7-.61-2.64-2.48-2.18-4.35ZM1573.86,362.89c.84,56.68,1.71,115.29-6.08,169.28-10.99,76.26-69.76,124.87-148.48,124.87-5.36,0-10.8-.22-16.33-.68h0c-76.3-6.3-126.94-62.17-132.15-145.79-3.2-51.23-4.05-103.99-2.62-161.3l.06-1.46c.21-4.95.35-8.23,2.45-11.26,6.12-8.87,34.65-10.78,37.88-10.97,13.48-.79,33.55-1.96,36.57,8.46.99,3.4,1.13,8.81,1.27,14.05l.07,2.5c.72,22.85.38,46.08.06,68.55-.32,21.92-.64,44.59,0,66.84.56,19.08,3.79,37.27,9.35,52.6,10.54,29.06,33.47,45.14,64.56,45.27h.42c32.06,0,55.03-15.61,64.72-44,6.84-20.05,10.89-42.57,11.69-65.13,1.23-34.16.97-70.95.73-106.53-.07-10.62-.15-21.19-.18-31.64-.02-6.6,7.68-11.11,22.89-13.42,10.83-1.65,24.96-.94,33.5.42,4.74.75,19.14,3.04,19.25,12.83.1,8.8.23,17.66.36,26.55ZM2205.92,549.59c9.85,102.72-17.58,151.72-42.59,182.93-31.01,38.71-78.93,60.52-131.14,60.52-7.12,0-14.31-.41-21.56-1.23-64.53-7.34-119.22-45.24-146.28-101.4-43.2-89.64-42.81-180.4,1.17-269.74,45.14-91.7,154.41-129.1,248.76-85.16,47.21,21.99,71.12,56.34,79.95,114.86.73,4.84-5.21,8.25-18.14,10.42-15.37,2.57-54.9,4.14-57.05-7.49-6.59-35.69-28.84-57.22-66.13-63.98-41.66-7.54-76.76,5.89-104.27,39.97-23.6,29.23-37.86,73.8-39.11,122.27-1.25,48.46,10.66,93.88,32.69,124.61,28.42,39.65,74.09,56.2,116.35,42.17,42.06-13.96,69.73-57.03,68.85-107.16-.01-.89-.78-1.62-1.71-1.62h-104.16c-3.18,0-7.57-1.99-10.44-11.48-1.77-5.83-2.74-13.71-2.74-22.2,0-16.18,3.45-35.08,13.19-35.08h174.67c5.04,0,9.21,3.77,9.69,8.77ZM2649.45,549.58c9.7,100.85-16.64,149.45-40.67,180.52-31.1,40.23-79.9,63-133.26,63.01-6.58,0-13.21-.34-19.9-1.05-65.12-6.83-120.35-44.84-147.75-101.68-43.21-89.63-42.8-180.38,1.2-269.73,45.16-91.7,154.44-129.09,248.78-85.11,48.53,22.62,74.67,60.23,79.92,114.99.63,6.6-7.44,11.02-23.35,12.77-17.91,1.98-50.55.28-51.85-10.11-6.37-35.55-28.64-57.08-66.16-63.86-41.69-7.52-76.76,5.93-104.25,40-23.6,29.24-37.85,73.81-39.1,122.28-1.24,48.45,10.68,93.87,32.71,124.6,28.42,39.64,74.09,56.18,116.36,42.13,42.15-14.01,69.8-57.13,68.79-107.31-.02-.82-.72-1.48-1.56-1.48h-104.29c-3.96,0-6.87-3.81-8.66-11.32-1.33-5.58-2.07-13.23-2.07-21.54,0-5.99.52-35.88,10.73-35.88h174.69c5.04,0,9.2,3.77,9.68,8.77ZM3300.75,717.75h-.24c-11.53.03-22.99.17-34.37.3-31.28.37-60.82.72-91.07-.73-29.2-1.4-51.85-11.31-65.5-28.65-14.33-18.21-18.72-44.47-12.7-75.95.3-1.59,1.32-2.92,2.79-3.66,1.5-.74,3.21-.74,4.7,0,2.3,1.13,4.53,2.25,6.71,3.35,7.36,3.69,14.3,7.18,21.43,10.01,39.85,15.85,75.82,18.36,109.97,7.65,36.73-11.5,61.13-42.53,60.72-77.2-.4-34.33-25.65-65.38-60.04-73.83-23.12-5.68-48.25-7.02-70.77-3.77-17.33,2.5-34.46,8.88-51.06,15.06-5.85,2.18-11.9,4.43-17.93,6.51-1.41.48-2.97.34-4.28-.41-1.31-.74-2.24-1.99-2.55-3.45-6.19-28.82-2.47-53.44,10.74-71.19,13.4-18,36.47-28.79,66.74-31.21,18.06-1.44,36.52-1.39,54.39-1.35h.29c6.98.02,13.98.03,20.95-.03,12.98-.12,26.17-.09,38.94-.07l11.9.02c9.48-.78,10.12-23.8,10.1-30.84-.02-5.16-.61-30.93-10.12-31.63-8.55-.64-17.16-.48-25.48-.33-4.31.08-8.61.16-12.89.12h-1.11c-14.71-.11-29.06-.21-43.27-.21-20.17,0-36.9.2-52.63.62-54.06,1.45-94.29,22.21-119.56,61.69-25.68,40.14-29.07,91.91-9.08,138.49,9.27,21.59,9.25,32.18-.11,53.94-16.55,38.49-16.26,83.38.81,123.16,14.27,33.23,34.58,53.75,63.92,64.58,31.64,11.69,64.3,14.46,96.76,14.46,14.82,0,29.6-.58,44.22-1.15,8.41-.33,17.1-.33,25.53-.32,10.79.01,21.95,0,33.01-.67,9.21-.75,10.01-24.28,10.04-31.48.03-7.26-.6-31-9.89-31.82ZM3144.23,552.95c.28-1.3,1.17-2.52,2.45-3.35,30.48-19.78,63.28-19.4,85.61.99.25.23.83.79,1.49,1.45.93.91.95,2.43.05,3.37-.69.72-1.3,1.35-1.57,1.61-10.97,10.59-24.82,16.19-40.07,16.19-14.44,0-30.19-5.03-45.57-14.55-1.93-1.2-2.87-3.43-2.39-5.7ZM3098.06,612.95h0,0ZM3722.32,700.06c-24.87,42.77-66.03,68.14-125.84,77.58-38.3,6.04-73.37,8.71-115.56,8.71-3.2,0-6.44-.02-9.72-.05-12.16-.11-24.81-.73-37.03-1.32-4.69-.23-9.37-.45-14.05-.66-7.9-.34-10.2-14.71-10.86-23.25-.99-12.62.28-39.34,10.5-41.4l.34-.07.36.03c4.64.03,9.42.14,14.19.25,5.6.13,11.4.27,17.06.27,73.08,0,136.19,0,176.58-24.36,32.25-19.45,47.21-49.26,43.26-86.21-2.36-22.06-14.53-48.31-33.23-55.8-13.17-5.28-29.4-1.46-44.53,10.46-5.22,4.11-10.31,8.57-15.24,12.87-7.61,6.66-15.36,13.43-23.64,19.1-34.33,23.51-73.37,26.25-112.88,7.91-34.68-16.09-53.72-46.47-56.6-90.28-3.36-51.18,12.52-98.39,44.69-132.93,29.66-31.84,71.73-49.68,128.6-54.52,36.88-3.14,110.31-2.33,125.78-.02,11.59.94,11.1,28.14,10.88,33.58-.19,4.88-1.65,29.23-11.22,29.25,0,0-15.1-.1-22.62-.18-22.98-.22-46.6-.45-69.75.56l-4.6.2c-21.66.91-44.05,1.85-63.88,9.08-41.59,15.18-66.69,49.67-68.86,94.65-1.08,22.52,3.98,37.39,15.05,44.19,21.74,13.37,47.66.23,55.1-4.12,7.77-4.55,15.28-10.93,23.22-17.67,24.72-21,52.75-44.8,105.54-30.78,31.63,8.4,59.12,32.74,73.53,65.11,21.76,48.85,19.97,107.66-4.56,149.83ZM2965.32,714.97c8.5,7.97,5.18,56.77,2.42,63.21l-.15.35c-1.05,2.5-3.02,7.15-10.19,7.15-3.4,0-12.53-.42-22.2-.86-6.98-.32-14.21-.65-19.64-.84-37.24-1.31-75.75-2.66-112.91-8.69-40.39-6.55-67.14-40.76-68.14-87.14-1.84-84.85-1.5-171.18-1.17-254.68l.04-10.34c.11-27.77.22-55.62.22-83.56,0-12.24,33.21-13.26,37-13.34,18.15-.38,37.72,2.93,38.14,13.26v261.21c0,109.08,2.06,111.16,109.9,111.18h39.17c2.82,0,5.48,1.09,7.49,3.06l.02.02ZM1753.55,570.03c13.94,67.24,28.36,136.77,1.9,209.21l-.1.24c-4.03,8.27-6.64,9.2-13.67,9.92-2.29.23-7.87.35-14.83.35-15.92,0-39.04-.59-46.44-1.69-2.33-.35-9.4-1.4-9.8-8.63-.11-2.01.39-4.11,1.5-6.23h0c32.86-63.33,19.47-122.63,3.95-191.3-15.98-70.75-34.1-150.94,1.44-247.91,2.1-5.73,7.39-9.65,13.47-9.98,6.31-.35,11.41-.55,16.06-.62,5.33-.09,11.41-.14,17.69-.21,10.66-.11,21.68-.21,30.67-.46,2.4-.06,5.76,1.18,7.5,3.68,1.29,1.86,1.5,4.11.59,6.32-41.84,83.43-25.62,161.66-9.93,237.32ZM391.9,942.38c-1.49,2.5-4.41,3.82-7.24,3.18-37.47-8.34-69.1-25.85-91.69-50.8-22.44-24.78-34.87-55.9-35-87.62-.11-28.58,9.96-56.3,28.35-78.05,19.29-22.81,46.87-38.49,79.75-45.34,44.3-9.19,84.48,5.68,116.77,17.63,19.08,7.06,37.09,13.74,50.41,13.54,54.49-.8,79.07-34.25,83.89-65.28,2.86-18.4-.75-37.31-10.16-53.25-10.58-17.92-28.13-31.4-50.75-38.98-31.87-10.68-60.21-2.65-93.03,6.66-33.41,9.47-71.27,20.21-112.44,7.25-43.89-13.82-78.04-49.29-87-90.37-3.97-18.21-3.56-37.71,1.2-56.39,4.43-17.43,12.39-33.43,23.01-46.29,20.18-24.43,49.93-39.82,81.63-42.21,26.2-1.98,48.81,2.32,67.12,8.19-27.57-17.15-43.04-45.67-43.81-81.28-.57-26.11,6.48-52.21,13.48-73.19,1.3-3.89,5.16-6.34,9.24-5.87,22.33,2.57,41.13,10,56.87,19.83,3.4,2.12,4.86,6.34,3.61,10.15-19.22,58.48-4.53,65.82,1.86,69.02,7.96,3.98,26.31-1.94,44.05-7.66,17.55-5.66,37.45-12.08,58.97-13.47,27.64-1.79,52.78,5.28,74.7,21.03.19.14.38.27.56.41,27.1,20.25,42.44,52.31,41.02,85.74-1.45,34.13-20.4,64.99-52,84.66-30.24,18.83-67.33,22.76-110.22,11.69-32.01-8.26-61.45-23.07-85.11-34.96-6.26-3.15-12.18-6.12-17.16-8.46-21.3-9.89-39.07-13.68-57.62-12.28-11.63.88-22.96,6.72-30.32,15.63-6.76,8.19-12.47,24.2-9.02,40.01,2.71,12.44,15.48,28.93,37.09,35.74,20.13,6.34,42.21.08,70.17-7.85,37.02-10.5,83.09-23.57,136.59-5.64,39.67,13.3,71.07,37.98,90.81,71.39,18.08,30.6,25.02,66.86,19.54,102.09-5.38,34.61-22.56,66.16-48.36,88.83-28.21,24.79-65.32,38.23-107.32,38.85-.56,0-1.11.01-1.67.01-26.45,0-51.34-9.21-75.43-18.12-27.07-10.01-52.63-19.47-76.17-14.59-16.58,3.46-29.89,10.64-38.45,20.76-7.19,8.5-10.96,18.92-10.92,30.15.05,13.49,5.7,27.13,15.91,38.4,11.99,13.24,29.71,22.85,51.45,27.95,2.85.67,4.88,3.18,5.09,6.11,1.7,23.47-1.46,44.89-12.27,63.06ZM466.34,356.18c5.25,2.51,10.85,5.32,16.73,8.28,36.54,18.37,91.77,46.14,123.22,26.56,10.9-6.79,16.89-15.5,17.3-25.18.37-8.84-3.92-17.75-11.22-23.34-16.61-11.74-33.46-8.1-67.71,2.95-17.96,5.79-38.67,12.47-60.16,12.47-6,0-12.07-.52-18.15-1.73Z"/>
</svg>