<?xml version="1.0" encoding="UTF-8" standalone="no"?>
<!DOCTYPE svg PUBLIC "-//W3C//DTD SVG 1.1//EN" "http://www.w3.org/Graphics/SVG/1.1/DTD/svg11.dtd">
<svg width="100%" height="100%" viewBox="0 0 349 345" version="1.1" xmlns="http://www.w3.org/2000/svg" xmlns:xlink="http://www.w3.org/1999/xlink" xml:space="preserve" xmlns:serif="http://www.serif.com/" style="fill-rule:evenodd;clip-rule:evenodd;stroke-linejoin:round;stroke-miterlimit:2;">
    <g transform="matrix(1,0,0,1,-104.354,-150.358)">
        <g>
            <g>
                <g>
                    <path d="M432.571,355.771C434.037,355.566 434.666,355.571 435.974,354.732C438.159,353.332 440.59,351.232 442.383,354.495C442.93,355.495 442.891,356.661 443.343,357.761L439.688,359.45C436.019,357.895 436.727,355.629 432.571,355.771Z" style="fill:white;fill-rule:nonzero;"/>
                    <path d="M126.577,401.768C125.326,400.766 119.988,400.753 122.431,395.579C122.936,394.511 126.275,394.021 127.596,393.724C127.942,396.329 128.237,398.426 126.931,400.858C126.818,401.068 126.621,401.508 126.577,401.768Z" style="fill:white;fill-rule:nonzero;"/>
                    <path d="M436.187,273.482C437.969,273.179 439.669,274.339 440.038,276.108C440.406,277.876 439.309,279.618 437.553,280.05C436.361,280.345 435.103,279.963 434.271,279.055C433.442,278.15 433.177,276.863 433.574,275.7C433.974,274.537 434.977,273.687 436.187,273.482Z" style="fill:white;fill-rule:nonzero;"/>
                    <path d="M162.839,193.32C164.569,192.718 166.463,193.615 167.092,195.336C167.721,197.057 166.852,198.964 165.141,199.619C164.01,200.052 162.735,199.842 161.803,199.069C160.87,198.297 160.427,197.083 160.641,195.892C160.856,194.701 161.696,193.718 162.839,193.32Z" style="fill:white;fill-rule:nonzero;"/>
                    <path d="M360.414,464.074C362.122,463.574 363.925,464.495 364.517,466.174C365.112,467.85 364.288,469.7 362.646,470.384C361.501,470.861 360.185,470.666 359.227,469.876C358.269,469.089 357.824,467.834 358.074,466.618C358.322,465.403 359.225,464.424 360.414,464.074Z" style="fill:white;fill-rule:nonzero;"/>
                    <path d="M106.379,317.279C108.066,316.55 110.026,317.318 110.77,318.997C111.515,320.679 110.766,322.645 109.092,323.405C107.396,324.176 105.397,323.416 104.642,321.713C103.888,320.008 104.668,318.016 106.379,317.279Z" style="fill:white;fill-rule:nonzero;"/>
                    <path d="M209.554,475.089C211.282,474.55 213.126,475.482 213.716,477.192C214.307,478.903 213.431,480.774 211.738,481.416C210.597,481.847 209.312,481.624 208.384,480.834C207.455,480.045 207.029,478.811 207.273,477.616C207.516,476.421 208.391,475.453 209.554,475.089Z" style="fill:white;fill-rule:nonzero;"/>
                    <path d="M126.042,240.371C127.174,239.94 128.45,240.154 129.38,240.931C130.309,241.708 130.747,242.926 130.524,244.116C130.3,245.306 129.451,246.283 128.304,246.671C126.576,247.253 124.699,246.346 124.083,244.63C123.467,242.914 124.338,241.02 126.042,240.371Z" style="fill:white;fill-rule:nonzero;"/>
                    <path d="M441.183,333.058C442.864,332.379 444.783,333.163 445.507,334.826C446.23,336.489 445.499,338.426 443.854,339.192C442.751,339.708 441.456,339.584 440.472,338.868C439.488,338.155 438.969,336.963 439.117,335.755C439.264,334.547 440.056,333.516 441.183,333.058Z" style="fill:white;fill-rule:nonzero;"/>
                    <path d="M160.076,442.421C161.821,442.166 163.463,443.311 163.83,445.034C164.196,446.761 163.163,448.474 161.466,448.953C160.265,449.289 158.975,448.934 158.12,448.024C157.264,447.116 156.986,445.808 157.397,444.629C157.808,443.45 158.841,442.6 160.076,442.421Z" style="fill:white;fill-rule:nonzero;"/>
                    <path d="M330.817,160.698C332.493,159.959 334.454,160.709 335.212,162.378C335.967,164.048 335.241,166.016 333.577,166.791C332.488,167.3 331.206,167.184 330.224,166.486C329.245,165.789 328.714,164.618 328.835,163.42C328.958,162.223 329.714,161.183 330.817,160.698Z" style="fill:white;fill-rule:nonzero;"/>
                    <path d="M397.139,204.372C398.868,203.8 400.736,204.717 401.342,206.434C401.95,208.151 401.071,210.038 399.365,210.679C398.234,211.106 396.957,210.886 396.031,210.105C395.104,209.324 394.673,208.103 394.904,206.914C395.133,205.725 395.989,204.752 397.139,204.372Z" style="fill:white;fill-rule:nonzero;"/>
                    <path d="M366.315,178.618C367.407,178.07 368.71,178.161 369.715,178.856C370.72,179.55 371.268,180.737 371.142,181.952C371.015,183.167 370.236,184.217 369.11,184.69C367.446,185.388 365.53,184.643 364.775,183.005C364.022,181.367 364.701,179.427 366.315,178.618Z" style="fill:white;fill-rule:nonzero;"/>
                    <path d="M348.897,168.614C349.974,168.032 351.282,168.084 352.308,168.75C353.335,169.416 353.916,170.589 353.821,171.809C353.729,173.029 352.977,174.101 351.861,174.604C350.221,175.342 348.289,174.651 347.492,173.038C346.694,171.426 347.315,169.471 348.897,168.614Z" style="fill:white;fill-rule:nonzero;"/>
                    <path d="M136.194,223.343C137.89,222.621 139.85,223.407 140.577,225.099C141.304,226.793 140.524,228.755 138.833,229.487C137.135,230.222 135.162,229.438 134.432,227.738C133.701,226.038 134.492,224.068 136.194,223.343Z" style="fill:white;fill-rule:nonzero;"/>
                    <path d="M107.964,297.276C109.706,296.632 111.64,297.529 112.271,299.276C112.902,301.024 111.989,302.95 110.237,303.566C108.505,304.176 106.605,303.276 105.98,301.55C105.356,299.821 106.242,297.916 107.964,297.276Z" style="fill:white;fill-rule:nonzero;"/>
                    <path d="M191.273,466.471C192.951,465.679 194.951,466.405 195.731,468.087C196.511,469.771 195.773,471.766 194.086,472.534C192.413,473.297 190.439,472.568 189.665,470.9C188.892,469.232 189.61,467.253 191.273,466.471Z" style="fill:white;fill-rule:nonzero;"/>
                    <path d="M174.836,455.379C176.574,454.818 178.441,455.755 179.028,457.484C179.616,459.213 178.707,461.095 176.987,461.708C175.85,462.113 174.583,461.876 173.672,461.084C172.761,460.295 172.346,459.074 172.587,457.892C172.828,456.711 173.687,455.75 174.836,455.379Z" style="fill:white;fill-rule:nonzero;"/>
                    <path d="M417.322,408.239C419.162,408.026 420.823,409.345 421.031,411.184C421.239,413.024 419.912,414.679 418.072,414.882C416.241,415.082 414.593,413.763 414.388,411.934C414.18,410.103 415.493,408.45 417.322,408.239Z" style="fill:white;fill-rule:nonzero;"/>
                    <path d="M107.279,337.255C108.407,336.784 109.704,336.966 110.658,337.732C111.612,338.497 112.073,339.724 111.858,340.926C111.643,342.132 110.787,343.121 109.627,343.511C107.921,344.079 106.07,343.197 105.438,341.516C104.806,339.832 105.619,337.95 107.279,337.255Z" style="fill:white;fill-rule:nonzero;"/>
                    <path d="M115.915,376.224C117.575,375.429 119.566,376.124 120.368,377.779C121.171,379.434 120.483,381.429 118.83,382.237C117.168,383.053 115.161,382.358 114.354,380.695C113.546,379.029 114.247,377.024 115.915,376.224Z" style="fill:white;fill-rule:nonzero;"/>
                    <path d="M304.961,485.345C306.733,484.984 308.472,486.097 308.883,487.858C309.296,489.618 308.23,491.389 306.48,491.85C305.306,492.161 304.053,491.805 303.214,490.926C302.374,490.047 302.077,488.782 302.44,487.621C302.803,486.461 303.769,485.589 304.961,485.345Z" style="fill:white;fill-rule:nonzero;"/>
                    <path d="M178.51,180.874C180.247,180.293 182.129,181.22 182.727,182.952C183.325,184.684 182.416,186.574 180.69,187.189C178.94,187.813 177.017,186.889 176.41,185.133C175.804,183.376 176.747,181.463 178.51,180.874Z" style="fill:white;fill-rule:nonzero;"/>
                    <path d="M441.864,313.021C443.63,312.463 445.515,313.445 446.065,315.213C446.615,316.982 445.622,318.861 443.851,319.4C442.093,319.939 440.23,318.955 439.685,317.2C439.138,315.445 440.111,313.576 441.864,313.021Z" style="fill:white;fill-rule:nonzero;"/>
                    <path d="M440.582,292.971C441.783,292.826 442.967,293.342 443.68,294.318C444.393,295.295 444.525,296.579 444.022,297.676C443.52,298.776 442.462,299.518 441.259,299.618C439.443,299.768 437.843,298.437 437.659,296.626C437.474,294.813 438.774,293.189 440.582,292.971Z" style="fill:white;fill-rule:nonzero;"/>
                    <path d="M196.005,170.332C197.763,170.001 199.469,171.112 199.877,172.853C200.284,174.594 199.248,176.348 197.526,176.83C196.343,177.162 195.074,176.818 194.221,175.934C193.368,175.051 193.069,173.771 193.441,172.601C193.814,171.431 194.798,170.56 196.005,170.332Z" style="fill:white;fill-rule:nonzero;"/>
                    <path d="M342.283,473.611C343.362,473.079 344.642,473.168 345.636,473.845C346.631,474.518 347.187,475.676 347.089,476.876C346.992,478.074 346.257,479.126 345.168,479.634C343.507,480.405 341.536,479.697 340.746,478.047C339.957,476.397 340.641,474.418 342.283,473.611Z" style="fill:white;fill-rule:nonzero;"/>
                    <path d="M148.541,207.549C150.235,206.813 152.205,207.592 152.938,209.288C153.671,210.983 152.888,212.952 151.19,213.681C149.498,214.407 147.537,213.627 146.806,211.937C146.076,210.246 146.852,208.283 148.541,207.549Z" style="fill:white;fill-rule:nonzero;"/>
                    <path d="M264.481,488.037C265.592,487.558 266.873,487.713 267.834,488.447C268.795,489.182 269.282,490.379 269.11,491.574C268.939,492.771 268.134,493.782 267.005,494.216C265.31,494.868 263.402,494.045 262.715,492.363C262.028,490.679 262.813,488.758 264.481,488.037Z" style="fill:white;fill-rule:nonzero;"/>
                    <path d="M271.811,150.705C272.898,150.167 274.187,150.261 275.185,150.948C276.182,151.636 276.73,152.809 276.614,154.015C276.498,155.221 275.737,156.269 274.627,156.754C272.966,157.479 271.032,156.746 270.266,155.104C269.503,153.461 270.187,151.509 271.811,150.705Z" style="fill:white;fill-rule:nonzero;"/>
                    <path d="M409.966,219.816C411.138,219.512 412.382,219.866 413.219,220.742C414.054,221.617 414.351,222.877 413.993,224.033C413.632,225.189 412.677,226.061 411.493,226.311C409.719,226.685 407.969,225.574 407.556,223.809C407.14,222.044 408.211,220.271 409.966,219.816Z" style="fill:white;fill-rule:nonzero;"/>
                    <path d="M292.544,151.436C294.329,151.022 296.113,152.122 296.542,153.902C296.974,155.681 295.889,157.475 294.113,157.922C292.315,158.374 290.492,157.273 290.057,155.471C289.62,153.668 290.739,151.856 292.544,151.436Z" style="fill:white;fill-rule:nonzero;"/>
                    <path d="M323.737,480.697C324.85,480.224 326.132,480.387 327.09,481.129C328.045,481.868 328.527,483.071 328.345,484.266C328.164,485.463 327.348,486.466 326.213,486.892C324.516,487.526 322.621,486.689 321.947,485.005C321.273,483.321 322.068,481.408 323.737,480.697Z" style="fill:white;fill-rule:nonzero;"/>
                    <path d="M391.954,439.616C393.678,439.084 395.512,440.018 396.094,441.724C396.678,443.432 395.799,445.292 394.11,445.924C392.973,446.353 391.691,446.126 390.77,445.334C389.846,444.545 389.425,443.316 389.672,442.124C389.92,440.934 390.793,439.974 391.954,439.616Z" style="fill:white;fill-rule:nonzero;"/>
                    <path d="M420.973,236.636C422.157,236.428 423.36,236.874 424.126,237.804C424.889,238.733 425.092,240.002 424.657,241.123C424.223,242.245 423.218,243.046 422.028,243.218C420.223,243.481 418.544,242.246 418.254,240.447C417.967,238.648 419.178,236.95 420.973,236.636Z" style="fill:white;fill-rule:nonzero;"/>
                    <path d="M117.893,258.588C119.631,257.982 121.53,258.898 122.137,260.635C122.745,262.371 121.831,264.271 120.096,264.882C118.357,265.492 116.452,264.576 115.843,262.837C115.235,261.097 116.153,259.194 117.893,258.588Z" style="fill:white;fill-rule:nonzero;"/>
                    <path d="M145.631,428.058C147.351,427.374 149.298,428.221 149.97,429.945C150.641,431.668 149.78,433.611 148.051,434.268C146.34,434.921 144.422,434.071 143.757,432.363C143.092,430.658 143.929,428.734 145.631,428.058Z" style="fill:white;fill-rule:nonzero;"/>
                    <path d="M284.272,488.074C285.359,487.518 286.662,487.603 287.67,488.289C288.676,488.979 289.226,490.161 289.105,491.374C288.981,492.589 288.207,493.637 287.083,494.111C285.431,494.808 283.522,494.074 282.767,492.447C282.009,490.821 282.675,488.887 284.272,488.074Z" style="fill:white;fill-rule:nonzero;"/>
                    <path d="M252.523,151.945C253.687,151.641 254.924,151.988 255.76,152.852C256.596,153.717 256.902,154.964 256.56,156.117C256.217,157.27 255.28,158.149 254.108,158.417C252.333,158.823 250.562,157.729 250.129,155.961C249.695,154.193 250.762,152.405 252.523,151.945Z" style="fill:white;fill-rule:nonzero;"/>
                    <path d="M404.971,424.855C406.098,424.4 407.382,424.589 408.324,425.355C409.266,426.121 409.719,427.337 409.503,428.532C409.29,429.726 408.443,430.708 407.292,431.097C405.584,431.676 403.729,430.792 403.103,429.103C402.474,427.413 403.303,425.532 404.971,424.855Z" style="fill:white;fill-rule:nonzero;"/>
                    <path d="M110.773,356.937C111.933,356.558 113.206,356.847 114.092,357.684C114.977,358.524 115.334,359.779 115.021,360.958C114.709,362.137 113.777,363.05 112.592,363.339C110.852,363.763 109.088,362.737 108.598,361.013C108.109,359.289 109.07,357.489 110.773,356.937Z" style="fill:white;fill-rule:nonzero;"/>
                    <path d="M232.835,155.873C233.982,155.518 235.231,155.809 236.104,156.633C236.977,157.458 237.339,158.689 237.05,159.854C236.761,161.02 235.868,161.94 234.711,162.262C232.956,162.75 231.135,161.739 230.623,159.992C230.11,158.245 231.095,156.41 232.835,155.873Z" style="fill:white;fill-rule:nonzero;"/>
                    <path d="M213.087,162.339C214.671,161.429 216.692,161.965 217.617,163.54C218.542,165.114 218.024,167.14 216.458,168.079C214.871,169.031 212.813,168.506 211.876,166.91C210.939,165.315 211.483,163.261 213.087,162.339Z" style="fill:white;fill-rule:nonzero;"/>
                    <path d="M312.091,154.838C313.828,154.354 315.633,155.338 316.165,157.06C316.699,158.781 315.765,160.614 314.06,161.195C312.915,161.586 311.644,161.323 310.749,160.509C309.851,159.694 309.467,158.456 309.746,157.277C310.025,156.098 310.925,155.164 312.091,154.838Z" style="fill:white;fill-rule:nonzero;"/>
                    <path d="M425.647,390.979C427.255,390.145 429.234,390.747 430.103,392.337C430.971,393.926 430.408,395.918 428.837,396.821C427.792,397.421 426.502,397.408 425.468,396.787C424.434,396.168 423.815,395.037 423.855,393.832C423.891,392.626 424.576,391.534 425.647,390.979Z" style="fill:white;fill-rule:nonzero;"/>
                    <path d="M382.435,190.67C384.114,189.903 386.098,190.648 386.856,192.332C387.612,194.015 386.856,195.993 385.167,196.741C383.493,197.483 381.535,196.733 380.785,195.063C380.032,193.394 380.771,191.431 382.435,190.67Z" style="fill:white;fill-rule:nonzero;"/>
                    <path d="M433.269,372.25C434.982,371.579 436.914,372.421 437.585,374.132C438.256,375.842 437.411,377.774 435.7,378.445C433.99,379.116 432.061,378.274 431.389,376.563C430.718,374.853 431.561,372.921 433.269,372.25Z" style="fill:white;fill-rule:nonzero;"/>
                    <path d="M428.647,254.948C429.713,254.376 431.005,254.426 432.021,255.081C433.037,255.736 433.619,256.891 433.537,258.098C433.458,259.304 432.726,260.372 431.632,260.884C430.003,261.648 428.06,260.976 427.252,259.368C426.444,257.76 427.063,255.801 428.647,254.948Z" style="fill:white;fill-rule:nonzero;"/>
                    <path d="M244.677,485.689C245.802,485.211 247.101,485.387 248.057,486.15C249.013,486.916 249.472,488.142 249.251,489.347C249.03,490.55 248.166,491.537 247.001,491.911C245.31,492.455 243.489,491.574 242.867,489.911C242.245,488.247 243.042,486.387 244.677,485.689Z" style="fill:white;fill-rule:nonzero;"/>
                    <path d="M134.18,411.871C134.847,411.847 135.844,411.834 136.469,412.121C137.224,412.474 137.818,413.1 138.131,413.871C139.016,416.005 137.671,417.608 135.779,418.426C130.878,418.432 130.461,412.929 134.18,411.871Z" style="fill:white;fill-rule:nonzero;"/>
                    <path d="M111.511,277.792C113.172,277.008 115.154,277.721 115.936,279.384C116.718,281.045 116.002,283.026 114.338,283.805C112.679,284.582 110.703,283.868 109.923,282.211C109.144,280.553 109.854,278.576 111.511,277.792Z" style="fill:white;fill-rule:nonzero;"/>
                    <path d="M227.816,482.013C228.893,481.418 230.21,481.468 231.239,482.142C232.267,482.816 232.84,484.003 232.726,485.226C232.612,486.45 231.831,487.513 230.696,487.984C229.068,488.663 227.194,487.95 226.428,486.361C225.662,484.774 226.272,482.863 227.816,482.013Z" style="fill:white;fill-rule:nonzero;"/>
                    <path d="M377.392,452.695C379.166,452.426 380.829,453.616 381.153,455.379C381.477,457.139 380.342,458.842 378.592,459.221C377.408,459.479 376.176,459.071 375.381,458.155C374.587,457.242 374.352,455.968 374.771,454.829C375.189,453.692 376.195,452.874 377.392,452.695Z" style="fill:white;fill-rule:nonzero;"/>
                </g>
                <g transform="matrix(0.620719,0,0,0.620719,-1015.39,158.966)">
                    <g transform="matrix(1,0,0,1,4.8331,0)">
                        <path d="M1855.45,190.621C1855.45,190.621 1866.2,202.525 1885.4,202.525C1903.32,202.525 1914.07,191.005 1914.07,177.053C1914.07,147.741 1870.3,152.733 1870.3,134.045C1870.3,126.877 1877.08,120.861 1886.68,120.861C1898.2,120.861 1906.52,128.669 1906.52,128.669L1912.28,118.173C1912.28,118.173 1903.45,109.085 1886.68,109.085C1869.66,109.085 1857.5,120.221 1857.5,134.301C1857.5,162.077 1901.27,157.853 1901.27,177.437C1901.27,186.013 1894.11,190.749 1885.66,190.749C1872.22,190.749 1862.62,181.021 1862.62,181.021L1855.45,190.621Z" style="fill:white;fill-rule:nonzero;"/>
                    </g>
                    <g transform="matrix(1,0,0,1,3.22207,0)">
                        <path d="M1926.11,155.165C1926.11,181.789 1946.46,202.525 1972.57,202.525C1998.68,202.525 2018.91,181.789 2018.91,155.165C2018.91,129.181 1998.68,109.085 1972.57,109.085C1946.46,109.085 1926.11,129.181 1926.11,155.165ZM1939.16,155.165C1939.16,135.453 1954.14,120.605 1972.57,120.605C1991,120.605 2005.85,135.453 2005.85,155.165C2005.85,175.517 1991,190.877 1972.57,190.877C1954.14,190.877 1939.16,175.517 1939.16,155.165Z" style="fill:white;fill-rule:nonzero;"/>
                    </g>
                    <g transform="matrix(1,0,0,1,3.22207,0)">
                        <path d="M2036.06,168.989C2036.06,189.085 2050.52,202.525 2071.64,202.525C2092.76,202.525 2107.23,189.085 2107.23,168.989L2107.23,110.621L2094.55,110.621L2094.55,168.733C2094.55,182.813 2085.47,190.877 2071.51,190.877C2057.69,190.877 2048.73,182.813 2048.73,168.989L2048.73,110.621L2036.06,110.621L2036.06,168.989Z" style="fill:white;fill-rule:nonzero;"/>
                    </g>
                    <g transform="matrix(1,0,0,1,-1.61103,0)">
                        <path d="M2130.52,200.989L2143.19,200.989L2143.19,142.365C2143.19,137.245 2142.3,129.181 2142.3,129.181L2142.55,129.181C2142.55,129.181 2146.78,137.373 2150.11,142.365L2190.43,200.989L2202.84,200.989L2202.84,110.621L2190.17,110.621L2190.17,169.373C2190.17,174.365 2191.07,182.429 2191.07,182.429L2190.81,182.429C2190.81,182.429 2186.59,174.237 2183.26,169.373L2143.07,110.621L2130.52,110.621L2130.52,200.989Z" style="fill:white;fill-rule:nonzero;"/>
                    </g>
                    <g transform="matrix(1,0,0,1,-6.44414,0)">
                        <path d="M2227.42,200.989L2257.37,200.989C2285.02,200.989 2303.19,184.349 2303.19,155.677C2303.19,127.133 2285.02,110.621 2257.37,110.621L2227.42,110.621L2227.42,200.989ZM2240.09,189.981L2240.09,121.629L2256.47,121.629C2276.7,121.629 2290.14,133.533 2290.14,155.677C2290.14,177.949 2276.83,189.981 2256.47,189.981L2240.09,189.981Z" style="fill:white;fill-rule:nonzero;"/>
                    </g>
                </g>
            </g>
            <g transform="matrix(0.86494,0,0,0.86494,34.6648,54.568)">
                <g transform="matrix(0.915592,0.00392141,-0.00428288,0.999991,112.457,157.503)">
                    <path d="M137.729,265.059C136.802,263.494 135.866,261.836 135.547,261.024C134.496,258.443 134.054,255.008 133.755,251.126C132.555,235.57 134.632,213.802 131.31,203.146C130.199,199.634 128.587,194.322 125.569,191.135C123.568,189.022 121.217,187.566 118.453,187.394C117.101,187.309 114.481,187.224 112.443,187.566C110.854,187.833 109.53,188.206 108.843,188.802C108.421,189.167 107.836,189.704 107.55,190.563C107.193,191.637 107.004,193.329 106.826,194.105C106.481,195.36 106.197,196.648 105.776,197.916C105.167,199.75 104.354,201.524 103.454,203.173C100.767,208.092 98.84,212.747 95.887,216.403C93.944,218.806 91.538,220.755 88.073,221.992C82.274,224.063 78.644,224.422 75.184,223.3C71.7,222.17 68.415,219.682 63.476,216.307C60.166,214.044 55.976,200.799 52.083,192.91C50.635,189.976 49.186,187.717 47.922,186.707C47.192,186.124 45.401,185.079 43.836,184.819C42.737,184.635 41.726,184.804 40.958,185.331C38.466,187.036 37.508,190.676 37.673,195.4C37.936,202.923 40.708,213.438 41.253,221.456C41.507,225.196 41.47,228.344 39.895,230.003C39.611,229.273 39.152,228.051 39.016,227.496C38.11,223.812 37.285,220.006 36.227,216.37C35.469,213.765 34.588,211.246 33.489,208.911C32.191,206.389 30.739,205.379 29.402,205.084C27.38,204.638 25.055,206.022 22.424,207.544C21.905,207.844 20.344,207.89 19.788,208.57C18.788,209.794 20.119,209.197 19.623,210.153C19.566,210.262 19.508,210.356 19.452,210.434C18.372,209.332 18.116,211.363 20.971,211.793C22.124,211.966 23.713,211.095 24.406,210.782C25.846,210.132 27.052,209.276 28.143,209.173C28.294,209.159 28.207,209.397 28.338,209.567C28.567,209.864 28.807,210.237 29.042,210.715C30.1,212.841 30.954,215.14 31.704,217.519C32.827,221.082 33.722,224.816 34.696,228.429C35.094,229.908 36.058,232.766 37.494,233.747C38.731,234.591 40.278,234.903 42.143,233.469C44.603,231.579 45.614,227.876 45.419,223.142C45.106,215.547 42.055,205.061 41.312,197.083C40.916,192.832 40.939,189.353 43.055,187.9L45.607,189.13C48.976,191.834 53.166,204.957 56.98,212.704C58.489,215.767 60.02,218.055 61.317,218.947C68.078,223.599 72.101,226.553 77.162,227.164C80.45,227.562 84.2,227.002 89.415,225.165C93.613,223.686 96.547,221.357 98.91,218.46C102,214.671 104.068,209.858 106.888,204.753L111.128,195.428C111.348,195 111.901,193.878 112.258,193.15C113.131,193.276 116.133,193.724 117.104,194.001C117.742,194.183 117.96,194.84 118.379,195.369C118.985,196.133 119.405,197.083 119.84,198.066C120.916,200.492 121.598,203.235 122.088,205.271C124.586,215.74 120.526,236.634 121.005,251.708C121.172,256.957 121.96,261.574 123.303,265.08C124.37,267.764 127.359,273.767 130.426,276.741C132.598,278.846 135.046,279.849 137.183,279.99C140.028,280.179 143.935,278.899 147.093,275.179C149.609,272.216 151.951,267.47 152.636,261.612C153.021,258.321 153.154,255.473 153.163,252.76C153.176,248.674 152.894,244.914 152.829,240.284C152.657,229.252 152.532,223.69 152.198,217.763C151.885,212.222 151.39,206.36 150.495,195.374C149.769,188.962 148.09,183.231 146.726,170.238C146.249,165.697 145.824,160.264 145.483,153.581C145.471,152.928 146.369,150.916 147.615,149.006C148.446,147.732 149.404,146.393 150.801,145.971C151.401,145.791 152.039,146.031 152.799,146.492C154.365,147.442 155.992,149.164 157.814,151.782L160.508,164.761L161.442,180.155C163.557,203.017 161.954,226.181 162.645,249.157C162.949,259.249 163.688,269.305 165.339,279.286C166.151,283.872 166.551,288.501 167.607,293.004C168.049,294.888 168.795,296.665 169.312,298.529C170.091,301.337 170.67,304.189 171.605,306.976C172.439,309.457 173.528,313.21 175.544,315.579C177.025,317.319 178.927,318.482 181.282,318.797C184.484,319.225 186.957,318.134 188.836,316.101C191.241,313.5 192.385,308.693 193.022,305.803C194.132,300.763 194.795,296.836 195.148,292.886C195.5,288.948 195.544,284.986 195.4,279.865C195.316,276.878 195.024,273.438 194.622,269.828C193.757,262.063 192.386,253.497 191.596,247.118L189.732,220.914C189.369,217.268 189.118,213.639 188.929,210.014C188.481,201.44 188.38,192.892 187.999,184.216C187.765,178.877 184.925,171.05 185.622,164.976C185.95,162.121 187.381,159.828 191.206,159.049C191.407,159.302 191.75,159.764 191.944,160.145C193.238,162.684 194.035,166.7 194.616,171.128C195.974,181.47 195.918,193.952 196.124,197.335C196.726,207.227 196.129,217.491 196.335,225.695C196.404,228.426 196.562,230.942 196.865,233.16C199.391,251.288 199.189,268.852 201.945,278.1C204.233,285.777 208.63,288.816 215.05,286.992C219.071,285.849 222.04,281.208 222.994,274.503C224.153,266.355 223.153,255.033 222.525,247.859L221.888,226.906C221.111,216.159 215.111,198.581 215.692,186.229C215.933,181.09 217.178,176.885 221.901,175.691C222.298,176.289 224.167,179.111 224.315,179.414C224.653,180.104 224.836,180.716 224.947,181.324C225.18,182.598 225.181,183.859 225.378,185.459L229.261,230.386C229.609,233.149 228.757,239.548 230.473,242.752C231.526,244.72 233.197,245.984 235.596,246.308C238.79,246.738 241.297,245.689 243.204,243.786C245.131,241.865 246.366,238.867 246.908,236.055C247.819,231.335 248.41,226.863 248.772,222.419C249.138,217.916 249.27,213.442 249.261,208.766L249.26,208.69C250.141,212.931 251.86,217.598 254.674,221.04C257.284,224.231 260.784,226.434 265.281,226.807C267.586,226.998 268.438,227.088 269.276,226.992C270.111,226.896 270.957,226.625 273.154,225.869C276.514,224.713 279.373,220.98 281.328,215.572C284.228,207.551 285.84,195.631 288.726,187.582C289.562,185.252 290.48,183.293 291.64,181.988C292.158,181.405 292.633,180.886 293.374,180.94C294.865,180.9 296.024,182.016 296.907,183.507C298.796,186.694 299.581,191.014 300.16,193.219C300.295,193.735 301.462,197.271 302.77,202.025C304.506,208.331 306.207,216.841 308.33,222.599C309.848,226.72 311.533,229.411 312.252,229.449C312.357,229.464 312.454,229.397 312.47,229.301C312.486,229.205 312.413,229.116 312.308,229.102C311.695,228.96 311.28,226.43 310.343,222.85C309.228,218.586 307.389,212.896 306.15,207.519C304.44,200.103 303.326,193.429 303.211,192.71C302.82,189.849 301.965,184.045 300.071,180.092C298.77,177.375 296.748,175.714 294.06,175.04C289.494,174.532 285.646,177.675 283.078,183.528C279.826,190.943 278.137,203.005 275.335,211.7C274.05,215.69 273.017,219.036 270.693,219.823C269.384,220.266 268.913,220.517 268.416,220.572C267.894,220.629 267.373,220.476 265.938,220.35C262.87,220.081 260.824,218.053 259.323,215.608C257.56,212.735 256.574,209.22 256.083,206.163C255.637,203.393 254.828,199.262 252.769,197.498C251.164,196.121 248.991,195.396 245.885,196.473C244.299,197.023 243.103,198.172 242.423,199.854C241.386,202.417 241.993,207.019 241.99,208.766C241.981,213.268 241.84,217.575 241.47,221.909C241.11,226.133 240.532,230.383 239.648,234.868C239.431,235.974 239.079,237.142 238.527,238.139C238.366,238.431 238.202,238.73 238.006,238.982C239.244,236.784 236.926,231.571 236.687,229.613L232.957,184.687C232.747,182.941 232.731,181.567 232.481,180.178C232.274,179.026 231.931,177.866 231.295,176.559C230.998,175.947 229.175,171.797 226.391,169.94C224.689,168.804 222.705,168.301 220.5,168.77C212.031,170.571 208.424,177.022 207.982,185.916C207.357,198.495 213.314,216.424 214.075,227.37L214.663,248.427C215.155,254.234 215.934,262.901 215.455,270.124C215.258,273.101 214.862,275.812 214.07,277.881C213.689,278.874 213.475,279.784 212.692,280.004C211.504,280.339 211.005,279.463 210.477,278.331C209.628,276.514 209.07,274.055 208.603,271.124C207.056,261.415 206.805,247.013 204.7,232.236C204.41,230.236 204.256,227.967 204.174,225.502C203.899,217.236 204.409,206.887 203.722,196.922C203.409,192.374 203.355,171.836 200.073,161.145C198.128,154.811 194.211,151.769 190.4,152.412C184.208,153.457 181.034,156.428 179.469,160.251C176.704,167.003 180.416,177.636 180.67,184.465C180.994,193.16 181.04,201.727 181.431,210.321C181.601,214.045 181.835,217.775 182.182,221.521L183.886,247.896C184.63,254.256 185.94,262.799 186.749,270.541C187.106,273.954 187.363,277.207 187.423,280.03C187.526,284.842 187.467,288.564 187.111,292.261C186.757,295.946 186.104,299.606 185.035,304.304C184.748,305.567 184.396,307.335 183.788,308.98C183.525,309.695 183.216,310.387 182.804,310.951C182.696,311.099 182.704,311.36 182.5,311.331C181.451,311.185 181.366,309.9 180.95,308.887C180.356,307.442 179.951,305.92 179.57,304.759C178.736,302.216 177.955,299.663 177.538,297.051C177.137,294.538 177.243,292.01 176.971,289.475C176.557,285.613 175.825,281.772 175.174,277.909C173.554,268.3 172.82,258.615 172.499,248.896C171.734,225.756 173.263,202.42 171.068,179.397L170.099,164.029C170.014,163.104 168.527,155.72 167.433,151.38C166.856,149.09 166.17,147.452 165.893,147.055C159.03,137.246 152.435,136.26 147.803,137.667C144.386,138.705 141.449,141.417 139.423,144.538C136.996,148.279 135.941,152.461 135.968,153.738C135.837,162.844 136.026,169.711 136.327,175.178C136.886,185.304 137.881,190.496 138.124,196.173C138.914,207.037 139.356,212.834 139.617,218.312C139.895,224.128 139.966,229.584 140.041,240.404C140.079,244.968 140.338,248.674 140.305,252.7C140.287,255.04 140.163,257.495 139.819,260.333C139.59,262.223 138.609,263.777 137.729,265.059Z" style="fill:white;"/>
                </g>
                <g transform="matrix(1,0,0,1,88.8911,152.301)">
                    <path d="M324.521,228.135C324.533,229.067 324.568,230.004 324.689,230.912C324.824,231.935 325.062,232.923 325.455,233.837C326.458,236.176 328.165,237.515 330.02,237.683C331.815,237.846 333.729,237.01 335.102,235.149L337.625,231.337C337.683,231.26 337.668,231.152 337.591,231.094C337.515,231.036 337.406,231.051 337.348,231.127L334.121,234.232C332.928,235.246 331.597,235.497 330.407,235.228C329.354,234.99 328.445,234.208 327.909,232.833L327.177,224.395L326.533,219.742C326.526,219.721 324.168,218.52 323.721,220.24C323.461,221.242 322.838,223.714 322.757,224.034L320.066,234.335C319.976,234.612 318.672,236.129 318.778,236.958C318.027,236.595 317.575,236.123 317.3,235.491C316.881,234.532 316.759,233.329 316.569,231.868C316.134,228.673 316.36,223.98 315.173,220.265C314.609,218.498 313.747,216.938 312.367,215.826C311.326,214.95 310.293,215.408 309.428,216.632C308.181,218.394 307.253,221.827 307.015,222.346L306.049,224.309C305.927,224.628 304.799,227.261 304.61,227.932C304.526,228.227 304.702,228.253 305.192,227.516C305.2,227.505 305.197,227.489 305.186,227.481C305.175,227.473 305.159,227.476 305.151,227.487C304.655,228.108 304.623,228.229 304.735,227.977C305.019,227.342 306.689,225.011 306.872,224.725L307.887,222.753C308.096,222.315 308.836,219.72 309.846,217.933C310.412,216.932 310.951,216.046 311.656,216.658C313.158,218.024 313.828,220.025 314.137,222.198C314.618,225.578 314.214,229.361 314.394,232.088C314.556,234.307 314.712,236.021 315.522,237.334C316.136,238.327 317.11,239.119 318.731,239.707C319.493,239.976 320.273,239.752 320.931,238.994C321.782,238.014 322.446,235.603 322.592,235.181L324.521,228.135Z" style="fill:white;"/>
                </g>
            </g>
        </g>
    </g>
</svg>
