<?xml version="1.0" encoding="UTF-8" standalone="no"?>
<!DOCTYPE svg PUBLIC "-//W3C//DTD SVG 1.1//EN" "http://www.w3.org/Graphics/SVG/1.1/DTD/svg11.dtd">
<svg width="100%" height="100%" viewBox="0 0 351 345" version="1.1" xmlns="http://www.w3.org/2000/svg" xmlns:xlink="http://www.w3.org/1999/xlink" xml:space="preserve" xmlns:serif="http://www.serif.com/" style="fill-rule:evenodd;clip-rule:evenodd;stroke-linejoin:round;stroke-miterlimit:2;">
    <g>
        <g>
            <g transform="matrix(0.68127,0.000237231,-0.000237231,0.68127,52.6331,114.555)">
                <path d="M158.006,98.55C156.418,94.093 154.279,90.247 152.678,85.963C150.352,79.738 148.773,72.532 146.631,66.198C145.41,62.585 144.772,55.238 145.885,51.633C147.505,46.385 153.729,41.974 158.433,39.716C161.166,38.392 163.825,37.762 166.752,37.17C178.003,33.815 181.748,45.111 183.801,53.69C184.472,56.491 185.877,60.759 184.437,63.598C183.335,65.777 180.419,67.129 179.197,69.301C175.555,76.592 171.255,83.638 168.183,91.191C167.594,92.642 166.554,95.759 166.98,97.219C168.149,101.231 170.083,105.184 171.776,109.016L181.05,129.845C187.196,143.442 192.865,157.229 198.989,170.876C204.345,168.25 208.371,163.568 213.161,160.013C217.667,156.668 222.286,153.523 226.818,150.208C228.423,148.916 231.51,147.929 232.997,146.737C238.977,141.937 249.578,138.51 254.676,133.334C257.855,132.895 259.326,132.371 262.298,131.116C263.858,125.013 263.011,118.729 264.093,112.652C264.711,109.858 266.545,106.884 267.488,104.289C269.704,97.532 274.278,93.631 279.068,89.061C285.547,82.881 290.987,80.404 298.791,86.203C302.896,89.254 303.954,87.614 304.225,93.817C302.691,94.835 301.817,95.553 300.436,96.757C298.138,107.268 288.648,114.431 286.366,123.326C280.689,127.31 276.704,131.529 271.062,134.863C269.346,139.034 270.048,156.489 269.885,162.229C269.714,170.529 269.325,178.823 268.717,187.105C268.527,189.931 268.054,192.576 267.617,195.41C266.94,199.779 266.403,204.46 264.966,208.671C264.956,208.702 263.869,209.421 263.737,209.508C263.785,210.3 264.14,211.029 264.124,211.652C264.093,212.923 262.916,216.51 262.016,217.363C261.532,217.273 261.108,217.2 260.621,217.134L260.45,217.637C260.779,217.845 261.113,218.029 261.463,218.2C261.492,219.955 259.145,226.266 258.226,227.923C261.853,228.184 265.369,228.105 269.011,228.592C273.496,229.189 277.828,230.231 282.305,230.9C284.387,231.213 286.7,230.937 288.627,231.3C290.556,231.742 292.54,232.347 294.419,232.981C297.999,234.189 301.104,234.937 304.854,235.326C308.679,232.084 309.505,229.555 312.368,226.302C316.111,222.4 320.285,216.647 325.572,214.992C331.436,213.155 341.411,212.968 343.55,220.284C345.414,221.66 347.519,223.308 349.506,224.437C349.617,225.984 349.838,227.587 350.022,229.134C347.293,230.542 342.916,231.329 341.037,232.447C334.826,236.142 331.423,237.902 324.42,239.813C322.835,240.139 321.188,240.368 319.782,241.137C316.598,242.376 309.265,241.331 307.144,243.089C300.359,248.71 293.461,257.042 287.129,263.095C271.988,277.56 252.268,286.508 233.358,294.876C226.768,297.795 218.291,299.002 211.382,301.039C200.931,303.758 188.938,303.342 178.471,300.995C174.615,300.131 170.17,299.673 166.425,298.334C165.538,299.758 165.257,300.102 164.022,301.287C161.206,301.81 157.345,302.189 154.431,302.552C153.153,301.31 152.957,301.073 151.967,299.592C153.173,297.652 153.52,297.208 155.106,295.71L153.587,293.481C152.704,293.039 148.177,293.713 146.886,293.85C139.957,294.56 132.987,294.789 126.026,294.534C123.455,294.463 106.479,292.781 105.231,291.842C100.068,287.95 94.664,287.113 88.327,284.676C75.606,279.789 63.984,269.663 54.445,260.073C49.433,255.034 46.161,248.168 41.261,243.01C34.837,236.476 32.365,237.287 24.458,237.147C22.537,233.089 19.703,230.868 16.852,227.589C15.464,225.992 14.31,224.116 13.201,222.318C12.24,220.76 11.327,219.181 10.941,217.371C10.691,216.197 10.71,214.895 11.433,213.881C12.776,212.002 21.044,209.466 23.25,209.321C24.337,209.25 25.83,209.855 26.915,210.084C28.47,210.413 29.891,210.655 31.321,211.429C40.324,216.289 40.388,229.934 47.849,236.323C54.872,242.337 86.449,239.892 96.287,239.31C95.691,235.766 93.827,233.889 92.514,230.805C85.99,215.484 80.202,200.384 77.368,183.895C76.901,181.181 75.154,177.818 74.459,174.771C72.264,165.137 71.978,154.226 67.646,145.302C63.785,139.547 43.429,133.36 39.605,126.892C38.807,125.542 42.021,121.721 43.038,120.137C45.39,118.96 54.674,115.652 57.202,116.189C67.609,118.395 72.125,129.502 74.858,138.6C76.477,143.987 89.383,146.916 94.058,149.25C98.376,151.387 102.672,153.602 106.8,155.581L130.448,166.695C132.257,162.392 132.577,156.913 134.159,152.492C134.953,149.923 136.351,147.16 137.066,144.608C138.709,138.745 140.94,133.705 143.737,128.302C145.075,125.721 146.015,122.529 147.344,119.839C150.154,114.15 153.426,108.652 156,102.853C156.655,101.355 157.211,99.987 158.006,98.55ZM255.418,233.921C257.631,234.245 262.171,234.3 264.651,234.497C273.415,235.195 278.078,237.242 285.634,240.981C289.098,240.197 296.09,241.345 299.601,242.092C297.646,245.716 296.28,246.695 293.714,249.645C284.721,259.981 275.202,268.692 263.182,275.421C249.454,283.105 231.284,293.339 215.527,295.279C206.992,297.016 203.063,297.913 194.215,297.142C185.472,296.379 180.924,296.734 172.831,292.052L176.924,292.373C178.829,290.613 180.737,288.187 183.303,287.339C187.567,285.81 192.415,286.029 196.802,285.134C219.72,280.466 237.877,264.631 249.373,244.71C251.57,240.9 254.31,238.284 255.418,233.921ZM95.08,244.163C96.25,244.068 98.005,244.392 99.216,244.558C100.674,246.368 102.256,248.268 103.484,250.229C104.709,252.187 105.765,254.829 107.208,256.623C111.913,262.468 116.951,267.816 122.522,272.842C124.893,274.895 127.218,277.568 129.793,279.358C134.291,282.484 139.396,285.655 144.257,288.147C139.212,287.8 136.22,288.41 131.182,288.779C120.185,289.587 115.967,287.708 105.746,284.521C86.207,278.595 69.787,267.671 57.578,251.268C56.096,249.276 55.207,247.173 53.867,245.134L53.702,244.887C64.351,246.921 72.531,245.781 83.207,244.963C87.618,244.623 90.426,245.11 95.08,244.163ZM108.386,244.608C115.7,244.713 124.005,244.531 131.262,245.323C133.022,248.502 135.203,253.597 137.031,256.545C141.184,263.237 146.376,270.868 152.141,276.168C154.171,278.037 157.128,279.687 159.293,281.463C160.328,282.313 160.264,282.213 160.331,283.173C158.684,284.089 157.635,283.918 155.752,283.547C147.287,282.216 142.261,278.229 135.538,273.7C123.628,265.679 116.249,256.666 108.386,244.608ZM228.294,232.076C228.944,231.889 231.426,232.834 232.487,232.887C238.303,233.184 244.309,233.113 250.115,233.405C250.007,233.771 249.889,234.134 249.76,234.495C248.473,238.189 243.164,246.066 240.503,249.323C239.377,250.702 237.658,254.031 236.406,255.289C232.289,259.418 227.323,264.979 222.918,268.56C220.323,270.668 214.122,273.55 210.964,275.116C201.571,279.718 202.244,277.818 192.786,279.913C196.37,273.584 202.905,267.497 205.766,260.689C205.984,260.168 205.966,258.781 205.958,258.171C208.671,255.945 209,254.287 210.003,251C211.603,245.742 213.285,239.945 213.998,234.5C220.652,232.266 223.625,233.342 228.294,232.076ZM203.342,239.602L203.924,239.702C204.121,240.729 203.147,244.466 202.781,245.55C198.744,257.429 192.972,270.826 181.64,277.331C180.774,277.829 180.837,277.489 179.842,278.402L179.382,278.289L179.395,277.918C180.984,275.671 181.95,271.76 183.272,269.121C183.579,267.987 186.951,262.642 186.951,261.939C186.943,258.184 188.135,255.268 189.362,251.752C191.764,244.879 197.065,242.329 203.342,239.602ZM140.76,246.366C149.417,248.602 152.408,247.379 161.154,252.081C161.14,253.487 161.085,254.434 160.795,255.823C161.673,257.631 164.099,264.721 163.701,266.766C163.199,269.342 164.096,267.897 164.33,269.584C163.817,270.018 163.638,270.152 163.341,270.755L162.129,273.487C154.735,268.416 143.428,254.697 140.76,246.366ZM174.631,267.397L174.987,267.892C174.892,268.952 174.389,269.595 173.842,270.523L173.418,270.089C173.534,269.013 174.065,268.339 174.631,267.397ZM176.168,211.287C176.774,211.602 176.81,211.75 177.213,212.305C184.214,221.937 184.837,233.279 182.79,244.776C181.127,246.939 176.879,250.513 174.41,253.379C173.989,253.926 174.255,253.739 173.631,253.958C171.094,252.689 169.265,249.408 168.383,246.805C169.049,244.297 169.647,236.787 170.049,233.797C168.97,231.85 170.805,229.389 171.457,227.195C172.831,222.581 173.892,215.481 176.168,211.287ZM135.837,177.326C140.228,178.742 142.379,180.881 146.117,183.331C155.088,189.202 166.344,197.902 172.639,206.584C171.281,208.458 168.831,211.831 168.323,214.16C167.259,219.042 165.375,223.287 163.822,227.966C162.659,231.471 162.054,236.092 161.579,239.797C161.312,241.987 161.096,243.21 160.585,245.355C153.876,243.842 145.069,241.616 138.25,240.8C135.867,233.429 133.416,225.534 132.256,217.784C132.064,216.5 132.749,211.876 132.623,209.934C132.439,207.089 131.708,197.892 131.958,195.229C132.423,190.258 134.854,182.337 135.837,177.326ZM78.573,150.387C80.677,150.905 84.603,151.084 86.267,151.81C93.918,155.155 101.38,159.566 108.746,163.508C111.008,164.718 114.121,165.66 116.55,166.679C121.031,168.576 125.286,170.971 129.233,173.816L129.137,174.116C128.223,176.887 128.183,179.65 127.58,182.56C126.924,185.721 125.959,189.152 125.594,192.355C124.425,202.623 125.185,214.045 126.233,224.316C126.559,227.516 127.966,232.839 128.547,236.421L129.317,240.155C126.652,240.026 105.96,239.742 106.026,239.818C99.359,231.955 87.135,197.66 85.21,185.279C84.249,179.092 82.758,178.352 82.226,174.226C81.177,166.095 80.377,158.229 78.644,150.687L78.573,150.387ZM194.494,183.223L194.925,183.468C200.486,194.31 204.187,205.418 205.521,217.5C206.216,223.789 206.94,224.445 205.742,230.734C201.944,232.16 195.417,235.955 191.638,238.005C191.496,237.929 191.354,237.852 191.212,237.776C191.628,235.347 190.73,225.552 190.643,224.266C190.035,215.11 184.864,209.973 179.769,202.71C182.027,197.892 190.472,187.134 194.494,183.223ZM326.496,223.36C328.117,221.981 332.16,221.234 334.015,222.271C335.507,223.089 338.229,225.1 336.637,227.023C331.82,232.829 319.682,235.863 312.634,235.942C315.598,231.458 321.427,225.373 326.496,223.36ZM261.553,141.479L261.882,141.71C263.464,150.626 263.566,156.384 263.995,165.389C263.827,165.518 263.295,165.968 263.279,166.184C262.648,176.076 263.777,185.913 261.832,195.681C260.948,200.223 260.834,205.658 259.358,210.1C257.65,215.245 255.884,221.429 253.426,226.223C253.315,226.439 252.497,227.345 252.26,227.35C247.688,227.231 241.988,227.647 237.519,227.213C230.292,226.51 223.881,225.626 216.651,227.347C216.101,227.479 214.856,227.618 214.393,227.268C214.517,226.908 214.664,226.468 214.84,225.955C214.288,223.776 213.988,222.926 213.896,220.718C213.675,210.702 211.956,203.384 208.435,194.066C206.305,188.431 202.821,182.797 201.963,176.831C201.839,175.987 203.3,174.3 203.895,173.808C215.464,163.571 228.052,154.347 241.861,147.337C247.062,144.695 251.497,141.255 257.821,142.295C259.087,142.502 260.4,141.916 261.553,141.479ZM23.566,218.66C26.874,218.318 27.57,219.566 29.663,221.866C27.776,223.373 27.012,224.079 25.834,226.121C25.378,226.747 25.309,226.979 24.613,227.302C23.811,226.473 21.189,220.371 20.911,219.126C21.586,218.618 22.665,218.7 23.566,218.66ZM161.657,106.866C162.263,107.163 167.462,116.345 167.841,117.439C170.505,125.16 173.947,132.71 177.068,140.229C179.624,146.389 184.316,152.934 186.424,158.947C188.301,164.297 191.693,172.318 192.767,177.626C190.512,180.795 187.214,184.216 184.653,187.366C181.864,190.797 179.305,196.037 176.108,198.634C174.197,197.321 173.021,196.397 171.247,194.895C163.933,187.95 155.956,181.739 147.429,176.355C143.957,174.123 140.263,172.376 136.83,169.973L136.406,169.676C139.135,165.547 138.717,157.723 140.45,152.942C143.716,143.934 147.067,135.016 151.508,126.5C154.47,120.821 157.69,111.65 161.657,106.866ZM57.816,126.421C59.903,127.829 62.351,131.823 63.682,133.905C62.666,133.516 61.623,133.031 60.624,132.589C58.275,131.045 56.262,129.65 53.714,128.423C55.149,127.908 56.473,127.142 57.816,126.421ZM286.655,91.891C286.813,91.9 287.195,91.913 287.313,91.95C289.074,92.501 291.543,92.157 293.39,91.867C290.466,103.512 284.579,114.884 274.857,122.229C273.333,123.326 271.87,124.279 270.296,125.3C269.98,110.889 275.675,100.83 286.655,91.891ZM166.501,45.091L166.577,45.092C167.011,45.097 167.444,45.136 167.707,45.265C169.904,46.339 172.147,49.869 172.902,52.077C175.879,60.753 171.857,68.546 168.286,76.079L163.17,86.879C160.507,82.811 155.672,66.593 155.22,61.206C154.825,56.501 156.497,51.79 159.434,48.01C160.408,46.757 162.684,46.151 164.183,46.062C164.838,46.023 164.914,45.717 165.543,45.121C165.793,45.11 166.144,45.09 166.501,45.091Z" style="fill:white;"/>
                <g>
                    <g transform="matrix(1,0,0,1,-100.356,-159.348)">
                        <path d="M316.62,333.7C318.226,334.513 318.879,336.542 319.494,338.139C317.936,339.705 316.97,340.295 314.928,341.129C308.093,339.618 312.436,335.213 316.62,333.7Z" style="fill:white;fill-rule:nonzero;"/>
                    </g>
                    <g transform="matrix(1,0,0,1,-100.356,-159.348)">
                        <path d="M193.842,327.113C197.433,326.579 198.63,328.237 200.01,331.089C199.46,332.626 198.526,334.089 197.703,335.508C193.868,335.166 188.808,329.905 193.842,327.113Z" style="fill:white;fill-rule:nonzero;"/>
                    </g>
                    <g transform="matrix(1,0,0,1,-100.356,-159.348)">
                        <path d="M374.529,402.663C379.779,402.071 381.919,405.537 377.534,409.361C373.123,411.079 370.586,406.263 374.529,402.663Z" style="fill:white;fill-rule:nonzero;"/>
                    </g>
                    <g transform="matrix(1,0,0,1,-100.356,-159.348)">
                        <path d="M262.093,289.174C264.936,288.842 265.242,291.268 265.836,293.366C264.526,294.661 263.534,295.176 261.959,295.989C260.808,296.363 260.19,296.274 259.205,295.568C257.45,292.774 259.955,290.524 262.093,289.174Z" style="fill:white;fill-rule:nonzero;"/>
                    </g>
                    <g transform="matrix(1,0,0,1,-100.356,-159.348)">
                        <path d="M179.902,413.132C182.205,413.642 185.857,413.503 187.371,415.532C188.211,416.655 186.486,419.287 185.16,419.389C184.583,419.434 183.961,419.908 183.541,420.295C183.162,420.747 182.87,421.016 182.447,421.421L181.849,421.392C181.224,420.813 181.084,420.629 180.292,420.255C177.538,420.542 178.151,419.729 176.94,417.055C178.132,415.779 178.646,414.532 179.902,413.132Z" style="fill:white;fill-rule:nonzero;"/>
                    </g>
                </g>
            </g>
            <g transform="matrix(0.620719,0,0,0.620719,-1078.07,-1.4967)">
                <path d="M1855.45,190.621C1855.45,190.621 1866.2,202.525 1885.4,202.525C1903.32,202.525 1914.07,191.005 1914.07,177.053C1914.07,147.741 1870.3,152.733 1870.3,134.045C1870.3,126.877 1877.08,120.861 1886.68,120.861C1898.2,120.861 1906.52,128.669 1906.52,128.669L1912.28,118.173C1912.28,118.173 1903.45,109.085 1886.68,109.085C1869.66,109.085 1857.5,120.221 1857.5,134.301C1857.5,162.077 1901.27,157.853 1901.27,177.437C1901.27,186.013 1894.11,190.749 1885.66,190.749C1872.22,190.749 1862.62,181.021 1862.62,181.021L1855.45,190.621Z" style="fill:white;fill-rule:nonzero;"/>
                <path d="M1926.11,155.165C1926.11,181.789 1946.46,202.525 1972.57,202.525C1998.68,202.525 2018.91,181.789 2018.91,155.165C2018.91,129.181 1998.68,109.085 1972.57,109.085C1946.46,109.085 1926.11,129.181 1926.11,155.165ZM1939.16,155.165C1939.16,135.453 1954.14,120.605 1972.57,120.605C1991,120.605 2005.85,135.453 2005.85,155.165C2005.85,175.517 1991,190.877 1972.57,190.877C1954.14,190.877 1939.16,175.517 1939.16,155.165Z" style="fill:white;fill-rule:nonzero;"/>
                <path d="M2036.06,168.989C2036.06,189.085 2050.52,202.525 2071.64,202.525C2092.76,202.525 2107.23,189.085 2107.23,168.989L2107.23,110.621L2094.55,110.621L2094.55,168.733C2094.55,182.813 2085.47,190.877 2071.51,190.877C2057.69,190.877 2048.73,182.813 2048.73,168.989L2048.73,110.621L2036.06,110.621L2036.06,168.989Z" style="fill:white;fill-rule:nonzero;"/>
                <path d="M2130.52,200.989L2183.64,200.989L2183.64,189.981L2143.19,189.981L2143.19,110.621L2130.52,110.621L2130.52,200.989Z" style="fill:white;fill-rule:nonzero;"/>
            </g>
            <g>
                <g transform="matrix(1,0,0,1,-100.356,-159.348)">
                    <path d="M420.138,400.484C421.544,399.716 423.191,399.487 424.776,399.161L424.913,399.905C431.297,405.521 417.68,409.934 420.278,401.226L420.138,400.484Z" style="fill:white;fill-rule:nonzero;"/>
                </g>
                <g transform="matrix(1,0,0,1,-100.356,-159.348)">
                    <path d="M205.582,484.074C207.354,483.537 209.226,484.539 209.762,486.313C210.297,488.087 209.293,489.958 207.519,490.489C205.747,491.024 203.879,490.021 203.344,488.25C202.809,486.479 203.811,484.611 205.582,484.074Z" style="fill:white;fill-rule:nonzero;"/>
                </g>
                <g transform="matrix(1,0,0,1,-100.356,-159.348)">
                    <path d="M356.927,472.945C358.709,472.711 360.356,473.924 360.662,475.695C360.969,477.463 359.825,479.161 358.069,479.539C356.866,479.8 355.619,479.382 354.819,478.447C354.016,477.513 353.792,476.216 354.232,475.066C354.671,473.918 355.706,473.103 356.927,472.945Z" style="fill:white;fill-rule:nonzero;"/>
                </g>
                <g transform="matrix(1,0,0,1,-100.356,-159.348)">
                    <path d="M122.027,249.359C123.155,248.921 124.431,249.124 125.366,249.892C126.301,250.659 126.75,251.872 126.539,253.063C126.329,254.254 125.493,255.24 124.351,255.641C122.626,256.247 120.734,255.358 120.099,253.643C119.465,251.928 120.323,250.022 122.027,249.359Z" style="fill:white;fill-rule:nonzero;"/>
                </g>
                <g transform="matrix(1,0,0,1,-100.356,-159.348)">
                    <path d="M192.051,179.309C193.264,179.094 194.496,179.563 195.26,180.528C196.024,181.494 196.197,182.801 195.709,183.931C195.222,185.062 194.153,185.834 192.926,185.941C191.141,186.098 189.549,184.821 189.314,183.044C189.08,181.267 190.286,179.621 192.051,179.309Z" style="fill:white;fill-rule:nonzero;"/>
                </g>
                <g transform="matrix(1,0,0,1,-100.356,-159.348)">
                    <path d="M171.014,464.324C172.792,463.847 174.622,464.897 175.107,466.674C175.593,468.45 174.553,470.284 172.78,470.782C170.992,471.282 169.139,470.232 168.65,468.439C168.16,466.65 169.22,464.803 171.014,464.324Z" style="fill:white;fill-rule:nonzero;"/>
                </g>
                <g transform="matrix(1,0,0,1,-100.356,-159.348)">
                    <path d="M434.324,361.953C436.008,361.239 437.953,362.011 438.69,363.684C439.427,365.358 438.682,367.316 437.019,368.076C435.922,368.579 434.64,368.45 433.663,367.742C432.684,367.034 432.166,365.853 432.303,364.655C432.44,363.455 433.211,362.421 434.324,361.953Z" style="fill:white;fill-rule:nonzero;"/>
                </g>
                <g transform="matrix(1,0,0,1,-100.356,-159.348)">
                    <path d="M338.473,482.524C339.586,482.058 340.862,482.229 341.815,482.971C342.768,483.711 343.247,484.908 343.07,486.103C342.894,487.295 342.089,488.303 340.962,488.734C339.254,489.392 337.336,488.555 336.654,486.855C335.975,485.158 336.783,483.229 338.473,482.524Z" style="fill:white;fill-rule:nonzero;"/>
                </g>
                <g transform="matrix(1,0,0,1,-100.356,-159.348)">
                    <path d="M187.352,475.429C188.463,474.945 189.749,475.097 190.714,475.832C191.679,476.563 192.171,477.763 192.002,478.963C191.832,480.163 191.027,481.176 189.896,481.613C188.199,482.271 186.288,481.45 185.596,479.766C184.904,478.084 185.684,476.155 187.352,475.429Z" style="fill:white;fill-rule:nonzero;"/>
                </g>
                <g transform="matrix(1,0,0,1,-100.356,-159.348)">
                    <path d="M301.164,494.303C302.956,494.05 304.627,495.271 304.927,497.058C305.23,498.845 304.053,500.545 302.274,500.895C301.082,501.129 299.856,500.697 299.071,499.766C298.29,498.837 298.074,497.555 298.508,496.418C298.942,495.284 299.958,494.474 301.164,494.303Z" style="fill:white;fill-rule:nonzero;"/>
                </g>
                <g transform="matrix(1,0,0,1,-100.356,-159.348)">
                    <path d="M344.939,177.573C346.571,176.71 348.595,177.334 349.458,178.968C350.321,180.602 349.692,182.625 348.058,183.486C346.426,184.346 344.405,183.721 343.544,182.088C342.683,180.457 343.307,178.436 344.939,177.573Z" style="fill:white;fill-rule:nonzero;"/>
                </g>
                <g transform="matrix(1,0,0,1,-100.356,-159.348)">
                    <path d="M132.542,232.228C134.285,231.71 136.123,232.68 136.678,234.411C137.234,236.142 136.303,238 134.584,238.593C133.439,238.987 132.17,238.731 131.267,237.924C130.364,237.117 129.968,235.884 130.233,234.702C130.498,233.52 131.381,232.574 132.542,232.228Z" style="fill:white;fill-rule:nonzero;"/>
                </g>
                <g transform="matrix(1,0,0,1,-100.356,-159.348)">
                    <path d="M103.676,346.139C105.433,345.653 107.257,346.661 107.776,348.411C108.294,350.158 107.315,351.997 105.576,352.547C104.424,352.908 103.166,352.624 102.285,351.797C101.405,350.971 101.038,349.734 101.326,348.561C101.615,347.389 102.513,346.463 103.676,346.139Z" style="fill:white;fill-rule:nonzero;"/>
                </g>
                <g transform="matrix(1,0,0,1,-100.356,-159.348)">
                    <path d="M267.839,159.682C268.924,159.157 270.205,159.256 271.195,159.94C272.187,160.624 272.732,161.788 272.624,162.986C272.519,164.185 271.774,165.233 270.679,165.731C269.013,166.487 267.047,165.764 266.271,164.107C265.494,162.451 266.194,160.479 267.839,159.682Z" style="fill:white;fill-rule:nonzero;"/>
                </g>
                <g transform="matrix(1,0,0,1,-100.356,-159.348)">
                    <path d="M362.525,187.529C364.217,186.814 366.17,187.6 366.896,189.289C367.62,190.978 366.846,192.936 365.159,193.67C363.462,194.41 361.485,193.627 360.754,191.925C360.025,190.222 360.817,188.251 362.525,187.529Z" style="fill:white;fill-rule:nonzero;"/>
                </g>
                <g transform="matrix(1,0,0,1,-100.356,-159.348)">
                    <path d="M102.745,326.158C104.499,325.637 106.346,326.624 106.888,328.371C107.43,330.118 106.466,331.976 104.725,332.539C103.581,332.911 102.325,332.637 101.439,331.824C100.552,331.011 100.171,329.782 100.442,328.611C100.712,327.439 101.592,326.503 102.745,326.158Z" style="fill:white;fill-rule:nonzero;"/>
                </g>
                <g transform="matrix(1,0,0,1,-100.356,-159.348)">
                    <path d="M130.143,420.889C131.912,420.389 133.751,421.413 134.26,423.179C134.769,424.945 133.756,426.789 131.994,427.308C130.217,427.832 128.353,426.811 127.839,425.029C127.326,423.25 128.36,421.392 130.143,420.889Z" style="fill:white;fill-rule:nonzero;"/>
                </g>
                <g transform="matrix(1,0,0,1,-100.356,-159.348)">
                    <path d="M155.098,451.726C156.77,450.924 158.775,451.639 159.564,453.318C160.353,454.995 159.623,456.995 157.939,457.771C156.272,458.539 154.297,457.821 153.517,456.158C152.736,454.497 153.442,452.518 155.098,451.726Z" style="fill:white;fill-rule:nonzero;"/>
                </g>
                <g transform="matrix(1,0,0,1,-100.356,-159.348)">
                    <path d="M378.471,199.625C379.587,199.138 380.879,199.296 381.843,200.038C382.808,200.779 383.295,201.987 383.111,203.19C382.927,204.393 382.103,205.401 380.961,205.822C379.266,206.445 377.382,205.608 376.708,203.932C376.034,202.256 376.816,200.348 378.471,199.625Z" style="fill:white;fill-rule:nonzero;"/>
                </g>
                <g transform="matrix(1,0,0,1,-100.356,-159.348)">
                    <path d="M287.891,160.674C289.57,159.898 291.56,160.633 292.331,162.315C293.1,163.997 292.357,165.984 290.673,166.748C288.997,167.508 287.02,166.769 286.254,165.096C285.488,163.423 286.22,161.446 287.891,160.674Z" style="fill:white;fill-rule:nonzero;"/>
                </g>
                <g transform="matrix(1,0,0,1,-100.356,-159.348)">
                    <path d="M431.3,282.784C432.382,282.258 433.663,282.355 434.653,283.039C435.643,283.721 436.19,284.884 436.082,286.082C435.977,287.282 435.235,288.329 434.14,288.826C432.476,289.584 430.51,288.863 429.734,287.208C428.955,285.553 429.652,283.582 431.3,282.784Z" style="fill:white;fill-rule:nonzero;"/>
                </g>
                <g transform="matrix(1,0,0,1,-100.356,-159.348)">
                    <path d="M107.097,365.871C108.898,365.463 110.688,366.595 111.093,368.395C111.499,370.197 110.366,371.984 108.563,372.387C106.765,372.789 104.981,371.661 104.577,369.863C104.172,368.063 105.3,366.279 107.097,365.871Z" style="fill:white;fill-rule:nonzero;"/>
                </g>
                <g transform="matrix(1,0,0,1,-100.356,-159.348)">
                    <path d="M435.574,302.266C436.664,301.755 437.943,301.874 438.924,302.571C439.903,303.268 440.432,304.439 440.309,305.637C440.182,306.834 439.424,307.871 438.322,308.353C436.645,309.082 434.695,308.329 433.942,306.663C433.192,305 433.919,303.039 435.574,302.266Z" style="fill:white;fill-rule:nonzero;"/>
                </g>
                <g transform="matrix(1,0,0,1,-100.356,-159.348)">
                    <path d="M327.006,169.616C328.729,168.968 330.651,169.836 331.303,171.555C331.959,173.274 331.098,175.199 329.38,175.859C327.653,176.522 325.719,175.656 325.061,173.928C324.403,172.2 325.276,170.267 327.006,169.616Z" style="fill:white;fill-rule:nonzero;"/>
                </g>
                <g transform="matrix(1,0,0,1,-100.356,-159.348)">
                    <path d="M209.29,171.234C210.387,170.707 211.683,170.817 212.674,171.522C213.666,172.226 214.195,173.415 214.056,174.623C213.917,175.832 213.132,176.869 212.007,177.331C210.337,178.016 208.424,177.249 207.689,175.601C206.955,173.952 207.664,172.018 209.29,171.234Z" style="fill:white;fill-rule:nonzero;"/>
                </g>
                <g transform="matrix(1,0,0,1,-100.356,-159.348)">
                    <path d="M104.507,306.145C106.28,305.813 107.996,306.95 108.381,308.713C108.767,310.474 107.684,312.224 105.934,312.663C104.753,312.961 103.504,312.592 102.674,311.7C101.845,310.811 101.566,309.537 101.948,308.382C102.329,307.224 103.31,306.366 104.507,306.145Z" style="fill:white;fill-rule:nonzero;"/>
                </g>
                <g transform="matrix(1,0,0,1,-100.356,-159.348)">
                    <path d="M247.725,161.24C249.342,160.337 251.385,160.922 252.278,162.544C253.171,164.166 252.573,166.205 250.945,167.088C249.331,167.963 247.314,167.372 246.429,165.764C245.543,164.156 246.122,162.135 247.725,161.24Z" style="fill:white;fill-rule:nonzero;"/>
                </g>
                <g transform="matrix(1,0,0,1,-100.356,-159.348)">
                    <path d="M406.292,228.741C408.124,228.455 409.837,229.713 410.111,231.544C410.385,233.375 409.119,235.08 407.285,235.343C405.469,235.604 403.782,234.35 403.508,232.535C403.237,230.72 404.479,229.025 406.292,228.741Z" style="fill:white;fill-rule:nonzero;"/>
                </g>
                <g transform="matrix(1,0,0,1,-100.356,-159.348)">
                    <path d="M280.475,496.971C281.609,496.479 282.92,496.653 283.886,497.424C284.851,498.192 285.312,499.434 285.086,500.647C284.857,501.863 283.975,502.85 282.796,503.218C281.104,503.745 279.293,502.855 278.677,501.195C278.059,499.532 278.848,497.676 280.475,496.971Z" style="fill:white;fill-rule:nonzero;"/>
                </g>
                <g transform="matrix(1,0,0,1,-100.356,-159.348)">
                    <path d="M319.797,489.65C321.51,488.953 323.463,489.784 324.15,491.503C324.837,493.221 323.995,495.168 322.274,495.847C320.566,496.518 318.634,495.684 317.952,493.979C317.27,492.274 318.094,490.339 319.797,489.65Z" style="fill:white;fill-rule:nonzero;"/>
                </g>
                <g transform="matrix(1,0,0,1,-100.356,-159.348)">
                    <path d="M159.347,202.196C161.13,201.88 162.84,203.043 163.201,204.817C163.562,206.591 162.443,208.33 160.678,208.735C159.496,209.007 158.26,208.616 157.449,207.715C156.638,206.814 156.379,205.544 156.774,204.397C157.168,203.25 158.153,202.408 159.347,202.196Z" style="fill:white;fill-rule:nonzero;"/>
                </g>
                <g transform="matrix(1,0,0,1,-100.356,-159.348)">
                    <path d="M119.812,403.6C120.929,403.132 122.212,403.303 123.165,404.05C124.119,404.797 124.592,406.003 124.403,407.197C124.213,408.395 123.391,409.395 122.253,409.811C120.551,410.432 118.664,409.584 118.001,407.897C117.338,406.211 118.142,404.303 119.812,403.6Z" style="fill:white;fill-rule:nonzero;"/>
                </g>
                <g transform="matrix(1,0,0,1,-100.356,-159.348)">
                    <path d="M424.873,263.824C425.968,263.334 427.242,263.471 428.208,264.182C429.176,264.895 429.687,266.068 429.545,267.261C429.405,268.453 428.634,269.476 427.529,269.945C425.844,270.655 423.899,269.876 423.17,268.2C422.441,266.521 423.202,264.568 424.873,263.824Z" style="fill:white;fill-rule:nonzero;"/>
                </g>
                <g transform="matrix(1,0,0,1,-100.356,-159.348)">
                    <path d="M416.125,245.917C417.214,245.397 418.499,245.506 419.483,246.2C420.47,246.894 421.004,248.067 420.883,249.267C420.76,250.467 419.999,251.507 418.894,251.988C417.225,252.714 415.28,251.968 414.527,250.313C413.772,248.657 414.483,246.701 416.125,245.917Z" style="fill:white;fill-rule:nonzero;"/>
                </g>
                <g transform="matrix(1,0,0,1,-100.356,-159.348)">
                    <path d="M240.795,494.637C241.92,494.205 243.19,494.411 244.119,495.176C245.049,495.945 245.493,497.15 245.281,498.337C245.07,499.524 244.235,500.503 243.098,500.9C241.378,501.503 239.493,500.613 238.864,498.903C238.235,497.192 239.095,495.295 240.795,494.637Z" style="fill:white;fill-rule:nonzero;"/>
                </g>
                <g transform="matrix(1,0,0,1,-100.356,-159.348)">
                    <path d="M393.607,213.263C394.794,213.055 396.002,213.503 396.768,214.437C397.531,215.37 397.731,216.643 397.291,217.766C396.849,218.889 395.839,219.687 394.644,219.853C392.841,220.104 391.172,218.864 390.888,217.068C390.607,215.271 391.815,213.578 393.607,213.263Z" style="fill:white;fill-rule:nonzero;"/>
                </g>
                <g transform="matrix(1,0,0,1,-100.356,-159.348)">
                    <path d="M412.227,417.537C413.311,417.005 414.598,417.103 415.593,417.789C416.588,418.476 417.13,419.647 417.017,420.85C416.901,422.053 416.146,423.1 415.038,423.587C413.377,424.316 411.435,423.584 410.669,421.939C409.906,420.292 410.595,418.337 412.227,417.537Z" style="fill:white;fill-rule:nonzero;"/>
                </g>
                <g transform="matrix(1,0,0,1,-100.356,-159.348)">
                    <path d="M174.787,189.802C176.522,189.392 178.273,190.42 178.761,192.135C179.248,193.85 178.3,195.645 176.609,196.209C175.445,196.598 174.161,196.315 173.267,195.474C172.374,194.633 172.015,193.369 172.332,192.184C172.649,190.999 173.592,190.083 174.787,189.802Z" style="fill:white;fill-rule:nonzero;"/>
                </g>
                <g transform="matrix(1,0,0,1,-100.356,-159.348)">
                    <path d="M388.259,448.539C390.007,448.174 391.733,449.247 392.173,450.976C392.615,452.708 391.617,454.476 389.909,454.995C388.735,455.35 387.462,455.032 386.59,454.166C385.722,453.303 385.398,452.032 385.746,450.855C386.093,449.679 387.059,448.789 388.259,448.539Z" style="fill:white;fill-rule:nonzero;"/>
                </g>
                <g transform="matrix(1,0,0,1,-100.356,-159.348)">
                    <path d="M308.317,163.779C310.125,163.404 311.891,164.57 312.259,166.379C312.625,168.188 311.454,169.951 309.643,170.31C307.843,170.668 306.093,169.503 305.727,167.705C305.361,165.907 306.519,164.152 308.317,163.779Z" style="fill:white;fill-rule:nonzero;"/>
                </g>
                <g transform="matrix(1,0,0,1,-100.356,-159.348)">
                    <path d="M223.953,490.932C225.035,490.4 226.321,490.495 227.313,491.179C228.306,491.863 228.851,493.032 228.739,494.232C228.627,495.432 227.875,496.479 226.773,496.968C225.113,497.703 223.17,496.976 222.402,495.332C221.634,493.687 222.323,491.732 223.953,490.932Z" style="fill:white;fill-rule:nonzero;"/>
                </g>
                <g transform="matrix(1,0,0,1,-100.356,-159.348)">
                    <path d="M142.088,436.926C143.843,436.5 145.616,437.55 146.088,439.292C146.56,441.034 145.559,442.837 143.83,443.355C142.669,443.703 141.411,443.395 140.543,442.547C139.677,441.7 139.338,440.45 139.659,439.282C139.98,438.113 140.91,437.211 142.088,436.926Z" style="fill:white;fill-rule:nonzero;"/>
                </g>
                <g transform="matrix(1,0,0,1,-100.356,-159.348)">
                    <path d="M437.18,322.347C438.222,321.737 439.511,321.737 440.551,322.347C441.593,322.958 442.222,324.084 442.196,325.292C442.169,326.497 441.496,327.597 440.427,328.163C438.827,329.013 436.84,328.429 435.956,326.845C435.074,325.263 435.616,323.263 437.18,322.347Z" style="fill:white;fill-rule:nonzero;"/>
                </g>
                <g transform="matrix(1,0,0,1,-100.356,-159.348)">
                    <path d="M401.005,433.826C402.126,433.379 403.4,433.574 404.337,434.334C405.274,435.092 405.726,436.3 405.519,437.487C405.313,438.676 404.482,439.661 403.345,440.061C401.634,440.663 399.757,439.787 399.121,438.089C398.484,436.392 399.321,434.497 401.005,433.826Z" style="fill:white;fill-rule:nonzero;"/>
                </g>
                <g transform="matrix(1,0,0,1,-100.356,-159.348)">
                    <path d="M437.874,341.884C439.661,341.582 441.364,342.761 441.704,344.542C442.043,346.321 440.898,348.047 439.124,348.424C437.945,348.674 436.724,348.266 435.929,347.361C435.135,346.453 434.892,345.187 435.298,344.053C435.7,342.916 436.687,342.087 437.874,341.884Z" style="fill:white;fill-rule:nonzero;"/>
                </g>
                <g transform="matrix(1,0,0,1,-100.356,-159.348)">
                    <path d="M107.679,286.721C109.393,286.024 111.347,286.855 112.03,288.576C112.713,290.297 111.862,292.242 110.136,292.911C108.432,293.568 106.515,292.732 105.841,291.032C105.167,289.334 105.987,287.411 107.679,286.721Z" style="fill:white;fill-rule:nonzero;"/>
                </g>
                <g transform="matrix(1,0,0,1,-100.356,-159.348)">
                    <path d="M145.039,216.412C146.815,215.953 148.629,217.017 149.094,218.792C149.558,220.567 148.498,222.384 146.724,222.853C144.944,223.324 143.119,222.259 142.653,220.478C142.187,218.696 143.256,216.874 145.039,216.412Z" style="fill:white;fill-rule:nonzero;"/>
                </g>
                <g transform="matrix(1,0,0,1,-100.356,-159.348)">
                    <path d="M260.748,496.932C261.913,496.545 263.197,496.829 264.089,497.674C264.981,498.516 265.334,499.784 265.01,500.968C264.686,502.153 263.739,503.063 262.541,503.334C260.81,503.729 259.073,502.697 258.595,500.987C258.116,499.279 259.064,497.492 260.748,496.932Z" style="fill:white;fill-rule:nonzero;"/>
                </g>
                <g transform="matrix(1,0,0,1,-100.356,-159.348)">
                    <path d="M114.086,267.534C115.794,267.055 117.578,268 118.141,269.682C118.704,271.363 117.849,273.192 116.196,273.837C115.053,274.284 113.755,274.066 112.822,273.266C111.889,272.468 111.471,271.221 111.736,270.021C112,268.824 112.903,267.866 114.086,267.534Z" style="fill:white;fill-rule:nonzero;"/>
                </g>
                <g transform="matrix(1,0,0,1,-100.356,-159.348)">
                    <path d="M228.942,164.836C230.709,164.365 232.524,165.411 233.004,167.175C233.483,168.939 232.447,170.759 230.686,171.248C228.911,171.741 227.073,170.696 226.59,168.918C226.107,167.141 227.162,165.309 228.942,164.836Z" style="fill:white;fill-rule:nonzero;"/>
                </g>
                <g transform="matrix(1,0,0,1,-100.356,-159.348)">
                    <path d="M372.421,461.992C373.502,461.471 374.784,461.574 375.768,462.263C376.755,462.953 377.289,464.121 377.168,465.318C377.045,466.516 376.287,467.553 375.181,468.029C373.523,468.747 371.597,468.008 370.844,466.363C370.091,464.721 370.791,462.779 372.421,461.992Z" style="fill:white;fill-rule:nonzero;"/>
                </g>
                <g transform="matrix(1,0,0,1,-100.356,-159.348)">
                    <path d="M112.208,385.139C113.328,384.737 114.578,384.971 115.479,385.747C116.38,386.526 116.794,387.726 116.561,388.895C116.329,390.063 115.486,391.013 114.356,391.387C112.638,391.953 110.784,391.034 110.196,389.324C109.608,387.613 110.504,385.747 112.208,385.139Z" style="fill:white;fill-rule:nonzero;"/>
                </g>
                <g transform="matrix(1,0,0,1,-100.356,-159.348)">
                    <path d="M426.852,382.708C428.473,381.329 432.516,380.582 434.371,381.618L433.369,381.7C433.008,383.195 434.253,386.3 432.476,387.132C427.107,389.645 427.286,383.261 426.852,382.708Z" style="fill:white;fill-rule:nonzero;"/>
                </g>
            </g>
        </g>
    </g>
</svg>
