<?xml version="1.0" encoding="UTF-8" standalone="no"?>
<!DOCTYPE svg PUBLIC "-//W3C//DTD SVG 1.1//EN" "http://www.w3.org/Graphics/SVG/1.1/DTD/svg11.dtd">
<svg width="100%" height="100%" viewBox="0 0 349 345" version="1.1" xmlns="http://www.w3.org/2000/svg" xmlns:xlink="http://www.w3.org/1999/xlink" xml:space="preserve" xmlns:serif="http://www.serif.com/" style="fill-rule:evenodd;clip-rule:evenodd;stroke-linejoin:round;stroke-miterlimit:2;">
    <g transform="matrix(1,0,0,1,-104.354,-150.358)">
        <g>
            <path d="M262.093,219.991C261.418,218.541 260.638,217.11 260.441,215.501C260.272,214.12 261.319,212.346 262.82,212.374C265.231,213.986 266.31,211.728 267.745,212.658C275.314,217.837 278.375,227.898 281.796,236.028C282.493,237.687 281.206,242.352 283.778,243.118C285.083,242.073 284.417,238.864 284.791,237.348C285.891,232.882 287.162,228.305 288.362,223.864C288.812,222.196 290.342,219.656 291.126,218.031C294.839,210.323 300.129,203.677 305.217,196.866C307.019,194.453 309.235,194.557 311.98,194.389C313.683,195.219 314.328,195.989 315.56,197.346C315.528,198.507 315.315,200.049 315.183,201.233C312.507,204.382 310.946,205.05 307.838,207.588C306.011,209.08 303.451,212.919 302.069,214.981C293.255,227.884 290.257,243.342 290.036,258.73C289.965,263.505 290.992,266.605 290.557,271.953C294.629,267.242 297.071,262.228 302.043,257.816C307.938,252.583 309.275,248.822 317.942,248.917C318.868,251.48 320.616,254.738 318.613,257.308C316.873,259.542 313.06,260.521 310.912,262.268C303.424,268.366 297.84,277.103 294.168,285.966C292.131,290.818 290.147,295.484 289.21,300.721C288.752,303.276 289.82,306.032 289.878,308.639C289.91,310 289.107,312.624 289.439,313.511L289.807,313.479C292.394,311.158 291.705,308.45 294.418,305.013C306.635,289.542 317.01,271.318 324.763,253.192C325.716,250.964 326.345,247.559 327.158,245.15C328.064,242.461 329.561,239.096 330.148,236.43C331.235,231.505 331.13,225.207 332.367,220.334L332.456,219.983C331.14,217.17 327.774,213.491 331.825,211.305C333.293,210.512 335.741,210.053 337.362,210.693C342.857,212.808 340.373,219.581 340.017,223.962C339.344,232.235 338.407,240.008 335.301,247.795C334.175,250.623 333.535,254.281 332.364,257.13C330.566,261.503 328.5,265.787 326.669,270.15C324.803,274.224 322.589,276.805 320.802,281.397C325.832,278.463 332.101,272.455 337.317,268.779C344.252,263.987 351.397,259.508 358.735,255.358C361.541,253.782 364.301,252.78 366.91,250.723C368.081,249.796 371.657,250.023 373.142,250.453C376.018,251.285 377.918,253.962 376.605,256.931C375.487,259.423 373.207,260.278 370.815,261.244C369.705,261.064 368.491,260.807 367.373,260.596C361.177,263.5 355.198,267.587 349.334,270.976C342.299,275.039 338.567,277.942 332.517,283.308C327.677,287.6 323.684,290.413 319.202,295.368C327.898,291.913 337.922,290.976 347.037,289.308C355.053,287.839 362.114,286.505 370.334,286.363C375.339,286.276 378.803,285.155 383.224,288.4C384.419,291.179 384.432,291.884 383.864,294.708C378.792,298.987 374.471,295.218 368.249,295.229C360.875,294.966 354.371,296.724 347.247,297.734C330.795,300.066 315.273,304.284 302.537,315.524C297.379,320.076 297.226,323.124 294.347,328.368C288.341,339.308 287.273,345.597 287.173,357.818C289.794,362.637 297.287,369.347 303.087,369.561C305.472,369.647 307.477,367.911 309.749,367.142C309.983,367.226 310.844,367.55 310.978,367.432C313.215,365.489 327.066,359.071 327.582,358.021C326.777,355.95 327.361,355.2 328.193,353.1C337.488,349.782 339.246,356.258 345.723,360.905C351.158,364.805 359.119,367.292 365.609,368.892C370.831,370.179 373.197,367.589 378.35,371.689C385.667,371.339 394.652,368.789 402.008,367.687C405.134,367.216 408.703,365.671 411.803,365.079C417.888,363.921 423.176,362.387 428.963,360.213C427.671,358.611 427.458,358.121 426.602,356.311C428.592,356.118 430.582,355.937 432.571,355.771C434.037,355.566 434.666,355.571 435.974,354.732C438.159,353.332 440.59,351.232 442.383,354.495C442.93,355.495 442.891,356.661 443.343,357.761C446.954,365.145 447.602,363.318 452.568,367.358C452.189,369.337 451.989,370.421 451.884,372.421C446.086,371.205 440.63,371.645 435.977,368.111C432.89,368.542 429.784,368.524 426.755,369.168C425.22,369.495 423.581,370.55 422.083,371.05C416.696,372.808 410.916,373.145 405.387,374.371C403.176,374.861 400.379,376.421 398.331,376.761C391.286,377.926 384.327,379.058 377.395,380.858C371.368,382.424 365.594,385.208 359.477,386.387C357.609,386.745 354.345,386.547 352.763,385.326C351.126,384.066 351.745,382.087 352.203,380.411C354.345,378.334 358.127,377.353 361.041,376.774C359.569,376.013 358.219,375.524 356.645,375.029C350.095,372.958 343.586,370.65 337.854,366.755C335.743,366.855 333.388,366.579 331.272,366.337C324.516,369.308 316.841,373.366 312.436,379.4C306.967,380.324 302.853,377.947 297.658,376.508C294.058,375.508 289.807,373.566 286.889,371.213C287.086,381.068 284.751,408.013 291.989,414.716C296.689,419.068 308.125,422.182 314.431,421.821C316.397,421.692 318.352,421.463 320.294,421.134C322.605,420.739 330.524,418.411 332.08,420.145C334.159,422.463 326.616,426.763 324.898,427.295C314.154,430.597 302.345,428.868 292.221,424.374C290.594,423.642 289.415,422.545 287.665,422.1C287.031,423.305 290.105,428.563 290.602,430.111C295.734,446.076 305.156,461.047 316.747,473.108C318.071,474.489 319.142,476.353 320.455,477.789C316.02,478.097 313.839,478.897 310.104,475.329C299.648,465.339 291.434,452.592 285.307,439.603C282.53,433.716 280.285,426.089 277.293,421.076C273.94,431.992 267.513,443.382 262.275,453.474C260.742,456.426 258.184,464 254.201,462.218C253.295,461.813 252.181,461.305 251.81,460.279C251.985,454.587 257.684,447.353 259.59,442.863C261.746,437.782 264.723,431.161 265.908,426.421C263.694,427.066 260.754,427.832 258.747,428.884C252.663,432.076 246.462,435.676 239.701,437.237C237.81,437.671 228.728,436.634 227.913,434.505C228.46,432.266 236.279,432.118 238.755,431.387C247.035,428.942 254.646,423.532 261.556,418.453C263.07,417.324 265.85,413.758 267.071,412.239C263.539,414.032 262.636,416.039 259.757,417.858C253.969,421.513 246.719,424.318 240.387,426.982C238.122,427.937 235.747,428.347 233.46,429.208C232.247,429.634 230.968,431.118 229.677,431.426C227.245,432.005 223.796,431.234 221.512,432.208C217.819,433.784 215.329,436.6 211.525,438.213C206.155,437.295 206.025,436.621 203.283,431.939C204.616,430.892 206.372,429.366 207.997,428.882C213.546,427.224 219.529,426.776 225.168,425.339C231.173,423.705 238.339,421.545 243.881,418.847C245.837,417.897 250.561,416.058 252.028,415.142C259.663,410.371 264.81,404.853 268.495,396.595C271.729,389.35 271.455,386.879 271.869,379.213C272.032,376.205 272.65,371.161 273.116,368.189L272.656,368.379C266.523,370.945 252.263,381.934 246.577,379.75C243.2,378.453 242.786,369.642 239.409,369.279C235.27,371.455 232.629,375.371 229.55,378.721C224.166,384.584 221.069,392.232 215.392,397.768C214.213,398.913 211.077,399.518 209.475,399.034C205.024,397.087 209.99,389.339 211.144,387.332C205.792,381.374 204.406,378.589 197.306,382.276C196.346,382.774 192.017,382.555 190.728,383.158C181.904,386.158 173.062,389.761 164.38,393.134C156.299,396.274 148.8,401.163 140.915,404.716C137.26,406.458 133.736,408.713 129.88,410.195C126.044,411.668 121.964,412.384 118.073,413.524C116.639,412.182 112.206,408.539 115.286,406.466C118.403,404.366 123.168,404.729 126.302,402.734C126.393,402.411 126.485,402.089 126.577,401.768C125.326,400.766 119.988,400.753 122.431,395.579C122.936,394.511 126.275,394.021 127.596,393.724C127.987,392.779 128.378,391.637 128.74,390.663C130.677,390.989 131.729,391.311 133.509,392.071C135.031,394.068 135.397,395.555 135.586,398.039C144.186,395.408 153.466,389.237 162.009,385.942C169.132,383.195 176.524,381.255 183.43,377.834C188.778,375.184 191.13,372.158 197.266,370.987C206.763,369.171 209.973,373.424 217.28,378.595C220.482,375.839 223.614,372.768 226.338,369.539C228.678,366.768 230.122,361.532 233.529,359.997C248.24,353.376 246.582,367.524 252.015,369.221C255.344,370.263 260.661,365.521 263.513,364.084C265.515,363.076 267.66,362.316 269.571,361.132C270.671,360.447 272.179,359.345 272.498,358.024C271.713,354.566 273.337,352.958 273.024,350.763C272.232,345.255 268.403,334.655 266.179,329.713C265.542,328.3 256.513,319.979 254.785,318.363C251.8,315.663 249.287,312.147 246.283,309.511C226.134,291.811 196.998,279.663 171.934,295.484C167.771,293.716 166.876,292.766 165.64,288.479C165.978,288.055 166.314,287.634 166.697,287.25C168.855,285.087 189.85,281.442 193.724,281.484C197.789,281.529 202.427,281.668 206.429,282.339C209.235,282.811 211.866,283.821 214.578,284.645C217.313,285.476 220.145,286.182 222.8,287.237C233.289,291.405 243.379,299.139 251.816,306.529C254.616,308.982 257.611,311.174 260.227,313.834C258.958,310.913 257.616,308.679 255.648,306.161C243.422,290.511 226.304,280.645 206.586,278.166C203.24,277.745 200.556,278.068 197.691,279.847C196.353,279.642 194.86,279.339 193.515,279.095C192.954,276.958 190.786,271.068 193.973,270.629C197.496,270.147 206.121,271.934 210.211,271.695C212.258,271.576 218.719,273.613 220.674,274.205C223.594,275.089 227.58,277.266 230.484,278.505C222.277,270.763 207.612,264.992 196.339,264.692C193.763,264.621 191.359,264.1 188.989,265.313C186.771,264.192 184.528,260.203 183.879,257.836C182.659,258.64 181.32,259.347 180.039,260.06C169.054,255.893 176.36,247.999 183.761,253.308C184.514,253.848 184.497,254.71 184.563,255.579L184.584,255.889C184.807,256.139 189.698,255.05 191.919,255.763C199.724,258.268 207.79,257.899 215.465,261.554C219.092,263.282 222.442,264.911 225.927,266.574C222.275,262.069 217.501,258.128 212.736,254.804C207.643,251.252 203.95,251.137 200.561,245.241C200.956,244.308 201.491,243.349 201.966,242.446C206.607,240.647 206.902,241.664 210.547,244.479C215.446,248.253 220.145,252.278 224.627,256.539C226.373,258.183 227.91,260.014 229.765,261.58C231.822,263.316 234.108,264.753 236.363,266.218C235.823,253.354 233.829,239.806 236.594,227.138C237.918,221.071 241.646,211.444 245.045,206.013C246.194,204.177 249.202,204.454 251.288,204.277C258.168,209.366 252.433,212.762 249.42,217.341C246.984,222.494 242.994,232.697 242.954,238.334C242.841,254.156 245.704,271.224 253.601,285.121C256.253,289.787 261.056,294.353 264.018,298.526C269.661,306.471 274.379,314.792 278.248,323.616C278.522,315.432 278.48,309.003 276.814,300.937C276.416,299.016 277.99,292.816 278.14,290.487C278.369,286.947 278.798,283.074 278.972,279.489C279.411,274.382 278.477,270.692 277.906,265.695C277.69,263.811 278.58,260.386 278.351,258.081C277.409,248.61 275.187,239.387 272.382,230.326C270.442,224.064 267.302,222.649 262.093,219.991Z" style="fill:white;fill-rule:nonzero;"/>
            <path d="M432.571,355.771C434.037,355.566 434.666,355.571 435.974,354.732C438.159,353.332 440.59,351.232 442.383,354.495C442.93,355.495 442.891,356.661 443.343,357.761L439.688,359.45C436.019,357.895 436.727,355.629 432.571,355.771Z" style="fill:white;fill-rule:nonzero;"/>
            <path d="M126.577,401.768C125.326,400.766 119.988,400.753 122.431,395.579C122.936,394.511 126.275,394.021 127.596,393.724C127.942,396.329 128.237,398.426 126.931,400.858C126.818,401.068 126.621,401.508 126.577,401.768Z" style="fill:white;fill-rule:nonzero;"/>
            <path d="M159.937,300.261C163.115,299.476 164.933,302.274 166.578,304.397C165.3,305.718 163.366,307.861 161.781,308.674C159.594,308.358 152.997,306.853 154.696,303.2C155.562,301.339 158.117,300.803 159.937,300.261Z" style="fill:white;fill-rule:nonzero;"/>
            <path d="M247.24,194.108C248.035,193.909 249.672,194.494 250.512,194.738C251.08,195.542 251.705,196.702 252.213,197.576L251.683,201.234C249.758,202.02 249.348,202.773 247.366,202.295C243.946,200.989 238.209,197.528 243.572,194.251C244.765,194.167 246.039,194.148 247.24,194.108Z" style="fill:white;fill-rule:nonzero;"/>
            <path d="M320.137,182.579C320.639,182.546 323.142,182.558 323.603,182.762C327.903,184.658 329.724,188.893 324.732,191.085C321.252,190.955 318.289,188.394 316.865,185.337C317.831,184.439 319.105,183.438 320.137,182.579Z" style="fill:white;fill-rule:nonzero;"/>
            <path d="M340.562,416.353C344.028,416.355 345.3,417.424 347.542,419.879C346.236,422.095 346.115,422.516 343.715,423.611C341.71,424.047 340.802,423.837 338.838,423.487C337.77,419.945 335.564,418.297 340.562,416.353Z" style="fill:white;fill-rule:nonzero;"/>
            <path d="M390.099,286.539C392.686,286.437 393.841,286.95 396.247,287.792C396.989,288.913 397.428,289.913 398.005,291.118C397.062,292.482 396.878,292.724 395.623,293.792C392.038,295.613 386.019,291.847 390.099,286.539Z" style="fill:white;fill-rule:nonzero;"/>
            <path d="M384.435,247.54C387.338,247.685 395.736,251.286 389.856,254.507C388.872,254.825 387.488,255.133 386.456,255.397C383.485,253.626 381.343,250.354 384.435,247.54Z" style="fill:white;fill-rule:nonzero;"/>
            <path d="M436.187,273.482C437.969,273.179 439.669,274.339 440.038,276.108C440.406,277.876 439.309,279.618 437.553,280.05C436.361,280.345 435.103,279.963 434.271,279.055C433.442,278.15 433.177,276.863 433.574,275.7C433.974,274.537 434.977,273.687 436.187,273.482Z" style="fill:white;fill-rule:nonzero;"/>
            <path d="M162.839,193.32C164.569,192.718 166.463,193.615 167.092,195.336C167.721,197.057 166.852,198.964 165.141,199.619C164.01,200.052 162.735,199.842 161.803,199.069C160.87,198.297 160.427,197.083 160.641,195.892C160.856,194.701 161.696,193.718 162.839,193.32Z" style="fill:white;fill-rule:nonzero;"/>
            <path d="M360.414,464.074C362.122,463.574 363.925,464.495 364.517,466.174C365.112,467.85 364.288,469.7 362.646,470.384C361.501,470.861 360.185,470.666 359.227,469.876C358.269,469.089 357.824,467.834 358.074,466.618C358.322,465.403 359.225,464.424 360.414,464.074Z" style="fill:white;fill-rule:nonzero;"/>
            <path d="M106.379,317.279C108.066,316.55 110.026,317.318 110.77,318.997C111.515,320.679 110.766,322.645 109.092,323.405C107.396,324.176 105.397,323.416 104.642,321.713C103.888,320.008 104.668,318.016 106.379,317.279Z" style="fill:white;fill-rule:nonzero;"/>
            <path d="M209.554,475.089C211.282,474.55 213.126,475.482 213.716,477.192C214.307,478.903 213.431,480.774 211.738,481.416C210.597,481.847 209.312,481.624 208.384,480.834C207.455,480.045 207.029,478.811 207.273,477.616C207.516,476.421 208.391,475.453 209.554,475.089Z" style="fill:white;fill-rule:nonzero;"/>
            <path d="M126.042,240.371C127.174,239.94 128.45,240.154 129.38,240.931C130.309,241.708 130.747,242.926 130.524,244.116C130.3,245.306 129.451,246.283 128.304,246.671C126.576,247.253 124.699,246.346 124.083,244.63C123.467,242.914 124.338,241.02 126.042,240.371Z" style="fill:white;fill-rule:nonzero;"/>
            <path d="M441.183,333.058C442.864,332.379 444.783,333.163 445.507,334.826C446.23,336.489 445.499,338.426 443.854,339.192C442.751,339.708 441.456,339.584 440.472,338.868C439.488,338.155 438.969,336.963 439.117,335.755C439.264,334.547 440.056,333.516 441.183,333.058Z" style="fill:white;fill-rule:nonzero;"/>
            <path d="M160.076,442.421C161.821,442.166 163.463,443.311 163.83,445.034C164.196,446.761 163.163,448.474 161.466,448.953C160.265,449.289 158.975,448.934 158.12,448.024C157.264,447.116 156.986,445.808 157.397,444.629C157.808,443.45 158.841,442.6 160.076,442.421Z" style="fill:white;fill-rule:nonzero;"/>
            <path d="M330.817,160.698C332.493,159.959 334.454,160.709 335.212,162.378C335.967,164.048 335.241,166.016 333.577,166.791C332.488,167.3 331.206,167.184 330.224,166.486C329.245,165.789 328.714,164.618 328.835,163.42C328.958,162.223 329.714,161.183 330.817,160.698Z" style="fill:white;fill-rule:nonzero;"/>
            <path d="M397.139,204.372C398.868,203.8 400.736,204.717 401.342,206.434C401.95,208.151 401.071,210.038 399.365,210.679C398.234,211.106 396.957,210.886 396.031,210.105C395.104,209.324 394.673,208.103 394.904,206.914C395.133,205.725 395.989,204.752 397.139,204.372Z" style="fill:white;fill-rule:nonzero;"/>
            <path d="M366.315,178.618C367.407,178.07 368.71,178.161 369.715,178.856C370.72,179.55 371.268,180.737 371.142,181.952C371.015,183.167 370.236,184.217 369.11,184.69C367.446,185.388 365.53,184.643 364.775,183.005C364.022,181.367 364.701,179.427 366.315,178.618Z" style="fill:white;fill-rule:nonzero;"/>
            <path d="M348.897,168.614C349.974,168.032 351.282,168.084 352.308,168.75C353.335,169.416 353.916,170.589 353.821,171.809C353.729,173.029 352.977,174.101 351.861,174.604C350.221,175.342 348.289,174.651 347.492,173.038C346.694,171.426 347.315,169.471 348.897,168.614Z" style="fill:white;fill-rule:nonzero;"/>
            <path d="M136.194,223.343C137.89,222.621 139.85,223.407 140.577,225.099C141.304,226.793 140.524,228.755 138.833,229.487C137.135,230.222 135.162,229.438 134.432,227.738C133.701,226.038 134.492,224.068 136.194,223.343Z" style="fill:white;fill-rule:nonzero;"/>
            <path d="M107.964,297.276C109.706,296.632 111.64,297.529 112.271,299.276C112.902,301.024 111.989,302.95 110.237,303.566C108.505,304.176 106.605,303.276 105.98,301.55C105.356,299.821 106.242,297.916 107.964,297.276Z" style="fill:white;fill-rule:nonzero;"/>
            <path d="M191.273,466.471C192.951,465.679 194.951,466.405 195.731,468.087C196.511,469.771 195.773,471.766 194.086,472.534C192.413,473.297 190.439,472.568 189.665,470.9C188.892,469.232 189.61,467.253 191.273,466.471Z" style="fill:white;fill-rule:nonzero;"/>
            <path d="M174.836,455.379C176.574,454.818 178.441,455.755 179.028,457.484C179.616,459.213 178.707,461.095 176.987,461.708C175.85,462.113 174.583,461.876 173.672,461.084C172.761,460.295 172.346,459.074 172.587,457.892C172.828,456.711 173.687,455.75 174.836,455.379Z" style="fill:white;fill-rule:nonzero;"/>
            <path d="M417.322,408.239C419.162,408.026 420.823,409.345 421.031,411.184C421.239,413.024 419.912,414.679 418.072,414.882C416.241,415.082 414.593,413.763 414.388,411.934C414.18,410.103 415.493,408.45 417.322,408.239Z" style="fill:white;fill-rule:nonzero;"/>
            <path d="M107.279,337.255C108.407,336.784 109.704,336.966 110.658,337.732C111.612,338.497 112.073,339.724 111.858,340.926C111.643,342.132 110.787,343.121 109.627,343.511C107.921,344.079 106.07,343.197 105.438,341.516C104.806,339.832 105.619,337.95 107.279,337.255Z" style="fill:white;fill-rule:nonzero;"/>
            <path d="M115.915,376.224C117.575,375.429 119.566,376.124 120.368,377.779C121.171,379.434 120.483,381.429 118.83,382.237C117.168,383.053 115.161,382.358 114.354,380.695C113.546,379.029 114.247,377.024 115.915,376.224Z" style="fill:white;fill-rule:nonzero;"/>
            <path d="M304.961,485.345C306.733,484.984 308.472,486.097 308.883,487.858C309.296,489.618 308.23,491.389 306.48,491.85C305.306,492.161 304.053,491.805 303.214,490.926C302.374,490.047 302.077,488.782 302.44,487.621C302.803,486.461 303.769,485.589 304.961,485.345Z" style="fill:white;fill-rule:nonzero;"/>
            <path d="M178.51,180.874C180.247,180.293 182.129,181.22 182.727,182.952C183.325,184.684 182.416,186.574 180.69,187.189C178.94,187.813 177.017,186.889 176.41,185.133C175.804,183.376 176.747,181.463 178.51,180.874Z" style="fill:white;fill-rule:nonzero;"/>
            <path d="M441.864,313.021C443.63,312.463 445.515,313.445 446.065,315.213C446.615,316.982 445.622,318.861 443.851,319.4C442.093,319.939 440.23,318.955 439.685,317.2C439.138,315.445 440.111,313.576 441.864,313.021Z" style="fill:white;fill-rule:nonzero;"/>
            <path d="M440.582,292.971C441.783,292.826 442.967,293.342 443.68,294.318C444.393,295.295 444.525,296.579 444.022,297.676C443.52,298.776 442.462,299.518 441.259,299.618C439.443,299.768 437.843,298.437 437.659,296.626C437.474,294.813 438.774,293.189 440.582,292.971Z" style="fill:white;fill-rule:nonzero;"/>
            <path d="M196.005,170.332C197.763,170.001 199.469,171.112 199.877,172.853C200.284,174.594 199.248,176.348 197.526,176.83C196.343,177.162 195.074,176.818 194.221,175.934C193.368,175.051 193.069,173.771 193.441,172.601C193.814,171.431 194.798,170.56 196.005,170.332Z" style="fill:white;fill-rule:nonzero;"/>
            <path d="M342.283,473.611C343.362,473.079 344.642,473.168 345.636,473.845C346.631,474.518 347.187,475.676 347.089,476.876C346.992,478.074 346.257,479.126 345.168,479.634C343.507,480.405 341.536,479.697 340.746,478.047C339.957,476.397 340.641,474.418 342.283,473.611Z" style="fill:white;fill-rule:nonzero;"/>
            <path d="M148.541,207.549C150.235,206.813 152.205,207.592 152.938,209.288C153.671,210.983 152.888,212.952 151.19,213.681C149.498,214.407 147.537,213.627 146.806,211.937C146.076,210.246 146.852,208.283 148.541,207.549Z" style="fill:white;fill-rule:nonzero;"/>
            <path d="M264.481,488.037C265.592,487.558 266.873,487.713 267.834,488.447C268.795,489.182 269.282,490.379 269.11,491.574C268.939,492.771 268.134,493.782 267.005,494.216C265.31,494.868 263.402,494.045 262.715,492.363C262.028,490.679 262.813,488.758 264.481,488.037Z" style="fill:white;fill-rule:nonzero;"/>
            <path d="M271.811,150.705C272.898,150.167 274.187,150.261 275.185,150.948C276.182,151.636 276.73,152.809 276.614,154.015C276.498,155.221 275.737,156.269 274.627,156.754C272.966,157.479 271.032,156.746 270.266,155.104C269.503,153.461 270.187,151.509 271.811,150.705Z" style="fill:white;fill-rule:nonzero;"/>
            <path d="M409.966,219.816C411.138,219.512 412.382,219.866 413.219,220.742C414.054,221.617 414.351,222.877 413.993,224.033C413.632,225.189 412.677,226.061 411.493,226.311C409.719,226.685 407.969,225.574 407.556,223.809C407.14,222.044 408.211,220.271 409.966,219.816Z" style="fill:white;fill-rule:nonzero;"/>
            <path d="M292.544,151.436C294.329,151.022 296.113,152.122 296.542,153.902C296.974,155.681 295.889,157.475 294.113,157.922C292.315,158.374 290.492,157.273 290.057,155.471C289.62,153.668 290.739,151.856 292.544,151.436Z" style="fill:white;fill-rule:nonzero;"/>
            <path d="M323.737,480.697C324.85,480.224 326.132,480.387 327.09,481.129C328.045,481.868 328.527,483.071 328.345,484.266C328.164,485.463 327.348,486.466 326.213,486.892C324.516,487.526 322.621,486.689 321.947,485.005C321.273,483.321 322.068,481.408 323.737,480.697Z" style="fill:white;fill-rule:nonzero;"/>
            <path d="M391.954,439.616C393.678,439.084 395.512,440.018 396.094,441.724C396.678,443.432 395.799,445.292 394.11,445.924C392.973,446.353 391.691,446.126 390.77,445.334C389.846,444.545 389.425,443.316 389.672,442.124C389.92,440.934 390.793,439.974 391.954,439.616Z" style="fill:white;fill-rule:nonzero;"/>
            <path d="M420.973,236.636C422.157,236.428 423.36,236.874 424.126,237.804C424.889,238.733 425.092,240.002 424.657,241.123C424.223,242.245 423.218,243.046 422.028,243.218C420.223,243.481 418.544,242.246 418.254,240.447C417.967,238.648 419.178,236.95 420.973,236.636Z" style="fill:white;fill-rule:nonzero;"/>
            <path d="M117.893,258.588C119.631,257.982 121.53,258.898 122.137,260.635C122.745,262.371 121.831,264.271 120.096,264.882C118.357,265.492 116.452,264.576 115.843,262.837C115.235,261.097 116.153,259.194 117.893,258.588Z" style="fill:white;fill-rule:nonzero;"/>
            <path d="M145.631,428.058C147.351,427.374 149.298,428.221 149.97,429.945C150.641,431.668 149.78,433.611 148.051,434.268C146.34,434.921 144.422,434.071 143.757,432.363C143.092,430.658 143.929,428.734 145.631,428.058Z" style="fill:white;fill-rule:nonzero;"/>
            <path d="M284.272,488.074C285.359,487.518 286.662,487.603 287.67,488.289C288.676,488.979 289.226,490.161 289.105,491.374C288.981,492.589 288.207,493.637 287.083,494.111C285.431,494.808 283.522,494.074 282.767,492.447C282.009,490.821 282.675,488.887 284.272,488.074Z" style="fill:white;fill-rule:nonzero;"/>
            <path d="M252.523,151.945C253.687,151.641 254.924,151.988 255.76,152.852C256.596,153.717 256.902,154.964 256.56,156.117C256.217,157.27 255.28,158.149 254.108,158.417C252.333,158.823 250.562,157.729 250.129,155.961C249.695,154.193 250.762,152.405 252.523,151.945Z" style="fill:white;fill-rule:nonzero;"/>
            <path d="M404.971,424.855C406.098,424.4 407.382,424.589 408.324,425.355C409.266,426.121 409.719,427.337 409.503,428.532C409.29,429.726 408.443,430.708 407.292,431.097C405.584,431.676 403.729,430.792 403.103,429.103C402.474,427.413 403.303,425.532 404.971,424.855Z" style="fill:white;fill-rule:nonzero;"/>
            <path d="M110.773,356.937C111.933,356.558 113.206,356.847 114.092,357.684C114.977,358.524 115.334,359.779 115.021,360.958C114.709,362.137 113.777,363.05 112.592,363.339C110.852,363.763 109.088,362.737 108.598,361.013C108.109,359.289 109.07,357.489 110.773,356.937Z" style="fill:white;fill-rule:nonzero;"/>
            <path d="M232.835,155.873C233.982,155.518 235.231,155.809 236.104,156.633C236.977,157.458 237.339,158.689 237.05,159.854C236.761,161.02 235.868,161.94 234.711,162.262C232.956,162.75 231.135,161.739 230.623,159.992C230.11,158.245 231.095,156.41 232.835,155.873Z" style="fill:white;fill-rule:nonzero;"/>
            <path d="M213.087,162.339C214.671,161.429 216.692,161.965 217.617,163.54C218.542,165.114 218.024,167.14 216.458,168.079C214.871,169.031 212.813,168.506 211.876,166.91C210.939,165.315 211.483,163.261 213.087,162.339Z" style="fill:white;fill-rule:nonzero;"/>
            <path d="M312.091,154.838C313.828,154.354 315.633,155.338 316.165,157.06C316.699,158.781 315.765,160.614 314.06,161.195C312.915,161.586 311.644,161.323 310.749,160.509C309.851,159.694 309.467,158.456 309.746,157.277C310.025,156.098 310.925,155.164 312.091,154.838Z" style="fill:white;fill-rule:nonzero;"/>
            <path d="M425.647,390.979C427.255,390.145 429.234,390.747 430.103,392.337C430.971,393.926 430.408,395.918 428.837,396.821C427.792,397.421 426.502,397.408 425.468,396.787C424.434,396.168 423.815,395.037 423.855,393.832C423.891,392.626 424.576,391.534 425.647,390.979Z" style="fill:white;fill-rule:nonzero;"/>
            <path d="M382.435,190.67C384.114,189.903 386.098,190.648 386.856,192.332C387.612,194.015 386.856,195.993 385.167,196.741C383.493,197.483 381.535,196.733 380.785,195.063C380.032,193.394 380.771,191.431 382.435,190.67Z" style="fill:white;fill-rule:nonzero;"/>
            <path d="M433.269,372.25C434.982,371.579 436.914,372.421 437.585,374.132C438.256,375.842 437.411,377.774 435.7,378.445C433.99,379.116 432.061,378.274 431.389,376.563C430.718,374.853 431.561,372.921 433.269,372.25Z" style="fill:white;fill-rule:nonzero;"/>
            <path d="M428.647,254.948C429.713,254.376 431.005,254.426 432.021,255.081C433.037,255.736 433.619,256.891 433.537,258.098C433.458,259.304 432.726,260.372 431.632,260.884C430.003,261.648 428.06,260.976 427.252,259.368C426.444,257.76 427.063,255.801 428.647,254.948Z" style="fill:white;fill-rule:nonzero;"/>
            <path d="M244.677,485.689C245.802,485.211 247.101,485.387 248.057,486.15C249.013,486.916 249.472,488.142 249.251,489.347C249.03,490.55 248.166,491.537 247.001,491.911C245.31,492.455 243.489,491.574 242.867,489.911C242.245,488.247 243.042,486.387 244.677,485.689Z" style="fill:white;fill-rule:nonzero;"/>
            <path d="M134.18,411.871C134.847,411.847 135.844,411.834 136.469,412.121C137.224,412.474 137.818,413.1 138.131,413.871C139.016,416.005 137.671,417.608 135.779,418.426C130.878,418.432 130.461,412.929 134.18,411.871Z" style="fill:white;fill-rule:nonzero;"/>
            <path d="M111.511,277.792C113.172,277.008 115.154,277.721 115.936,279.384C116.718,281.045 116.002,283.026 114.338,283.805C112.679,284.582 110.703,283.868 109.923,282.211C109.144,280.553 109.854,278.576 111.511,277.792Z" style="fill:white;fill-rule:nonzero;"/>
            <path d="M227.816,482.013C228.893,481.418 230.21,481.468 231.239,482.142C232.267,482.816 232.84,484.003 232.726,485.226C232.612,486.45 231.831,487.513 230.696,487.984C229.068,488.663 227.194,487.95 226.428,486.361C225.662,484.774 226.272,482.863 227.816,482.013Z" style="fill:white;fill-rule:nonzero;"/>
            <path d="M377.392,452.695C379.166,452.426 380.829,453.616 381.153,455.379C381.477,457.139 380.342,458.842 378.592,459.221C377.408,459.479 376.176,459.071 375.381,458.155C374.587,457.242 374.352,455.968 374.771,454.829C375.189,453.692 376.195,452.874 377.392,452.695Z" style="fill:white;fill-rule:nonzero;"/>
        </g>
    </g>
</svg>
