<?xml version="1.0" encoding="UTF-8" standalone="no"?>
<!DOCTYPE svg PUBLIC "-//W3C//DTD SVG 1.1//EN" "http://www.w3.org/Graphics/SVG/1.1/DTD/svg11.dtd">
<svg width="100%" height="100%" viewBox="0 0 348 348" version="1.1" xmlns="http://www.w3.org/2000/svg" xmlns:xlink="http://www.w3.org/1999/xlink" xml:space="preserve" xmlns:serif="http://www.serif.com/" style="fill-rule:evenodd;clip-rule:evenodd;stroke-linejoin:round;stroke-miterlimit:2;">
    <g id="Artboard1" transform="matrix(1.01535,0,0,1.00932,-43.0754,-34.276)">
        <rect x="42.424" y="33.96" width="341.865" height="344.081" style="fill:none;"/>
        <g transform="matrix(0.984883,0,0,0.990769,-5.55371,-80.634)">
            <g>
                <g transform="matrix(1,0,0,1,-52.9655,-33.7376)">
                    <path d="M108.358,325.166C106.397,323.853 104.963,323.082 104.442,320.587C104.05,318.711 104.943,316.897 107.062,316.945C110.102,317.016 110.827,319.097 112.735,320.774C111.317,322.403 109.92,323.689 108.358,325.166Z" style="fill:white;fill-rule:nonzero;"/>
                    <path d="M113.895,380.837C114.529,378.963 113.73,376.466 116.569,376.189C117.172,376.129 117.872,375.892 118.446,375.692L118.686,375.605C121.442,377.4 121.448,382.366 117.366,382.424C115.751,382.445 115.368,382.361 114.388,380.913L113.895,380.837Z" style="fill:white;fill-rule:nonzero;"/>
                    <path d="M436.187,273.482C437.969,273.179 439.669,274.339 440.038,276.108C440.406,277.876 439.309,279.618 437.553,280.05C436.361,280.345 435.103,279.963 434.271,279.055C433.442,278.15 433.177,276.863 433.574,275.7C433.974,274.537 434.977,273.687 436.187,273.482Z" style="fill:white;fill-rule:nonzero;"/>
                    <path d="M162.84,193.32C164.571,192.718 166.464,193.616 167.092,195.337C167.721,197.057 166.852,198.964 165.141,199.619C164.011,200.052 162.735,199.842 161.802,199.069C160.87,198.297 160.427,197.083 160.642,195.891C160.856,194.7 161.697,193.717 162.84,193.32Z" style="fill:white;fill-rule:nonzero;"/>
                    <path d="M360.414,464.074C362.122,463.574 363.925,464.495 364.517,466.174C365.112,467.85 364.291,469.7 362.646,470.384C361.501,470.861 360.185,470.666 359.227,469.876C358.269,469.087 357.824,467.834 358.074,466.618C358.322,465.403 359.225,464.424 360.414,464.074Z" style="fill:white;fill-rule:nonzero;"/>
                    <path d="M209.555,475.089C211.283,474.55 213.126,475.482 213.717,477.192C214.307,478.903 213.43,480.774 211.738,481.416C210.597,481.847 209.312,481.624 208.384,480.834C207.455,480.045 207.029,478.811 207.273,477.616C207.517,476.421 208.391,475.453 209.555,475.089Z" style="fill:white;fill-rule:nonzero;"/>
                    <path d="M126.042,240.371C127.174,239.94 128.451,240.154 129.38,240.931C130.309,241.707 130.747,242.926 130.524,244.116C130.3,245.306 129.451,246.283 128.304,246.67C126.576,247.253 124.699,246.346 124.083,244.63C123.467,242.914 124.338,241.02 126.042,240.371Z" style="fill:white;fill-rule:nonzero;"/>
                    <path d="M330.78,160.709C332.459,159.948 334.433,160.686 335.204,162.358C335.972,164.031 335.246,166.011 333.577,166.789C331.896,167.573 329.898,166.84 329.122,165.154C328.348,163.469 329.09,161.475 330.78,160.709Z" style="fill:white;fill-rule:nonzero;"/>
                    <path d="M441.185,333.058C442.867,332.382 444.783,333.166 445.507,334.826C446.23,336.489 445.496,338.426 443.854,339.192C442.751,339.708 441.456,339.584 440.472,338.868C439.488,338.153 438.969,336.961 439.117,335.753C439.267,334.545 440.059,333.513 441.185,333.058Z" style="fill:white;fill-rule:nonzero;"/>
                    <path d="M397.139,204.372C398.868,203.8 400.736,204.717 401.342,206.434C401.95,208.151 401.071,210.038 399.365,210.679C398.234,211.106 396.957,210.886 396.031,210.105C395.104,209.324 394.673,208.103 394.904,206.914C395.133,205.725 395.989,204.752 397.139,204.372Z" style="fill:white;fill-rule:nonzero;"/>
                    <path d="M160.199,442.408C161.978,442.216 163.593,443.461 163.864,445.229C164.134,446.997 162.964,448.666 161.209,449.016C160.002,449.255 158.761,448.813 157.977,447.863C157.194,446.916 156.995,445.613 157.459,444.474C157.923,443.334 158.975,442.539 160.199,442.408Z" style="fill:white;fill-rule:nonzero;"/>
                    <path d="M366.315,178.618C367.407,178.07 368.71,178.161 369.715,178.856C370.72,179.55 371.268,180.737 371.142,181.952C371.015,183.168 370.236,184.217 369.11,184.69C367.446,185.389 365.53,184.643 364.775,183.006C364.022,181.367 364.701,179.427 366.315,178.618Z" style="fill:white;fill-rule:nonzero;"/>
                    <path d="M136.194,223.343C137.89,222.621 139.85,223.406 140.577,225.099C141.304,226.793 140.524,228.755 138.833,229.487C137.135,230.222 135.162,229.438 134.432,227.738C133.701,226.038 134.491,224.068 136.194,223.343Z" style="fill:white;fill-rule:nonzero;"/>
                    <path d="M348.897,168.614C349.974,168.032 351.282,168.084 352.308,168.75C353.335,169.416 353.916,170.589 353.821,171.809C353.729,173.029 352.977,174.101 351.861,174.603C350.221,175.342 348.289,174.651 347.492,173.038C346.692,171.426 347.313,169.471 348.897,168.614Z" style="fill:white;fill-rule:nonzero;"/>
                    <path d="M191.274,466.471C192.951,465.679 194.951,466.405 195.731,468.087C196.511,469.771 195.773,471.766 194.086,472.534C192.413,473.297 190.438,472.568 189.665,470.9C188.892,469.232 189.611,467.253 191.274,466.471Z" style="fill:white;fill-rule:nonzero;"/>
                    <path d="M174.835,455.379C176.574,454.818 178.441,455.755 179.028,457.484C179.616,459.213 178.707,461.095 176.987,461.708C175.851,462.113 174.584,461.876 173.672,461.084C172.761,460.295 172.346,459.074 172.587,457.892C172.828,456.711 173.687,455.75 174.835,455.379Z" style="fill:white;fill-rule:nonzero;"/>
                    <path d="M417.322,408.239C419.109,408.032 420.738,409.274 421.012,411.05C421.286,412.826 420.104,414.5 418.341,414.839C417.138,415.071 415.906,414.626 415.127,413.682C414.351,412.737 414.151,411.442 414.609,410.308C415.067,409.174 416.109,408.379 417.322,408.239Z" style="fill:white;fill-rule:nonzero;"/>
                    <path d="M107.304,337.25C108.433,336.789 109.724,336.979 110.672,337.747C111.621,338.516 112.075,339.739 111.857,340.939C111.64,342.139 110.785,343.126 109.628,343.513C107.918,344.084 106.063,343.197 105.436,341.505C104.808,339.816 105.635,337.934 107.304,337.25Z" style="fill:white;fill-rule:nonzero;"/>
                    <path d="M178.511,180.873C180.249,180.294 182.13,181.221 182.727,182.953C183.324,184.685 182.416,186.574 180.69,187.189C179.558,187.593 178.297,187.357 177.387,186.572C176.476,185.788 176.058,184.574 176.291,183.396C176.523,182.217 177.371,181.253 178.511,180.873Z" style="fill:white;fill-rule:nonzero;"/>
                    <path d="M304.977,485.345C306.746,484.992 308.477,486.108 308.883,487.868C309.291,489.626 308.227,491.389 306.483,491.85C305.303,492.161 304.051,491.805 303.211,490.924C302.369,490.042 302.077,488.774 302.443,487.613C302.811,486.453 303.782,485.582 304.977,485.345Z" style="fill:white;fill-rule:nonzero;"/>
                    <path d="M440.582,292.971C441.783,292.826 442.967,293.342 443.68,294.318C444.393,295.292 444.525,296.576 444.022,297.676C443.52,298.774 442.464,299.518 441.262,299.618C439.446,299.771 437.843,298.439 437.659,296.626C437.474,294.816 438.774,293.189 440.582,292.971Z" style="fill:white;fill-rule:nonzero;"/>
                    <path d="M441.864,313.021C443.63,312.463 445.515,313.445 446.065,315.213C446.615,316.982 445.622,318.861 443.851,319.4C442.093,319.939 440.23,318.955 439.685,317.2C439.138,315.445 440.111,313.576 441.864,313.021Z" style="fill:white;fill-rule:nonzero;"/>
                    <path d="M196.005,170.332C197.763,170.001 199.469,171.112 199.877,172.853C200.284,174.594 199.248,176.348 197.526,176.83C196.343,177.162 195.075,176.818 194.222,175.934C193.368,175.051 193.069,173.771 193.442,172.601C193.814,171.431 194.798,170.56 196.005,170.332Z" style="fill:white;fill-rule:nonzero;"/>
                    <path d="M342.299,473.603C343.407,473.063 344.723,473.182 345.721,473.905C346.718,474.629 347.234,475.845 347.065,477.066C346.897,478.287 346.068,479.316 344.91,479.742C343.239,480.355 341.381,479.553 340.683,477.916C339.986,476.276 340.696,474.379 342.299,473.603Z" style="fill:white;fill-rule:nonzero;"/>
                    <path d="M433.124,372.305C434.232,371.805 435.521,371.947 436.495,372.674C437.469,373.4 437.969,374.595 437.806,375.8C437.64,377.003 436.837,378.021 435.706,378.461C434.019,379.113 432.119,378.305 431.418,376.637C430.718,374.968 431.476,373.047 433.124,372.305Z" style="fill:white;fill-rule:nonzero;"/>
                    <path d="M148.541,207.549C150.235,206.814 152.205,207.592 152.938,209.288C153.67,210.983 152.888,212.951 151.191,213.681C149.498,214.407 147.537,213.627 146.806,211.937C146.076,210.246 146.852,208.283 148.541,207.549Z" style="fill:white;fill-rule:nonzero;"/>
                    <path d="M438.072,353.071C439.693,352.221 441.696,352.837 442.562,354.45C443.428,356.061 442.833,358.071 441.23,358.953C440.177,359.532 438.895,359.5 437.872,358.871C436.851,358.242 436.243,357.113 436.285,355.913C436.324,354.713 437.008,353.626 438.072,353.071Z" style="fill:white;fill-rule:nonzero;"/>
                    <path d="M264.478,488.037C265.589,487.558 266.871,487.713 267.831,488.447C268.792,489.182 269.282,490.379 269.11,491.574C268.939,492.771 268.134,493.782 267.005,494.216C265.31,494.868 263.402,494.045 262.716,492.363C262.028,490.682 262.813,488.758 264.478,488.037Z" style="fill:white;fill-rule:nonzero;"/>
                    <path d="M123.701,394.658C124.789,394.15 126.066,394.268 127.044,394.966C128.022,395.661 128.55,396.829 128.428,398.024C128.305,399.218 127.551,400.255 126.452,400.737C124.777,401.474 122.821,400.726 122.067,399.058C121.313,397.392 122.042,395.429 123.701,394.658Z" style="fill:white;fill-rule:nonzero;"/>
                    <path d="M271.811,150.705C272.898,150.167 274.187,150.261 275.185,150.948C276.182,151.636 276.73,152.81 276.614,154.016C276.498,155.221 275.737,156.269 274.627,156.754C272.966,157.479 271.032,156.746 270.266,155.104C269.503,153.461 270.187,151.509 271.811,150.705Z" style="fill:white;fill-rule:nonzero;"/>
                    <path d="M409.966,219.816C411.138,219.512 412.382,219.866 413.219,220.742C414.054,221.617 414.351,222.877 413.993,224.033C413.632,225.189 412.677,226.061 411.493,226.311C409.719,226.685 407.969,225.574 407.556,223.809C407.14,222.044 408.211,220.271 409.966,219.816Z" style="fill:white;fill-rule:nonzero;"/>
                    <path d="M292.544,151.436C294.329,151.022 296.113,152.122 296.542,153.901C296.974,155.681 295.889,157.476 294.113,157.922C292.315,158.374 290.494,157.273 290.057,155.471C289.62,153.669 290.739,151.856 292.544,151.436Z" style="fill:white;fill-rule:nonzero;"/>
                    <path d="M323.74,480.7C324.853,480.226 326.134,480.392 327.092,481.132C328.048,481.874 328.527,483.074 328.345,484.271C328.164,485.466 327.348,486.468 326.213,486.892C324.516,487.526 322.621,486.689 321.95,485.005C321.276,483.321 322.074,481.411 323.74,480.7Z" style="fill:white;fill-rule:nonzero;"/>
                    <path d="M391.954,439.616C393.675,439.084 395.51,440.016 396.094,441.724C396.678,443.429 395.799,445.292 394.11,445.924C392.973,446.353 391.691,446.126 390.77,445.337C389.846,444.545 389.425,443.316 389.672,442.126C389.917,440.937 390.791,439.974 391.954,439.616Z" style="fill:white;fill-rule:nonzero;"/>
                    <path d="M107.974,297.276C109.106,296.861 110.374,297.089 111.29,297.874C112.206,298.658 112.627,299.876 112.392,301.058C112.156,302.242 111.3,303.205 110.154,303.579C108.425,304.142 106.563,303.216 105.969,301.497C105.375,299.779 106.266,297.903 107.974,297.276Z" style="fill:white;fill-rule:nonzero;"/>
                    <path d="M420.973,236.636C422.157,236.428 423.36,236.874 424.123,237.804C424.886,238.733 425.092,240.002 424.657,241.123C424.223,242.245 423.218,243.045 422.028,243.218C420.223,243.481 418.544,242.246 418.254,240.447C417.967,238.648 419.175,236.95 420.973,236.636Z" style="fill:white;fill-rule:nonzero;"/>
                    <path d="M117.896,258.587C119.633,257.983 121.531,258.9 122.138,260.636C122.745,262.372 121.831,264.271 120.096,264.882C118.357,265.492 116.451,264.576 115.843,262.836C115.235,261.096 116.155,259.192 117.896,258.587Z" style="fill:white;fill-rule:nonzero;"/>
                    <path d="M145.631,428.058C147.35,427.374 149.298,428.221 149.97,429.945C150.641,431.668 149.78,433.611 148.051,434.268C146.34,434.921 144.422,434.071 143.757,432.363C143.092,430.658 143.929,428.734 145.631,428.058Z" style="fill:white;fill-rule:nonzero;"/>
                    <path d="M284.272,488.074C285.359,487.518 286.662,487.603 287.67,488.289C288.676,488.979 289.226,490.161 289.105,491.374C288.981,492.589 288.207,493.639 287.083,494.113C285.431,494.808 283.522,494.074 282.767,492.447C282.009,490.821 282.675,488.887 284.272,488.074Z" style="fill:white;fill-rule:nonzero;"/>
                    <path d="M252.523,151.945C253.687,151.641 254.924,151.988 255.76,152.852C256.596,153.717 256.902,154.964 256.559,156.117C256.217,157.27 255.28,158.149 254.108,158.417C252.333,158.822 250.562,157.729 250.129,155.961C249.696,154.193 250.762,152.405 252.523,151.945Z" style="fill:white;fill-rule:nonzero;"/>
                    <path d="M404.971,424.855C406.098,424.397 407.382,424.589 408.324,425.355C409.266,426.118 409.719,427.337 409.503,428.532C409.29,429.726 408.443,430.708 407.292,431.097C405.584,431.676 403.729,430.792 403.103,429.103C402.474,427.413 403.303,425.532 404.971,424.855Z" style="fill:white;fill-rule:nonzero;"/>
                    <path d="M110.761,356.937C111.92,356.555 113.194,356.839 114.083,357.674C114.972,358.511 115.333,359.763 115.025,360.945C114.716,362.124 113.787,363.042 112.603,363.334C110.864,363.766 109.096,362.745 108.601,361.024C108.106,359.303 109.06,357.497 110.761,356.937Z" style="fill:white;fill-rule:nonzero;"/>
                    <path d="M232.835,155.873C233.98,155.519 235.227,155.808 236.1,156.629C236.973,157.451 237.338,158.678 237.054,159.842C236.77,161.007 235.883,161.929 234.73,162.257C232.975,162.756 231.145,161.751 230.626,160.002C230.107,158.253 231.092,156.412 232.835,155.873Z" style="fill:white;fill-rule:nonzero;"/>
                    <path d="M213.087,162.339C214.671,161.429 216.692,161.965 217.617,163.54C218.542,165.115 218.024,167.141 216.458,168.08C214.871,169.031 212.812,168.506 211.875,166.91C210.939,165.315 211.483,163.261 213.087,162.339Z" style="fill:white;fill-rule:nonzero;"/>
                    <path d="M312.088,154.838C313.825,154.353 315.633,155.337 316.165,157.059C316.699,158.78 315.765,160.614 314.06,161.195C312.912,161.586 311.644,161.323 310.749,160.509C309.851,159.694 309.467,158.457 309.746,157.278C310.025,156.099 310.922,155.165 312.088,154.838Z" style="fill:white;fill-rule:nonzero;"/>
                    <path d="M425.647,390.979C427.252,390.145 429.234,390.747 430.103,392.337C430.971,393.926 430.408,395.918 428.837,396.821C427.792,397.421 426.502,397.408 425.468,396.787C424.434,396.168 423.818,395.037 423.855,393.832C423.891,392.626 424.576,391.537 425.647,390.979Z" style="fill:white;fill-rule:nonzero;"/>
                    <path d="M382.445,190.668C384.124,189.908 386.101,190.656 386.854,192.338C387.609,194.019 386.851,195.993 385.167,196.741C383.493,197.484 381.532,196.733 380.782,195.06C380.032,193.388 380.774,191.424 382.445,190.668Z" style="fill:white;fill-rule:nonzero;"/>
                    <path d="M134.05,411.932C135.195,411.571 136.446,411.855 137.322,412.676C138.199,413.497 138.564,414.729 138.279,415.895C137.993,417.061 137.101,417.982 135.944,418.305C134.196,418.795 132.378,417.792 131.861,416.05C131.343,414.311 132.318,412.476 134.05,411.932Z" style="fill:white;fill-rule:nonzero;"/>
                    <path d="M428.647,254.948C429.713,254.376 431.005,254.426 432.021,255.081C433.037,255.736 433.619,256.891 433.537,258.097C433.458,259.304 432.726,260.371 431.632,260.884C430.003,261.648 428.06,260.976 427.252,259.368C426.444,257.76 427.063,255.801 428.647,254.948Z" style="fill:white;fill-rule:nonzero;"/>
                    <path d="M244.677,485.689C245.802,485.211 247.101,485.387 248.057,486.15C249.013,486.916 249.472,488.142 249.251,489.347C249.03,490.55 248.166,491.537 247.001,491.911C245.31,492.455 243.489,491.574 242.867,489.911C242.246,488.247 243.042,486.387 244.677,485.689Z" style="fill:white;fill-rule:nonzero;"/>
                    <path d="M227.816,482.013C228.893,481.418 230.21,481.468 231.238,482.142C232.267,482.816 232.839,484.003 232.726,485.226C232.612,486.45 231.831,487.513 230.696,487.984C229.068,488.663 227.194,487.95 226.428,486.361C225.662,484.774 226.272,482.863 227.816,482.013Z" style="fill:white;fill-rule:nonzero;"/>
                    <path d="M377.392,452.695C379.166,452.426 380.829,453.616 381.153,455.379C381.477,457.139 380.342,458.842 378.592,459.221C377.408,459.479 376.176,459.071 375.381,458.155C374.587,457.242 374.352,455.968 374.771,454.829C375.189,453.692 376.195,452.874 377.392,452.695Z" style="fill:white;fill-rule:nonzero;"/>
                    <path d="M111.533,277.787C113.195,277.013 115.169,277.734 115.942,279.397C116.715,281.058 115.995,283.032 114.334,283.808C112.671,284.582 110.695,283.861 109.921,282.197C109.147,280.534 109.869,278.558 111.533,277.787Z" style="fill:white;fill-rule:nonzero;"/>
                </g>
                <g transform="matrix(0.746056,0,0,0.726467,57.1598,162.248)">
                    <path d="M263.192,229.455C241.64,229.262 218.122,238.91 207.404,257.207C200.186,268.923 200.082,279.249 207.636,290.762C215.454,303.168 227.588,316.162 242.193,320.389C270.936,328.707 297.67,319.783 319.104,299.365C339.082,280.333 358.105,254.52 357.694,225.399C357.639,221.599 357.873,217.739 356.071,214.336C355.218,212.77 355.831,211.089 355.034,209.528C344.967,184.068 309.687,172.461 284.382,174.863C280.795,175.203 276.797,174.82 273.247,175.053C262.801,175.737 253.966,177.74 244.322,181.762C238.232,184.299 231.334,185.768 225.529,189.483C223.515,190.402 221.432,191.099 219.505,192.202C213.471,195.649 207.634,201.941 202.178,205.578C190.136,213.612 180.337,223.147 170.418,233.641C168.835,235.315 166.537,236.831 164.828,238.418C150.126,253.739 138.338,271.986 124.789,288.32C119.693,294.462 114.205,299.578 109.679,305.954C106.82,307.094 103.498,310.386 101.028,312.228C88.652,321.46 69.654,317.376 61.898,304.041C61.421,303.22 59.303,300.149 59.118,299.404C57.68,294.241 65.914,287.691 70.243,286.397C75.077,284.949 88.705,290.149 85.997,297.002C84.308,301.278 80.177,301.878 76.296,301.844C74.554,300.223 72.401,299.602 70.429,298.257C70.61,299.247 70.856,300.865 71.149,301.773C76.711,305.233 81.098,310.244 88.175,308.539C93.703,307.21 101.518,302.602 104.933,298.176C105.566,296.302 104.768,293.804 107.607,293.528C108.21,293.468 108.909,293.231 109.484,293.031L109.723,292.944C112.996,290.712 114.729,286.423 117.468,283.302C120.266,280.112 123.092,276.949 125.897,273.768C127.785,271.628 129.563,269.262 131.445,267.076C132.867,265.423 134.77,263.623 136.089,261.997C138.149,259.457 139.909,256.189 141.955,253.557C143.965,250.973 146.297,248.715 148.399,246.239C150.232,244.078 151.882,241.704 153.761,239.531C158.291,234.286 163.408,229.831 168.349,225.089C172.393,221.207 176.409,216.397 180.781,212.61C186.088,208.015 191.416,203.623 197.081,199.439C200.141,197.178 203.115,194.394 206.348,192.165C219.806,182.876 238.062,174.919 253.775,170.64C259.498,169.082 270.254,168.491 276.16,167.863C281.987,167.243 288.922,166.747 294.73,166.798C297.349,166.821 302.265,167.838 305.023,168.133C308.942,168.553 312.89,170.599 316.485,171.603C328.463,174.947 338.606,179.212 348.104,187.444C351.181,190.107 353.531,191.618 355.963,195.31C357.987,198.378 361.118,202.436 362.221,205.976C362.737,207.631 362.95,210.541 363.487,212.483C363.924,214.057 365.782,216.326 365.753,217.891C365.74,218.554 365.345,217.662 365.114,219.007C366.911,222.591 363.916,225.391 364.8,230.949L364.866,231.333C363.355,233.915 361.621,239.968 361.858,243.107C361.926,243.994 362.755,246.068 362.348,247.102C360.368,252.133 356.592,257.189 354.178,262.094C354.67,263.507 354.549,261.731 355.336,262.965C353.149,266.554 352.262,270.686 349.217,273.665C347.451,275.394 342.298,277.723 342.106,280.349C342.461,280.983 343.08,282.015 342.932,282.733C342.64,284.173 339.737,286.357 338.556,287.157L338.227,287.076L337.974,286.033L337.587,286.139C335.234,288.949 332.753,291.636 330.444,294.465C330.297,294.647 330.25,296.368 330.068,296.933C327.313,299.644 323.459,301.657 320.293,303.989C316.696,306.641 312.74,310.839 309.545,313.512C307.116,315.544 298.781,319.504 295.665,321.123C293.172,322.418 284.756,325.791 282.145,326.331C269.667,328.918 254.4,328.602 241.97,325.752C240.504,325.868 233.705,321.665 233.266,321.673C227.574,322.223 227.162,318.418 223.682,315.957C216.74,311.052 211.34,306.218 206.483,299.176C205.155,297.249 202.588,295.033 201.414,292.857C199.411,289.139 197.529,285.039 195.865,281.141C193.277,273.486 195.112,265.823 198.622,258.773C204.965,246.031 214.433,237.641 227.165,231.702C228.613,231.028 231.706,230.149 233.398,229.586C236.049,228.702 239.233,227.299 241.853,226.554C248.341,224.707 256.145,223.523 262.893,223.376C264.785,223.186 268.47,224.191 270.167,223.981C275.494,223.32 278.889,224.823 284.029,226.139C293.386,228.528 302.139,231.389 310.627,236.139C315.53,238.883 320.28,242.681 322.223,248.181C322.594,249.231 322.773,251.978 322.504,252.965C321.238,257.578 319.67,264.876 317.272,268.823C312.301,277.004 304.242,282.076 294.899,283.686C291.651,284.249 288.785,283.92 285.587,284.754L285.198,284.86C288.238,285.273 292.13,284.51 294.699,286.118C297.086,286.073 303.773,283.86 306.113,282.894C319.199,277.489 325.054,263.418 325.944,250.178C323.746,247.247 323.583,244.347 320.201,240.839C317.943,238.499 316.019,236.51 313.503,234.252C311.408,232.454 308.926,229.233 306.629,227.818C299.054,223.147 290.506,218.626 282.79,214.265C279.147,212.207 267.333,209.686 263.183,209.454C256.642,209.089 248.771,209.236 242.168,209.604C228.894,211.299 212.117,217.794 202.177,226.886C192.314,235.907 185.371,244.728 182.779,258.144C182.471,259.739 181.669,261.76 181.347,263.252C181.182,264.018 182.198,265.118 182.098,266.681C181.466,267.444 181.566,267.112 181.381,267.986C183.012,271.615 181.897,270.015 181.18,271.965C183.842,274.362 182.689,276.233 183.742,279.604C186.146,286.412 188.801,296.236 192.22,302.423C196.131,309.502 202.823,320.178 208.547,325.689C218.216,334.441 230.73,339.515 243.187,342.478C270.439,348.968 298.181,338.473 319.98,322.36C326.326,317.67 332.602,314.415 337.942,308.02C339.701,305.915 343.756,303.473 345.688,301.22C358.005,289.033 369.719,274.491 377.754,259.062C381.11,252.62 386.287,238.923 387.745,232.049C387.711,231.944 387.674,231.839 387.639,231.733C387.595,231.594 387.558,231.454 387.513,231.318C387.081,229.989 389.598,221.902 389.7,219.318C389.824,216.239 389.392,213.012 389.176,209.933C388.921,206.281 388.758,202.554 388,198.965C387.384,196.052 386.221,193.312 385.063,190.583C381.144,181.341 377.041,175.783 370.304,168.525C362.384,159.996 349.473,151.436 338.885,146.626C336.442,145.518 333.889,144.784 331.418,143.769C330.734,143.488 327.534,141.509 327.191,141.573C326.718,141.663 326.483,142.397 325.873,142.362C324.283,142.27 322.615,141.196 321.017,140.872C318.204,140.301 315.227,140.442 312.393,139.934C307.466,139.054 302.607,137.667 297.644,136.989C293.388,136.408 287.188,136.17 282.916,136.368C280.876,136.463 278.605,136.964 276.589,136.861C275.418,136.801 274.363,136.197 273.141,136.284C269.496,136.544 260.203,140.388 257.537,140.287C257.074,139.757 257.087,139.707 256.482,139.376C254.795,139.632 253.51,140.807 251.957,141.261C249.736,141.911 250.64,140.97 249.478,140.412C247.557,142.057 248.212,142.074 245.218,142.343C242.977,142.544 239.938,143.256 238.067,144.541C234.86,146.744 232.062,145.952 228.591,147.015C226.688,147.663 224.654,149.345 222.865,150.072C216.28,152.748 210.657,157.306 204.574,160.578C196.557,164.89 188.577,168.615 181.081,173.946C178.944,175.466 176.865,177.121 174.731,178.646C167.242,183.047 160.992,188.765 154.201,194.102C151.681,196.065 147.11,197.189 144.686,199.402C139.214,204.397 133.624,209.207 128.566,214.639C126.48,216.849 122.114,219.823 119.765,222.136C114.4,227.42 109.08,232.781 103.773,238.112C102.354,239.741 100.958,241.028 99.396,242.504C95.496,246.426 91.928,249.531 87.861,253.223C84.455,256.312 81.232,260.112 77.58,263.052C74.353,265.649 70.988,267.836 67.756,270.465C65.196,272.547 62.987,275.239 60.59,277.21C60.086,277.626 56.064,279.562 55.134,280.115C51.942,282.007 43.009,287.47 39.656,288.312C38.334,287.452 38.19,287.931 36.639,288.149C35.273,288.341 33.89,288.381 32.515,288.265C14.186,286.828 4.587,275.518 0.528,258.431C0.037,256.36 -0.042,254.504 0.017,252.391C2.013,249.165 10.109,241.578 13.541,241.315C13.821,241.62 14.065,241.894 14.331,242.21C15.507,241.752 16.652,240.318 18.441,239.541C23.286,241.186 31.488,246.512 33.69,251.373C34.653,253.499 34.899,255.276 35.179,257.554C29.667,263.652 28.769,264.733 20.283,264.349C19.229,262.639 17.127,259.099 15.143,258.504C13.442,259.041 13.993,261.278 14.093,262.815C19.432,267.994 23.365,276.141 31.797,276.091C34.878,276.076 41.275,274.904 44.124,273.557C52.635,269.533 61.656,262.781 68.532,256.278C70.326,254.583 72.058,252.083 73.905,250.362C76.119,248.299 79.066,246.441 81.195,244.462C86.564,239.454 92.254,234.857 97.482,229.691C99.548,227.649 102.706,225.844 104.701,223.794C111.412,216.899 117.238,210.054 125.216,204.499C127.987,202.57 131.011,198.247 133.938,196.218C139.156,191.978 144.478,187.773 149.82,183.694C151.758,182.212 154.723,181.147 156.723,179.641C158.605,178.281 160.61,176.171 162.493,174.709C164.783,173.02 167.138,171.249 169.495,169.654C171.47,168.318 173.774,165.973 175.77,164.85C181.423,161.67 186.891,158.428 192.338,154.889C195.422,152.884 199.088,151.399 202.216,149.42C206.85,146.83 212.378,143.153 217.213,141.161C229.999,135.893 244.568,131.422 258.137,128.748C264.227,127.548 270.996,126.133 277.205,125.71C279.084,125.582 283.492,126.129 285.682,126.232C296.202,126.681 306.689,127.66 317.109,129.166C326.586,130.556 333.197,132.128 341.946,136.326C346.106,138.322 348.688,140.946 352.539,143.351C360.018,147.482 368.619,152.602 374.707,158.655C381.202,165.113 388.632,175.084 393.169,182.999C394.924,186.062 399.351,199.694 398.988,202.789C398.133,210.054 400.607,216.66 399.238,223.744C397.896,230.407 395.243,233.731 394.848,240.678C388.566,247.978 389.29,253.476 386.816,262.104C386.242,264.104 380.626,269.362 379.473,271.536C377.825,274.644 372.33,278.004 373.646,281.689C372.122,285.047 365.685,294.065 362.245,295.812C359.287,297.212 357.415,297.912 354.855,299.949C350.341,303.533 354.27,303.362 352.225,306.986C351.044,309.081 347.488,311.318 344.993,310.494C344.038,310.999 342.461,312.183 341.74,312.978C338.395,316.657 333.734,318.197 332.605,323.289C329.892,324.752 327.202,326.226 324.42,327.573C322.241,328.557 320.12,329.233 318.012,330.386C316.759,331.07 314.422,333.302 313.332,333.744C309.684,335.218 304.584,340.402 301.452,341.62C290.222,345.989 278.184,349.554 266.325,351.683C264.183,352.049 253.426,351.004 250.815,350.778C249.464,350.66 245.18,349.544 243.532,349.304C241.619,349.028 238.655,348.802 236.939,348.186C230.695,345.941 223.873,344.312 218.006,341.257C216.194,340.315 213.589,338.81 212.132,337.441C207.755,333.328 208.486,332.026 202.238,330.976C199.332,327.076 198.89,325.11 196.56,321.333C194.682,318.604 191.927,316.162 190.286,313.289C187.777,308.897 184.371,303.928 182.62,299.17C180.615,293.726 178.397,288.52 176.074,283.212C175.173,281.152 175.202,277.468 174.642,275.241C173.194,269.091 172.357,262.004 173.468,255.626C176.261,241.673 187.86,226.657 198.841,218.189C206.407,212.354 216.955,206.536 226.157,204.699C234.196,203.091 244.357,200.92 252.372,200.554C254.753,201.789 253.596,201.102 255.598,200.881C261.122,200.273 268.001,201.202 273.51,202.297C275.192,202.668 278.397,204.494 280.208,204.923C281.837,205.312 283.108,205.326 284.624,205.489C286.372,205.678 288.959,206.81 290.512,207.673C307.084,216.907 329.929,228.82 336.869,247.744C339.258,254.265 335.487,262.504 332.397,267.823C331.358,269.61 330.247,273.018 329.121,275.076C324.546,283.441 314.859,290.494 305.892,293.378C302.123,294.589 295.307,295.723 291.37,295.194C289.738,295.083 287.243,294.107 285.693,294.126C283.1,294.152 279.813,294.523 277.329,294.039C274.457,293.481 274.292,291.862 272.01,293.339C271.449,293.702 266.049,291.028 265.378,290.631C259.751,287.62 255.048,282.891 253.381,276.573C251.087,267.881 251.584,258.302 256.061,250.368C260.022,243.354 262.943,239.912 269.744,235.557L271.767,234.304L274.491,232.731C273.677,232.252 265.546,230.364 264.733,229.885L263.192,229.455L263.229,229.455L263.169,229.437L263.192,229.455ZM263.169,229.437C268.366,229.466 273.505,230.099 278.263,231.302C276.612,231.803 275.473,232.23 274.484,232.734C285.59,232.589 298.427,236.936 308.171,243.862C318.52,251.218 311.787,268.081 302.729,273.539C296.141,277.507 292.514,277.512 285.256,278.428C270.702,280.268 262.701,273.997 266.754,259.054C268.194,255.328 270.707,251.483 274.963,250.56C277.526,250.002 279.142,251.281 281.176,252.607C277.716,256.033 276.205,257.433 274.199,261.881C275.515,269.039 283.398,270.36 289.561,271.231C294.833,271.973 299.181,269.831 303.439,266.644C307.263,263.778 307.718,258.478 306.779,253.986C304.829,249.078 299.855,244.099 294.78,242.504C287.431,240.194 287.245,240.21 280.901,237.001L273.779,233.057L272.166,230.101L271.237,231.748L263.169,229.437Z" style="fill:white;"/>
                </g>
                <g transform="matrix(0.620719,0,0,0.620719,-1043.25,108.987)">
                    <path d="M1855.45,190.621C1855.45,190.621 1866.2,202.525 1885.4,202.525C1903.32,202.525 1914.07,191.005 1914.07,177.053C1914.07,147.741 1870.3,152.733 1870.3,134.045C1870.3,126.877 1877.08,120.861 1886.68,120.861C1898.2,120.861 1906.52,128.669 1906.52,128.669L1912.28,118.173C1912.28,118.173 1903.45,109.085 1886.68,109.085C1869.66,109.085 1857.5,120.221 1857.5,134.301C1857.5,162.077 1901.27,157.853 1901.27,177.437C1901.27,186.013 1894.11,190.749 1885.66,190.749C1872.22,190.749 1862.62,181.021 1862.62,181.021L1855.45,190.621Z" style="fill:white;fill-rule:nonzero;"/>
                    <path d="M1926.11,155.165C1926.11,181.789 1946.46,202.525 1972.57,202.525C1998.68,202.525 2018.91,181.789 2018.91,155.165C2018.91,129.181 1998.68,109.085 1972.57,109.085C1946.46,109.085 1926.11,129.181 1926.11,155.165ZM1939.16,155.165C1939.16,135.453 1954.14,120.605 1972.57,120.605C1991,120.605 2005.85,135.453 2005.85,155.165C2005.85,175.517 1991,190.877 1972.57,190.877C1954.14,190.877 1939.16,175.517 1939.16,155.165Z" style="fill:white;fill-rule:nonzero;"/>
                    <path d="M2037.34,200.989L2050.01,200.989L2050.01,142.365C2050.01,137.245 2049.11,129.181 2049.11,129.181L2049.37,129.181C2049.37,129.181 2053.59,137.373 2056.92,142.365L2097.24,200.989L2109.66,200.989L2109.66,110.621L2096.99,110.621L2096.99,169.373C2096.99,174.365 2097.88,182.429 2097.88,182.429L2097.63,182.429C2097.63,182.429 2093.4,174.237 2090.07,169.373L2049.88,110.621L2037.34,110.621L2037.34,200.989Z" style="fill:white;fill-rule:nonzero;"/>
                    <path d="M2128.22,155.677C2128.22,183.325 2148.31,202.525 2172.63,202.525C2190.55,202.525 2200.41,191.517 2200.41,191.517L2200.67,191.517C2200.67,191.517 2200.54,193.437 2200.54,195.357L2200.54,200.989L2211.67,200.989L2211.67,155.549L2185.43,155.549L2185.43,166.557L2200.15,166.557L2200.15,179.613C2200.15,179.613 2190.17,190.877 2174.55,190.877C2155.61,190.877 2141.27,176.413 2141.27,155.421C2141.27,136.093 2154.07,120.605 2175.32,120.605C2190.68,120.605 2200.79,129.437 2200.79,129.437L2207.19,119.965C2207.19,119.965 2195.93,109.085 2174.3,109.085C2147.93,109.085 2128.22,129.565 2128.22,155.677Z" style="fill:white;fill-rule:nonzero;"/>
                </g>
            </g>
        </g>
    </g>
</svg>
