<?xml version="1.0" encoding="UTF-8" standalone="no"?>
<!DOCTYPE svg PUBLIC "-//W3C//DTD SVG 1.1//EN" "http://www.w3.org/Graphics/SVG/1.1/DTD/svg11.dtd">
<svg width="100%" height="100%" viewBox="0 0 355 348" version="1.1" xmlns="http://www.w3.org/2000/svg" xmlns:xlink="http://www.w3.org/1999/xlink" xml:space="preserve" xmlns:serif="http://www.serif.com/" style="fill-rule:evenodd;clip-rule:evenodd;stroke-linejoin:round;stroke-miterlimit:2;">
    <g id="Artboard1" transform="matrix(1.04283,0,0,1.0121,-89.122,11.8073)">
        <rect x="85.462" y="-11.666" width="340.197" height="343.584" style="fill:none;"/>
        <g transform="matrix(0.958933,0,0,0.988041,-6.71282,-157.257)">
            <g>
                <g>
                    <path d="M434.995,317.203C435.764,316.35 435.214,315.65 436.553,314.324C439.409,311.503 440.64,313.118 442.514,315.666C444.283,315.482 444.862,315.424 446.657,315.555C445.212,315.808 444.138,315.832 442.688,315.892C441.059,319.537 438.311,321.676 435.708,317.268L434.995,317.203Z" style="fill:white;fill-rule:nonzero;"/>
                    <path d="M104.164,360.034C104.657,358.774 106.499,357.126 107.656,356.445C109.017,357.268 109.934,356.913 110.739,358.484C112.221,361.374 109.432,364.497 106.422,362.955C104.662,362.074 104.984,361.353 104.164,360.034Z" style="fill:white;fill-rule:nonzero;"/>
                    <path d="M100.791,341.979C101.918,340.818 102.167,334.629 107.109,338.363C107.279,339.024 107.431,339.189 107.856,339.726C107.897,341.066 107.839,341.85 107.048,342.924C104.548,344.616 102.62,342.418 100.791,341.979Z" style="fill:white;fill-rule:nonzero;"/>
                    <path d="M205.326,475.168C206.453,474.724 207.731,474.924 208.669,475.687C209.608,476.453 210.062,477.663 209.856,478.858C209.651,480.05 208.818,481.039 207.678,481.445C205.953,482.061 204.054,481.179 203.412,479.463C202.77,477.75 203.622,475.837 205.326,475.168Z" style="fill:white;fill-rule:nonzero;"/>
                    <path d="M345.884,168.258C347.671,167.923 349.397,169.074 349.779,170.852C350.158,172.63 349.05,174.386 347.284,174.811C346.1,175.094 344.855,174.714 344.031,173.818C343.207,172.921 342.936,171.648 343.32,170.493C343.705,169.338 344.686,168.483 345.884,168.258Z" style="fill:white;fill-rule:nonzero;"/>
                    <path d="M432.145,273.5C433.919,273.168 435.637,274.303 436.029,276.063C436.424,277.826 435.35,279.582 433.603,280.037C432.419,280.347 431.158,279.984 430.318,279.092C429.479,278.197 429.192,276.918 429.574,275.755C429.953,274.589 430.939,273.726 432.145,273.5Z" style="fill:white;fill-rule:nonzero;"/>
                    <g transform="matrix(1,0,0,1,4.35156,20.4687)">
                        <path d="M432.145,273.5C433.919,273.168 435.637,274.303 436.029,276.063C436.424,277.826 435.35,279.582 433.603,280.037C432.419,280.347 431.158,279.984 430.318,279.092C429.479,278.197 429.192,276.918 429.574,275.755C429.953,274.589 430.939,273.726 432.145,273.5Z" style="fill:white;fill-rule:nonzero;"/>
                    </g>
                    <path d="M338.323,473.582C339.994,472.787 341.991,473.5 342.786,475.171C343.578,476.842 342.868,478.839 341.196,479.634C339.525,480.429 337.525,479.718 336.733,478.047C335.938,476.374 336.649,474.374 338.323,473.582Z" style="fill:white;fill-rule:nonzero;"/>
                    <path d="M121.936,240.424C123.627,239.707 125.58,240.487 126.313,242.171C127.045,243.855 126.284,245.815 124.607,246.564C122.907,247.323 120.914,246.549 120.171,244.842C119.429,243.135 120.221,241.15 121.936,240.424Z" style="fill:white;fill-rule:nonzero;"/>
                    <path d="M434.019,353.082C435.629,352.205 437.648,352.792 438.54,354.395C439.432,355.997 438.869,358.021 437.274,358.932C436.229,359.529 434.942,359.518 433.908,358.903C432.871,358.287 432.245,357.163 432.269,355.961C432.292,354.755 432.961,353.658 434.019,353.082Z" style="fill:white;fill-rule:nonzero;"/>
                    <path d="M191.86,170.351C193.033,170.072 194.266,170.447 195.086,171.332C195.907,172.216 196.187,173.474 195.821,174.623C195.455,175.773 194.498,176.636 193.317,176.883C191.525,177.257 189.764,176.123 189.366,174.336C188.967,172.549 190.078,170.773 191.86,170.351Z" style="fill:white;fill-rule:nonzero;"/>
                    <path d="M300.777,485.371C302.553,484.908 304.369,485.961 304.851,487.732C305.332,489.5 304.298,491.326 302.535,491.829C301.377,492.158 300.129,491.837 299.271,490.992C298.413,490.147 298.076,488.905 298.387,487.742C298.7,486.579 299.613,485.674 300.777,485.371Z" style="fill:white;fill-rule:nonzero;"/>
                    <path d="M132.189,223.346C133.875,222.627 135.825,223.398 136.563,225.075C137.302,226.752 136.554,228.711 134.886,229.469C133.789,229.968 132.508,229.838 131.534,229.13C130.559,228.422 130.041,227.244 130.176,226.047C130.312,224.85 131.08,223.818 132.189,223.346Z" style="fill:white;fill-rule:nonzero;"/>
                    <path d="M362.314,178.629C363.404,178.08 364.704,178.165 365.709,178.852C366.715,179.538 367.27,180.718 367.154,181.93C367.038,183.143 366.273,184.197 365.157,184.683C363.496,185.403 361.564,184.674 360.796,183.036C360.027,181.397 360.701,179.445 362.314,178.629Z" style="fill:white;fill-rule:nonzero;"/>
                    <path d="M356.414,464.084C358.132,463.574 359.948,464.508 360.53,466.205C361.114,467.9 360.254,469.753 358.585,470.405C357.44,470.85 356.143,470.634 355.206,469.842C354.269,469.047 353.842,467.805 354.095,466.603C354.348,465.403 355.237,464.434 356.414,464.084Z" style="fill:white;fill-rule:nonzero;"/>
                    <path d="M429.145,372.282C430.276,371.784 431.592,371.955 432.561,372.721C433.532,373.489 433.998,374.729 433.777,375.945C433.553,377.163 432.676,378.158 431.497,378.532C429.802,379.066 427.984,378.184 427.358,376.521C426.731,374.858 427.515,372.997 429.145,372.282Z" style="fill:white;fill-rule:nonzero;"/>
                    <path d="M111.958,376.208C113.06,375.695 114.352,375.824 115.334,376.539C116.315,377.253 116.831,378.445 116.682,379.65C116.533,380.855 115.741,381.884 114.615,382.339C112.933,383.018 111.018,382.232 110.297,380.568C109.576,378.905 110.313,376.968 111.958,376.208Z" style="fill:white;fill-rule:nonzero;"/>
                    <path d="M102.463,317.245C104.188,316.561 106.141,317.411 106.813,319.139C107.486,320.868 106.621,322.816 104.887,323.476C103.171,324.129 101.248,323.276 100.582,321.563C99.916,319.853 100.756,317.924 102.463,317.245Z" style="fill:white;fill-rule:nonzero;"/>
                    <path d="M119.625,394.689C121.25,393.887 123.219,394.526 124.064,396.129C124.908,397.734 124.319,399.718 122.737,400.603C121.677,401.197 120.379,401.168 119.346,400.529C118.313,399.889 117.708,398.739 117.766,397.526C117.824,396.313 118.536,395.226 119.625,394.689Z" style="fill:white;fill-rule:nonzero;"/>
                    <path d="M267.831,150.696C268.916,150.163 270.203,150.256 271.2,150.939C272.195,151.623 272.745,152.791 272.637,153.994C272.529,155.197 271.779,156.248 270.676,156.742C269.013,157.488 267.06,156.765 266.284,155.116C265.51,153.467 266.197,151.501 267.831,150.696Z" style="fill:white;fill-rule:nonzero;"/>
                    <path d="M387.946,439.611C389.664,439.082 391.491,440.003 392.086,441.697C392.68,443.392 391.828,445.253 390.159,445.913C389.02,446.361 387.725,446.153 386.788,445.366C385.848,444.579 385.414,443.345 385.656,442.145C385.898,440.945 386.777,439.971 387.946,439.611Z" style="fill:white;fill-rule:nonzero;"/>
                    <path d="M405.874,219.836C407.632,219.325 409.474,220.323 410.006,222.076C410.537,223.828 409.558,225.682 407.811,226.231C406.663,226.592 405.411,226.309 404.532,225.49C403.653,224.671 403.279,223.442 403.558,222.272C403.834,221.103 404.721,220.172 405.874,219.836Z" style="fill:white;fill-rule:nonzero;"/>
                    <path d="M400.913,424.871C402.602,424.145 404.561,424.916 405.297,426.603C406.034,428.287 405.269,430.25 403.587,430.992C401.895,431.742 399.915,430.971 399.176,429.276C398.434,427.579 399.213,425.605 400.913,424.871Z" style="fill:white;fill-rule:nonzero;"/>
                    <path d="M413.114,408.263C414.906,407.947 416.622,409.126 416.972,410.913C417.32,412.7 416.175,414.437 414.393,414.818C413.211,415.071 411.988,414.668 411.188,413.761C410.39,412.855 410.143,411.589 410.54,410.45C410.94,409.311 411.924,408.474 413.114,408.263Z" style="fill:white;fill-rule:nonzero;"/>
                    <path d="M170.849,455.389C172.579,454.832 174.439,455.758 175.033,457.476C175.627,459.195 174.737,461.074 173.031,461.703C171.896,462.118 170.625,461.892 169.706,461.105C168.787,460.318 168.365,459.097 168.602,457.913C168.839,456.726 169.698,455.763 170.849,455.389Z" style="fill:white;fill-rule:nonzero;"/>
                    <path d="M437.214,333.061C438.93,332.382 440.872,333.226 441.546,334.945C442.222,336.663 441.372,338.603 439.653,339.274C437.94,339.942 436.006,339.097 435.332,337.384C434.658,335.671 435.5,333.737 437.214,333.061Z" style="fill:white;fill-rule:nonzero;"/>
                    <path d="M174.511,180.882C176.235,180.308 178.101,181.218 178.71,182.93C179.319,184.642 178.447,186.526 176.748,187.17C175.618,187.599 174.344,187.382 173.418,186.605C172.492,185.828 172.059,184.611 172.286,183.423C172.513,182.236 173.364,181.264 174.511,180.882Z" style="fill:white;fill-rule:nonzero;"/>
                    <path d="M280.309,488.061C281.393,487.513 282.691,487.6 283.696,488.284C284.699,488.971 285.252,490.147 285.136,491.358C285.02,492.568 284.257,493.618 283.141,494.103C281.483,494.821 279.556,494.092 278.79,492.458C278.025,490.824 278.696,488.876 280.309,488.061Z" style="fill:white;fill-rule:nonzero;"/>
                    <path d="M154.917,442.818C156.003,442.208 157.338,442.255 158.379,442.937C159.421,443.618 159.997,444.824 159.872,446.063C159.747,447.303 158.943,448.368 157.786,448.829C156.153,449.479 154.296,448.753 153.538,447.166C152.781,445.579 153.384,443.679 154.917,442.818Z" style="fill:white;fill-rule:nonzero;"/>
                    <path d="M187.277,466.471C188.38,465.953 189.679,466.076 190.664,466.795C191.648,467.513 192.163,468.713 192.005,469.921C191.848,471.132 191.043,472.158 189.907,472.6C188.23,473.253 186.337,472.461 185.628,470.805C184.919,469.153 185.648,467.234 187.277,466.471Z" style="fill:white;fill-rule:nonzero;"/>
                    <path d="M393.178,204.374C394.891,203.833 396.723,204.743 397.328,206.433C397.931,208.124 397.089,209.989 395.423,210.655C394.289,211.108 392.996,210.905 392.057,210.126C391.115,209.346 390.675,208.116 390.909,206.917C391.143,205.718 392.015,204.743 393.178,204.374Z" style="fill:white;fill-rule:nonzero;"/>
                    <path d="M209.105,162.316C210.159,161.723 211.45,161.747 212.482,162.377C213.513,163.007 214.122,164.146 214.075,165.353C214.029,166.561 213.332,167.648 212.255,168.197C210.637,169.02 208.657,168.399 207.8,166.798C206.943,165.198 207.523,163.206 209.105,162.316Z" style="fill:white;fill-rule:nonzero;"/>
                    <path d="M248.54,151.932C250.278,151.491 252.054,152.503 252.56,154.224C253.066,155.944 252.122,157.757 250.421,158.327C249.263,158.716 247.985,158.441 247.089,157.609C246.194,156.778 245.825,155.523 246.127,154.339C246.43,153.156 247.355,152.232 248.54,151.932Z" style="fill:white;fill-rule:nonzero;"/>
                    <path d="M326.924,160.679C328.037,160.228 329.306,160.409 330.248,161.153C331.19,161.897 331.659,163.09 331.477,164.276C331.296,165.463 330.49,166.46 329.369,166.888C327.658,167.539 325.745,166.694 325.074,164.992C324.405,163.291 325.229,161.367 326.924,160.679Z" style="fill:white;fill-rule:nonzero;"/>
                    <path d="M415.956,237.009C417.007,236.428 418.288,236.456 419.312,237.082C420.336,237.708 420.944,238.836 420.907,240.036C420.867,241.236 420.186,242.322 419.125,242.88C417.507,243.731 415.504,243.121 414.635,241.511C413.767,239.902 414.356,237.894 415.956,237.009Z" style="fill:white;fill-rule:nonzero;"/>
                    <path d="M103.995,297.263C105.734,296.645 107.644,297.558 108.255,299.3C108.867,301.042 107.948,302.947 106.205,303.555C104.469,304.161 102.571,303.245 101.962,301.511C101.352,299.776 102.262,297.876 103.995,297.263Z" style="fill:white;fill-rule:nonzero;"/>
                    <path d="M223.856,481.982C224.937,481.405 226.246,481.468 227.267,482.145C228.289,482.821 228.857,484.003 228.747,485.224C228.638,486.442 227.869,487.505 226.744,487.987C225.101,488.695 223.194,487.982 222.42,486.368C221.645,484.758 222.279,482.824 223.856,481.982Z" style="fill:white;fill-rule:nonzero;"/>
                    <path d="M158.818,193.333C160.523,192.729 162.398,193.593 163.047,195.282C163.695,196.971 162.879,198.868 161.207,199.559C160.087,200.022 158.804,199.841 157.855,199.087C156.907,198.332 156.443,197.122 156.642,195.927C156.842,194.731 157.675,193.738 158.818,193.333Z" style="fill:white;fill-rule:nonzero;"/>
                    <path d="M113.978,258.553C115.708,258.006 117.558,258.941 118.142,260.659C118.727,262.376 117.831,264.245 116.126,264.866C114.99,265.279 113.72,265.047 112.805,264.258C111.891,263.468 111.475,262.245 111.718,261.061C111.961,259.877 112.826,258.918 113.978,258.553Z" style="fill:white;fill-rule:nonzero;"/>
                    <path d="M378.353,190.702C379.461,190.16 380.777,190.273 381.774,190.996C382.772,191.718 383.29,192.933 383.122,194.154C382.953,195.374 382.124,196.402 380.966,196.826C379.3,197.435 377.45,196.634 376.753,195.003C376.058,193.373 376.76,191.482 378.353,190.702Z" style="fill:white;fill-rule:nonzero;"/>
                    <path d="M260.447,488.05C261.576,487.555 262.886,487.721 263.855,488.484C264.823,489.247 265.289,490.484 265.068,491.697C264.85,492.911 263.976,493.903 262.801,494.276C261.113,494.813 259.299,493.937 258.672,492.279C258.046,490.621 258.826,488.766 260.447,488.05Z" style="fill:white;fill-rule:nonzero;"/>
                    <path d="M144.58,207.543C145.699,207.073 146.985,207.247 147.937,207.998C148.89,208.749 149.36,209.958 149.163,211.156C148.966,212.353 148.134,213.348 146.991,213.755C145.291,214.36 143.419,213.502 142.766,211.821C142.114,210.139 142.918,208.243 144.58,207.543Z" style="fill:white;fill-rule:nonzero;"/>
                    <path d="M424.657,254.937C426.278,254.073 428.294,254.685 429.163,256.306C430.029,257.927 429.418,259.943 427.797,260.812C426.176,261.682 424.155,261.07 423.286,259.447C422.418,257.823 423.033,255.803 424.657,254.937Z" style="fill:white;fill-rule:nonzero;"/>
                    <path d="M287.71,151.761C289.318,150.892 291.326,151.481 292.21,153.08C293.092,154.68 292.523,156.693 290.931,157.591C289.318,158.501 287.273,157.921 286.378,156.301C285.483,154.681 286.081,152.642 287.71,151.761Z" style="fill:white;fill-rule:nonzero;"/>
                    <path d="M308.183,154.808C309.946,154.37 311.736,155.427 312.204,157.183C312.67,158.939 311.644,160.746 309.896,161.243C308.738,161.572 307.493,161.252 306.64,160.404C305.785,159.557 305.454,158.315 305.775,157.155C306.093,155.996 307.014,155.098 308.183,154.808Z" style="fill:white;fill-rule:nonzero;"/>
                    <path d="M319.829,480.674C321.539,480 323.471,480.842 324.145,482.553C324.819,484.263 323.976,486.197 322.266,486.868C320.555,487.542 318.623,486.7 317.949,484.989C317.276,483.279 318.118,481.347 319.829,480.674Z" style="fill:white;fill-rule:nonzero;"/>
                    <path d="M141.735,428.029C142.873,427.613 144.145,427.85 145.059,428.642C145.973,429.437 146.385,430.663 146.133,431.847C145.882,433.032 145.008,433.987 143.851,434.339C142.125,434.868 140.292,433.926 139.719,432.213C139.145,430.503 140.039,428.647 141.735,428.029Z" style="fill:white;fill-rule:nonzero;"/>
                    <path d="M129.961,411.953C131.101,411.563 132.363,411.818 133.261,412.621C134.159,413.424 134.552,414.65 134.29,415.826C134.028,417 133.151,417.945 131.997,418.289C130.26,418.811 128.427,417.845 127.872,416.118C127.318,414.395 128.247,412.542 129.961,411.953Z" style="fill:white;fill-rule:nonzero;"/>
                    <path d="M107.449,277.818C109.098,276.995 111.102,277.668 111.92,279.321C112.738,280.971 112.057,282.974 110.402,283.784C108.755,284.592 106.766,283.916 105.953,282.274C105.139,280.629 105.808,278.637 107.449,277.818Z" style="fill:white;fill-rule:nonzero;"/>
                    <path d="M240.636,485.711C242.323,484.961 244.298,485.726 245.038,487.416C245.778,489.108 245.001,491.076 243.305,491.808C241.624,492.532 239.675,491.761 238.941,490.084C238.207,488.408 238.964,486.455 240.636,485.711Z" style="fill:white;fill-rule:nonzero;"/>
                    <path d="M228.767,155.887C229.912,155.513 231.171,155.789 232.055,156.607C232.94,157.425 233.313,158.658 233.029,159.829C232.746,161 231.851,161.927 230.69,162.25C228.948,162.735 227.138,161.74 226.615,160.009C226.092,158.279 227.048,156.447 228.767,155.887Z" style="fill:white;fill-rule:nonzero;"/>
                    <path d="M421.744,390.945C423.394,390.155 425.373,390.847 426.171,392.492C426.968,394.139 426.284,396.121 424.641,396.926C422.989,397.737 420.991,397.047 420.186,395.389C419.383,393.734 420.083,391.739 421.744,390.945Z" style="fill:white;fill-rule:nonzero;"/>
                    <path d="M373.223,452.721C374.992,452.376 376.713,453.505 377.103,455.266C377.489,457.026 376.4,458.774 374.65,459.203C373.481,459.489 372.247,459.121 371.428,458.237C370.607,457.355 370.331,456.097 370.705,454.953C371.076,453.808 372.039,452.953 373.223,452.721Z" style="fill:white;fill-rule:nonzero;"/>
                </g>
                <g transform="matrix(0.628073,0,0,0.628073,-1020.2,156.71)">
                    <path d="M1855.45,190.621C1855.45,190.621 1866.2,202.525 1885.4,202.525C1903.32,202.525 1914.07,191.005 1914.07,177.053C1914.07,147.741 1870.3,152.733 1870.3,134.045C1870.3,126.877 1877.08,120.861 1886.68,120.861C1898.2,120.861 1906.52,128.669 1906.52,128.669L1912.28,118.173C1912.28,118.173 1903.45,109.085 1886.68,109.085C1869.66,109.085 1857.5,120.221 1857.5,134.301C1857.5,162.077 1901.27,157.853 1901.27,177.437C1901.27,186.013 1894.11,190.749 1885.66,190.749C1872.22,190.749 1862.62,181.021 1862.62,181.021L1855.45,190.621Z" style="fill:white;fill-rule:nonzero;"/>
                    <path d="M1951.58,200.989L1964.25,200.989L1964.25,121.629L1995.23,121.629L1995.23,110.621L1920.6,110.621L1920.6,121.629L1951.58,121.629L1951.58,200.989Z" style="fill:white;fill-rule:nonzero;"/>
                    <path d="M2000.73,155.165C2000.73,181.789 2021.08,202.525 2047.19,202.525C2073.31,202.525 2093.53,181.789 2093.53,155.165C2093.53,129.181 2073.31,109.085 2047.19,109.085C2021.08,109.085 2000.73,129.181 2000.73,155.165ZM2013.79,155.165C2013.79,135.453 2028.76,120.605 2047.19,120.605C2065.63,120.605 2080.47,135.453 2080.47,155.165C2080.47,175.517 2065.63,190.877 2047.19,190.877C2028.76,190.877 2013.79,175.517 2013.79,155.165Z" style="fill:white;fill-rule:nonzero;"/>
                    <path d="M2111.96,200.989L2124.63,200.989L2124.63,165.021L2143.96,165.021L2163.03,200.989L2177.37,200.989L2158.17,165.917C2156.51,162.973 2155.48,161.821 2155.48,161.821L2155.48,161.565C2165.34,158.365 2171.74,148.637 2171.74,137.117C2171.74,125.213 2165.72,116.125 2156.51,112.669C2153.05,111.389 2149.08,110.621 2139.61,110.621L2111.96,110.621L2111.96,200.989ZM2124.63,154.013L2124.63,121.629L2139.23,121.629C2146.27,121.629 2149.21,122.397 2151.64,123.677C2156.25,126.237 2158.81,130.973 2158.81,137.629C2158.81,147.741 2152.67,154.013 2142.81,154.013L2124.63,154.013Z" style="fill:white;fill-rule:nonzero;"/>
                    <path d="M2212.31,200.989L2224.99,200.989L2224.99,162.717L2255.19,110.621L2240.86,110.621L2224.35,140.317C2221.53,145.437 2218.84,151.709 2218.84,151.709L2218.59,151.709C2218.59,151.709 2215.9,145.309 2213.08,140.317L2196.31,110.621L2181.98,110.621L2212.31,162.717L2212.31,200.989Z" style="fill:white;fill-rule:nonzero;"/>
                </g>
                <g transform="matrix(0.674801,0,0,0.703478,111.201,153.376)">
                    <path d="M245.668,239.673C253.62,232.853 259.409,228.384 268.284,222.853C276.669,217.627 281.03,216.014 290.839,213.776C296.345,212.519 302.664,209.165 308.985,209.515C322.916,210.383 339.788,214.145 351.729,221.488C359.572,226.312 368.491,237.255 373.379,244.968C377.516,252.255 381.021,265.384 380.069,273.466C379.245,279.737 375.271,293.292 371.213,298.008C360.243,310.75 341.802,322.561 324.855,324.605C317.449,325.497 306.567,324.795 300.295,320.574C295.837,317.574 292.784,313.224 287.478,311.234C284.401,310.039 284.63,303.045 283.325,300.076C283.457,299.355 283.599,298.634 283.754,297.918C286.02,287.229 290.392,280.568 299.677,274.905C305.617,270.816 317.681,267.763 324.819,268.513C330.277,269.087 342.615,270.768 339.13,278.732C337.186,283.168 336.959,283.818 332.846,286.005C330.938,285.884 329.029,285.745 327.124,285.582C320.605,281.489 327.192,276.876 325.292,273.224C324.458,272.605 322.037,272.921 320.944,273.047C312.344,274.042 302.014,278.421 296.345,285.155C293.623,288.524 290.076,297.532 290.697,301.637C292.515,313.687 310.654,321.774 321.568,320.439C324.984,320.021 328.903,318.442 332.906,318.15C339.457,317.676 346.484,311.332 351.419,307.521C357.556,303.166 361.885,299.234 366.244,293.095C372.889,283.732 373.942,271.068 371.963,259.984C369.762,247.66 359.48,234.64 349.247,227.677C336.209,219.122 317.584,215.193 302.211,217.737C297.137,218.577 286.567,221.776 281.828,223.937C271.979,228.43 262.639,235.884 254.62,243.026C247.91,249.003 242.688,254.131 239.114,262.598C238.144,264.868 237.782,266.721 236.299,268.795L236.042,269.15C239.988,269.289 240.233,269.176 242.36,272.445C240.89,273.882 241.201,273.984 239.274,275.558C237.545,274.95 236.455,274.321 234.74,274.974C234.309,275.358 233.905,275.811 233.837,276.4C233.396,280.208 232.95,284.003 231.842,287.697L231.526,287.895C226.094,291.237 223.267,289.666 220.274,284.611C222.545,282.237 223.669,278.947 224.927,275.924C217.12,276.263 212.337,278.413 205.135,280.779C196.699,283.55 189.157,285.776 181.543,290.571C179.492,291.861 176.275,292.755 174.155,294.105C160.262,302.932 146.769,311.213 137.77,325.508C135.436,329.218 133.284,333.453 131.954,337.605C131.497,339.034 131.816,341.484 131.486,342.995C130.379,347.616 129.917,347.297 130.705,351.966C131.826,358.611 136.086,362.724 141.224,366.713C143.217,368.261 152.423,369.176 155.245,369.039C155.822,369.011 158.413,368.374 159.157,368.187C160.295,366.674 160.599,366.263 161.402,364.55C164.359,365.608 166.183,366.613 169.042,364.576C175.523,359.958 181.347,352.879 182.857,344.887C183.376,342.142 183.539,339.782 181.86,337.4C179.598,334.095 176.895,329.789 172.674,329.05C167.074,328.071 162.401,332.826 158.049,335.832C160.236,335.853 162.327,335.787 164.509,335.716C166.371,336.976 167.022,337.8 168.449,339.479C167.719,345.395 164.309,347.771 158.3,348.5C155.296,348.866 151.211,346.442 149.007,344.495C145.233,341.158 146.011,336.692 149.444,333.45C150.902,331.463 153.279,330.324 154.979,328.829C158.768,325.497 162.332,323.497 167.585,323.439C172.861,323.382 179.071,324.324 182.887,328.471C186.629,332.518 190.94,335.571 191.178,341.526C191.445,348.221 186.543,354.039 184.455,360.297C182.964,364.768 175.706,369.487 171.71,371.432C167.395,373.534 164.986,374.353 165.315,379.989C165.368,381.324 165.195,382.913 165.378,384.321C166.749,394.874 173.072,403.889 181.091,410.592C183.755,412.816 186.749,414.397 189.787,416.021C198.594,421.166 210.607,424.763 220.844,424.655C222.42,424.637 223.929,425.192 225.66,425.037C230.856,424.574 234.827,424.555 239.94,423.274C246.848,421.545 249.486,420.276 255.465,417.024C262.916,412.974 266.031,411.955 270.6,404.155C267.345,399.995 272.961,400.179 273.571,399.279C275.335,396.489 277.074,391.976 277.148,388.65C277.374,378.461 265.479,371.966 256.568,371.939C243.486,371.897 234.227,373.7 224.077,382.468C218.94,386.908 217.927,385.871 214.13,392.458C220.375,391.537 224.615,389.353 225.698,397.739C223.046,402.761 224.235,405.487 217.429,406.989C214.817,406.247 207.144,401.655 205.117,399.711C204.149,398.784 203.385,397.666 202.876,396.426C201.519,393.058 203.741,392.484 205.506,390.203C213.515,379.995 224.535,372.571 237.004,368.982C240.728,367.942 243.692,367.726 247.382,367.213C265.173,364.742 279.106,371 284.054,389.087C283.172,392.632 280.812,399.397 279.325,402.747L279.714,402.979C282.88,404.905 287.725,407.389 291.397,407.945C293.297,408.232 295.266,408.058 297.174,408.345C299.44,408.687 301.674,409.434 303.922,409.903C323.724,414.042 352.113,406.568 368.804,395.429C377,389.989 382.666,381.484 384.527,371.826C385.411,367.116 384.598,359.032 381.498,355.203C378.974,351.929 376.134,347.992 372.294,346.2C371.334,345.784 369.931,345.739 368.999,345.382C362.688,342.971 355.872,341.976 349.142,342.889C345.934,343.324 342.497,345.25 339.483,346.574C334.019,348.974 328.887,351.574 323.968,355.013C324.934,355.534 325.853,356.126 326.785,356.705L324.755,360.142C331.732,356.447 335.693,354.445 342.483,360.205C341.325,368.474 338.665,373.397 330.016,375.679C325.716,376.816 323.087,376.176 318.973,374.818C314.897,368.405 313.481,364.274 311.038,357.211C316.86,349.205 334.806,342.418 344.113,339.037C345.802,338.424 349.574,338.258 350.747,337.189C351.587,335.011 352.416,333.595 355.143,334.279C356.93,334.729 359.003,334.079 360.762,333.839C372.813,332.192 379.89,323.911 388.059,315.861C393.038,311.755 397.836,306.808 402.995,302.966C407.89,299.318 413.869,295.266 419.078,292.1C421.56,290.589 425.407,289.524 428.076,288.045C430.263,286.832 436.05,282.995 438.214,282.803C439.348,284.039 440.343,283.55 441.977,283.395C443.096,285.176 445.512,287.834 443.193,290.437C442.372,291.358 440.269,292.389 439.017,292.45L438.609,293.329C437.393,293.263 435.437,293.503 434.485,293.339C434.045,292.8 433.629,292.932 432.705,292.792C427.023,295.353 422.296,297.934 417.249,301.645C415.264,303.105 412.317,304.266 410.219,305.734C402.658,311.026 395.639,316.616 389.193,323.237C387.356,325.126 384.293,326.987 382.353,328.897C377.218,335.761 374.123,336.129 366.615,339.545C374.029,339.539 385.69,337.645 392.094,333.832C398.628,329.942 406.387,326.263 412.585,322.266C425.615,313.861 438.964,308.068 454.818,310.005C460.045,310.642 462.485,308.832 464.432,314.587C462.364,320.568 458.553,321.161 454.271,316.737C451.889,316.334 449.025,315.776 446.657,315.555C445.212,315.808 444.138,315.832 442.688,315.892C441.059,319.537 438.311,321.676 435.708,317.268L434.995,317.203C431.911,318.039 425.771,319.921 422.931,321.784C414.217,327.495 403.571,332.074 395.641,338.726C394.617,339.582 380.137,344.403 378.524,344.824C380.216,346.176 384.04,349.113 385.074,350.584C386.725,352.934 390.722,365.703 390.954,368.068C390.696,375.818 385.603,386.453 381.211,392.6C379.727,394.676 373.371,400.237 371.428,401.158C363.936,404.708 355.027,409.671 347.289,412.395C340.633,414.739 332.148,415.103 325.192,416.376C313.16,417.642 286.552,415.103 276.277,408.784C274.206,413.608 269.613,416.111 265.326,418.742C256.056,424.434 249.122,427.774 238.331,429.658C209.022,434.776 171.438,423.134 159.544,393.547C158.045,389.847 155.955,380.882 157.22,376.689C156.859,376.258 155.365,376.134 154.768,376.108C146.781,375.747 141.129,375.345 134.653,370.353C128.617,365.697 124.744,362.166 123.259,354.408C123,353.053 122.253,346.766 121.343,346.397C119.344,347.05 109.494,354.684 107.656,356.445C109.017,357.268 109.934,356.913 110.739,358.484C112.221,361.374 109.432,364.497 106.422,362.955C104.662,362.074 104.984,361.353 104.164,360.034C101.787,361.763 99.282,364.729 96.794,366.674C92.615,369.945 88.136,372.953 83.8,376.026C74.153,382.863 60.719,385.192 49.141,383.134C44.707,382.779 42.435,379.239 39.028,377.461C35.215,375.471 33.585,376.926 30.621,372.682C32.564,368.289 33.707,368.668 38.242,368.018C41.011,370.389 42.577,372.908 45.932,375.466C52.445,380.429 63.281,378.061 70.64,376.574C73.673,375.961 84.495,369.913 87.114,367.808C91.783,364.05 97.679,357.845 102.187,353.605C103.427,352.471 104.484,350.603 105.683,349.576C109.097,346.655 112.647,343.821 116.354,341.287C119.262,339.287 119.64,339.008 123.09,338.368C123.987,336.847 124.648,334.5 125.328,332.787C126.574,329.655 127.727,327.079 129.585,324.271L127.969,324.295C126.116,325.868 122.917,327.863 120.812,329.258C117.171,331.671 110.89,336.466 107.109,338.363C107.279,339.024 107.431,339.189 107.856,339.726C107.897,341.066 107.839,341.85 107.048,342.924C104.548,344.616 102.62,342.418 100.791,341.979C95.298,344.061 87,347.558 81.247,348.255C74.996,349.016 65.974,347.413 60.202,344.971C55.639,342.742 52.143,340.647 47.205,339.424C37.488,337.018 40.583,332.3 47.728,329.697C51.096,328.471 50.999,332.505 52.911,334.166C54.742,335.753 56.713,336.487 58.686,337.824C64.354,342.024 68.607,342.387 75.496,342.571C82.954,342.771 90.161,341.071 96.928,337.866C99.637,336.582 102.446,334.276 105.103,332.811C114.159,327.858 121.538,320.392 129.935,314.684C132.047,313.245 134.329,312.071 136.729,311.192C137.93,310.745 140.63,309.913 141.584,309.303C147.001,305.839 152.89,299.716 158.729,297.766C160.282,294.276 173.855,286.987 177.793,284.955C182.929,283.589 186.368,280.834 191.119,278.979C198.279,276.187 206.67,272.505 214.261,271.321C218.539,270.653 223.38,269.439 227.09,268.439C230.588,258.905 234.121,252.066 241.137,244.509C239.423,241.192 239.377,242.64 239.447,239.366C223.881,220.36 181.139,239.373 168.316,254.544C163.92,259.745 167.79,258.752 171.657,260.734C174.145,262.009 174.715,264.697 175.332,267.011C173.069,269.845 172.548,269.876 169.004,270.566C168.779,270.442 168.556,270.316 168.334,270.187C165.526,268.563 159.453,264.7 157.53,261.988C157.173,261.485 156.755,259.861 156.578,259.186C158.363,256.531 160.097,252.54 162.256,250.195C165.701,246.928 171.514,241.448 175.816,239.467C180.168,237.461 185.457,234.461 189.733,232.599C203.931,226.417 220.939,222.316 235.618,229.32C239.832,231.331 244.093,235.183 245.668,239.673Z" style="fill:white;fill-rule:nonzero;"/>
                </g>
            </g>
        </g>
    </g>
</svg>
