<?xml version="1.0" encoding="UTF-8"?>
<svg id="Layer_2" data-name="Layer 2" xmlns="http://www.w3.org/2000/svg" viewBox="0 0 1269.3 1113.59">
  <g id="Layer_1-2" data-name="Layer 1">
    <g>
      <polygon points="1076.32 608.82 84.96 608.82 84.96 609.31 0 609.31 0 508.8 1079.1 508.8 641.06 70.73 711.78 0 1198.45 486.7 1198.58 486.57 1269.3 557.29 712.98 1113.59 642.25 1042.86 1076.32 608.82"/>
      <path d="m642.25,1042.86l70.73,70.73,556.33-556.29-70.73-70.73-.13.13L711.78,0l-70.73,70.73,438.04,438.07H0v100.51h1.06v-81.89h8.84v-2.48s1108.13,0,1108.13,0L663.87,70.73l47.91-47.91,475.27,475.27,11.58,11.39,47.82,47.82-533.48,533.48-47.91-47.91,450.2-450.17H68.82v16.62h16.13s0-.48,0-.48h991.36s-434.07,434.04-434.07,434.04Z"/>
    </g>
  </g>
</svg>