<?xml version="1.0" encoding="UTF-8"?>
<svg id="Layer_2" data-name="Layer 2" xmlns="http://www.w3.org/2000/svg" viewBox="0 0 270.37 238.44">
  <g id="Layer_1-2" data-name="Layer 1">
    <path d="m159.09,222.66h-15.91v15.78h-15.91v-15.76h-15.91v-15.89h-15.86v-15.94h-15.99v-15.91h-15.87v-15.93h-15.88v-15.86h-15.95v-15.97h-15.91v-15.92H0v-63.58h15.87v-15.97h15.92v-15.88h15.92V0h47.65v15.78h15.96v15.92h15.81v15.85h16.01v-15.82h15.94v-15.87h15.89V.01h47.66v15.77h16v15.94h15.87v15.89h15.86v63.57h-15.83v15.94h-15.87v15.93h-15.9v15.86h-15.93v16h-15.9v15.85h-15.94v15.98h-15.91v15.93Z"/>
  </g>
</svg>