<?xml version="1.0" encoding="UTF-8"?>
<svg id="Layer_2" data-name="Layer 2" xmlns="http://www.w3.org/2000/svg" viewBox="0 0 459.61 110.05">
  <g id="Layer_1-2" data-name="Layer 1">
    <g>
      <g>
        <path d="m459.61,108.8v1.25c-7.75,0-24.29-.01-29.57-.09-24.77-.37-42.62-22.17-38.67-46.61.28-1.73,1.84-11.63,8.47-18.26,7.54-7.56,15.65-12.2,23.17-14.92-1.02-.91-1.78-1.67-2.61-2.36-5.03-4.18-6.27-10.41-4.55-15.83,1.97-6.21,7.12-10.25,13.78-10.35,4.45-.08,8.78-.02,13.22,0,.99.01,1.84-.15,3.23,0,1.08,4.64,2.49,9.98,3.56,14.57-.24.09-.47.18-.72.27-.32-.54-2.48-5.67-3.43-7.59-2.26-4.62-5.83-6.37-10.93-5.53-6.53,1.07-11.36,7.18-11.03,13.91.34,6.84,5.8,11.02,12.48,12.48,1.85.4,3.07.87,5.22,1.26-4.47,1.04-9.48,1.77-13.58,3.75-20.81,10.05-24.41,24.1-25.19,27.64-4.21,19.36,6.4,37.34,25.09,44.16,3.75,1.37,7.93,1.8,11.95,2.1,2.36.18,14.28.19,20.1.16Z"/>
        <g>
          <path d="m325.68,108.87v-1.51h-.02c.04.51-.03,1.04,0,1.53,8.13-.02,16.64,0,24.77,0,1.5,0,3.02.06,4.52,0v-.02h-29.28Z"/>
          <g>
            <path d="m264.85,31.09c-9.05-17.91-23.99-28.19-44.02-30.54-18.72-2.2-34.85,3.39-48.14,16.86-16.89,17.12-19.96,43.98-7.33,64.45.91,1.48,2,2.86,3.56,5.07,2.13-5.92,3.95-10.82,2.06-16.46-2.82-8.39-3.01-17.09-1.56-25.76,2.45-14.64,9.09-26.93,21.47-35.56,11.84-8.26,24.7-9.64,38.11-4.31,9.73,3.87,16.97,10.72,22.24,19.67,6.35,10.78,8.53,22.5,7.71,34.86-.72,10.96-3.5,21.14-9.53,30.08.84.78,1.65,1.61,2.45,2.44,2.42-1.9,4.54-4.02,6.52-6.34,13.4-15.69,15.44-36.69,6.45-54.47Z"/>
            <path d="m270.06,107.39s-12.83-.76-12.83-.76c-14.07-.02-28.15,0-42.22.15-10.47.11-19.49-3.26-27.49-9.78-1.04-.84-2.16-1.58-3.72-2.71-.6,1.88-1.03,3.22-1.51,4.68,1.43.93,2.54,1.75,3.73,2.42,8.19,4.61,17.07,6.99,26.4,7.05,14.66.1,42.42.11,57.08.1.22-.66.21-.55.55-1.17Z"/>
          </g>
          <path d="m273.78.03c-9.99,0-19.12,2.34-26.96,6.5,1.17.71,2.2,1.39,3.39,2.29,18.92-13.05,45.6-8.67,59.03,12.36,6.25,9.79,8.97,20.58,9.29,34.56-.09,13.38-3.93,27.96-15.39,39.59-17.61,17.86-46.8,15.92-62.38-3.95-15.72-20.05-15.98-52.72-.59-73,.02-.02.85-1.05.86-1.07-1.31-1.52-2.66-2.81-4.23-3.98-10.4,9.7-17.64,24.66-17.7,40.92-.12,31.52,22.89,54.59,54.5,54.66,31.5.08,54.5-22.74,54.62-54.2C328.36,23.16,305.35.05,273.78.03Z"/>
          <g>
            <path d="m159.61,108.89c2.48-3.26,4.91-6.27,6.86-9.26,4.06-6.26,6.38-13.28,8.01-20.48,1.79-7.92,3.03-15.97,2.48-24.13-.33-4.97-.96-9.93-1.78-14.84-.44-2.59-.33-4.96.81-7.27,1.26-2.55,3.26-5.74,4.66-8.45.8,1.94,1.11,3.13,1.52,4.33,3.57,10.52,4.89,21.38,4.63,32.45-.2,8.9-1.29,17.67-4.01,26.18-2.06,6.45-4.82,12.57-8.75,18.14-1.5,2.12-3.62,3.34-6.1,3.34h-8.32Z"/>
            <path d="m174.08,10.97c-2.54,2.26-4.51,4-6.68,5.91-.41-.51-.96-1.29-1.62-1.98-2.54-2.62-4.82-5.63-7.73-7.73-5.33-3.86-10.66-3.22-15.63,1.09-3.34,2.91-5.5,6.63-7.09,10.65-4.69,11.8-5.17,23.98-1.91,36.13,4.42,16.49,9.3,32.86,13.96,49.3.32,1.15.86,2.85,1.16,4.55-7.18,0-13.68.03-20.08,0-.05-.27.03-.89-.02-1.15,1.22-.2,2.29-.42,3.51-.64,4.47-.81,5.64-2.44,4.52-6.88-1.43-5.64-3.06-11.22-4.65-16.82-3.32-11.68-6.7-23.34-10.03-35.03-3.05-10.7-6.04-21.43-9.07-32.14v-.02c-.31-1.1-1.93-.82-1.88.31.02.29.05.56.05.82-.06,6.7-.04,13.41-.05,20.12,0,19.86,0,39.73,0,59.6,0,.88-.02,1.77,0,2.65.16,4.44,1.86,6.46,6.19,7.3.47.09.94.17,1.43.22h2.19v1.68h-21.3v-1.68h2.15c.67-.1,1.34-.2,1.99-.36,3.84-.94,5.02-2.38,5.19-6.36.04-1.01.02-2.03.02-3.04,0-28.85,0-57.71,0-86.55,0-.76.02-1.52-.02-2.27-.23-4.05-1.56-5.55-5.63-6.39-1.11-.22-2.37-.5-3.77-.79l-.02-1.45h18.41c3.43,10,5.88,21.74,9.33,32.18.43,1.33,2.37,1.24,2.66-.12.08-.4.12-.8.21-1.19,1.05-4.41,1.91-8.9,3.35-13.19,1.58-4.72,4.36-8.84,8.12-12.2,7.7-6.86,17.52-7.36,25.75-1.1,2.38,1.81,4.38,4.1,6.97,6.56Z"/>
          </g>
          <path d="m404.95,106.98s-6.41.1-8.52-.16c-4.5-.55-8.2-3.74-9.6-7.88-1.1-3.24-2.08-6.59-2.51-9.97-.62-4.79-.67-9.65-1-14.47-.42-5.98-.55-11.99-1.4-17.9-1.05-7.26-3.99-13.95-11.49-16.45-.6-.19-.74-.29-1.46-.61,1.22-.55,2.94-1.25,3.91-1.8,3.05-1.72,5.38-3.06,7.5-5.16,7.12-7.01,7.1-17.95.22-25.14-4.65-4.86-10.39-7.33-17.09-7.37-9.71-.06-19.42-.03-29.12-.02-1.41,0-2.82,0-4.23,0-.47,0-.94,0-1.41-.03h-2.38v1.68h4.24c3.81,1.12,4.88,3.95,4.86,8.07-.09,29.58-.02,59.18-.05,88.76,0,5.93-1.62,8.02-7,8.66h-2.73v1.68h29.29v-1.68h-2.51c-6.57-1.11-7.27-2.52-7.29-10.26,0-15.81,0-31.63,0-47.44,0-1.4,0-2.81.13-4.21.33-3.33,1.75-4.94,5.08-5.09,3.55-.17,7.16-.13,10.7.29,1.78.21,3.61,1.22,5.11,2.28,2.81,2,4.29,4.99,5.16,8.28,1.58,5.95,2.15,12.03,2.35,18.16.19,6.1.11,12.26.77,18.31,1.24,11.39,8.64,20.77,21.25,21.37,2.31.11,9.24,0,9.24,0v-1.91Zm-38.68-70.68c-2.6,1.53-5.41,2.22-8.38,2.31-2.54.08-5.09.07-7.64-.03-3.03-.11-4.32-1.29-4.87-4.3-.17-.87-.19-1.78-.19-2.66,0-8.9-.02-17.81,0-26.7,0-1.11-.03-1.41.12-2.82,7.83-.2,17.38-.79,22.87,2.73,11.76,7.54,10.55,24.14-1.92,31.47Z"/>
        </g>
      </g>
      <path d="m41.71,56.06c.39-.84.64-1.27.79-1.73,3.19-9.68,9.93-15.3,19.8-17.27,2.15-.43,4.38-.71,6.56-.68,6.1.07,12.21.47,18.31.49,4.08.01,12.18-.61,16.45-2.13.59-.21,1.13-.54,2.13-1.03-1.25,3.39-2.03,6.51-5.09,8.2-.89.49-1.9.91-2.9,1.04-3.48.47-6.98.43-10.5.24-2.06-.11-6.89-.25-7.56-.2.4.41,1.35,1.29,1.66,1.55,3.81,3.21,6.26,7.33,7.52,12.07,3.6,13.53.26,25.32-9.32,35.39-1.15,1.21-2.6,2.15-3.91,3.22-.49.4-.97.79-1.62,1.31,3.98,3.78,8.68,5.47,13.69,6.47,5.09,1.02,10.05.72,14.79-1.74.07.13.13.27.2.4-.54.51-1.03,1.08-1.63,1.5-3.69,2.63-7.73,4.59-12.15,5.58-2.34.52-4.77.43-7.15-.12-4.75-1.1-9.15-2.97-13-6-1.42-1.11-2.67-1.2-4.27-.37-5.43,2.8-11.27,4.44-17.27,5.28-4.69.65-9.46.59-14.18-.22-8.31-1.42-15.57-5.03-21.71-10.76C2.76,88.53-1.16,78.51.3,66.84c1.71-13.65,9.07-23.54,21.39-29.69.63-.32,1.27-.62,2.07-1-.12-.67-.18-1.3-.36-1.9-1.45-5.09-2.32-10.27-2.7-15.55-.09-1.23.13-2.26.94-3.25,3.55-4.34,7.16-8.62,12.08-11.5,7.89-4.61,16.05-5.28,24.45-1.5,4.01,1.81,7.52,4.38,10.71,7.39.46.43.86.94,1.43,1.57-1.06,1.04-2.05,1.95-2.97,2.93-.92.98-1.76,2.04-2.73,3.18-.48-.48-.87-.8-1.19-1.18-5.55-6.45-12.48-10.36-20.99-11.09-4.35-.37-8.56.4-12.24,3.02-2.94,2.09-4.17,4.97-3.6,8.49.54,3.33,1.09,6.69,1.99,9.93,2.62,9.46,6.83,18.26,11.5,26.85.4.73.9,1.41,1.62,2.52Zm23.37,44.26c-19.42-17.06-31.99-38.17-40.56-61.73-.35-.06-.48-.12-.6-.1-.19.02-.39.07-.57.14-4.31,1.61-8.25,3.86-11.57,7.06-3.09,2.98-4.97,6.66-5.62,10.91-1.4,9.15.43,17.78,4.68,25.86,3.03,5.76,7.23,10.64,12.66,14.34,4.27,2.91,8.81,5.25,13.89,6.46,3.24.77,6.51,1.11,9.84,1.23,5.48.21,10.74-.68,15.76-2.88.63-.27,1.18-.72,2.09-1.28Zm7.66-4.81c.93-.69,1.78-1.18,2.47-1.84,2.91-2.75,5.27-5.92,6.86-9.62,2.15-5.01,2.85-10.19,2.29-15.64-.73-7.12-2.98-13.61-7.61-19.08-5.51-6.5-12.47-9.49-21-7.54-5.47,1.25-9.05,4.8-10.44,10.22-1.39,5.41-.07,10.43,2.94,15.06,5.13,7.87,10.9,15.22,17.31,22.07,2.13,2.28,4.42,4.38,7.18,6.37Z"/>
    </g>
  </g>
</svg>